<?xml version="1.0" encoding="utf-8"?><svg viewBox="0 0 349.6 2000" xmlns="http://www.w3.org/2000/svg" xmlns:xlink="http://www.w3.org/1999/xlink"><style>:root>svg{display:none}:root>svg:target{display:block}</style><svg viewBox="0 0 14 9" id="icons--arrow-down" xmlns="http://www.w3.org/2000/svg"><path d="m7.576 8.488 5.433-5.922a1.054 1.054 0 0 0 0-1.455c-.388-.415-.97-.415-1.358 0L6.8 6.202l-4.85-5.09C1.56.695.98.695.59 1.111a.976.976 0 0 0-.291.727c0 .311.097.52.291.727l5.433 5.922c.485.416 1.067.416 1.552 0-.097 0-.097 0 0 0Z"/></svg><svg viewBox="0 0 52 52" id="icons--inst" xmlns="http://www.w3.org/2000/svg"><path d="M37.57 11.83a2.6 2.6 0 1 0 0 5.2 2.6 2.6 0 0 0 0-5.2Zm9.967 5.243a16.448 16.448 0 0 0-.997-5.265 10.704 10.704 0 0 0-2.513-3.835 10.183 10.183 0 0 0-3.835-2.491 15.817 15.817 0 0 0-5.265-1.019c-2.297-.13-3.034-.13-8.927-.13s-6.63 0-8.927.13c-1.8.038-3.58.382-5.265 1.019a10.357 10.357 0 0 0-3.835 2.491 10.183 10.183 0 0 0-2.491 3.835 15.816 15.816 0 0 0-1.019 5.265c-.13 2.297-.13 3.034-.13 8.927s0 6.63.13 8.927c.038 1.8.382 3.58 1.019 5.265a10.184 10.184 0 0 0 2.491 3.835 10.359 10.359 0 0 0 3.835 2.491c1.685.637 3.465.981 5.265 1.019 2.297.13 3.034.13 8.927.13s6.63 0 8.927-.13c1.8-.038 3.58-.382 5.265-1.019a10.184 10.184 0 0 0 3.835-2.491 10.51 10.51 0 0 0 2.513-3.835c.618-1.69.955-3.468.997-5.265 0-2.297.13-3.034.13-8.927s0-6.63-.13-8.927Zm-3.9 17.594a12.156 12.156 0 0 1-.737 4.03 6.631 6.631 0 0 1-1.625 2.491 6.912 6.912 0 0 1-2.492 1.625 12.153 12.153 0 0 1-4.03.737c-2.166.108-2.968.13-8.666.13-5.699 0-6.5 0-8.667-.13a12.412 12.412 0 0 1-4.203-.65 7.085 7.085 0 0 1-2.384-1.625 6.5 6.5 0 0 1-1.603-2.492 12.004 12.004 0 0 1-.867-4.116c0-2.167-.13-2.969-.13-8.667s0-6.5.13-8.667a12 12 0 0 1 .759-4.116 6.5 6.5 0 0 1 1.711-2.384A6.804 6.804 0 0 1 13.217 9.1a12.415 12.415 0 0 1 4.116-.737c2.167 0 2.969-.13 8.667-.13s6.5 0 8.667.13c1.375.016 2.738.265 4.03.737.984.365 1.868.96 2.578 1.733a6.63 6.63 0 0 1 1.625 2.384c.482 1.319.73 2.712.737 4.116.108 2.167.13 2.969.13 8.667s-.022 6.5-.13 8.667ZM26 14.885A11.115 11.115 0 1 0 37.137 26 11.093 11.093 0 0 0 26 14.885Zm0 18.33a7.215 7.215 0 1 1 0-14.43 7.215 7.215 0 0 1 0 14.43Z"/></svg><svg viewBox="0 0 1920 10984" id="icons--main-decor" xmlns="http://www.w3.org/2000/svg"><path opacity=".2" d="m-23.244 11142.5.835-3.6c522.038 136.1 494.497 470.6 464.47 825.1-22.35 265.4-44.805 539.7 156.57 753.7 161.701 171.9 292.399 107.5 443.709 32.6 109.56-53.7 233.08-115 387.19-92.6 176.41 25.8 364.5 157.5 574.62 402.8l-2.81 2.4c-209.34-244.4-396.77-375.7-571.99-401.3-152.39-22.3-276.04 38.5-385.07 92.1-152.898 75.3-284.532 140.4-448.454-33.6-202.813-215.3-179.953-490.2-157.73-756.1 29.875-352.8 57.668-686.3-461.34-821.5Z"/><path opacity=".2" d="M1981 1.5C1548.17 17.333 628.6 219.8 413 903c-215.6 683.2 494.833 1421 877 1704.5 411.17 271.33 986.8 1376.5 0 3626.5-1233.5 2812.5-1067.5 3027 0 4459l793.5 1029c-266.67 35.3-774.4 305.4-672 1103 102.4 797.6-994.667 1722-1556 2084.5"/><path opacity=".2" d="M-1049 92c432.833 15.833 1352.4 218.3 1568 901.5 215.6 683.2-494.833 1421-877 1704.5-411.167 271.33-986.8 1376.5 0 3626.5 1233.5 2812.5 1067.5 3027 0 4459"/></svg><svg viewBox="0 0 146 146" id="icons--mark" xmlns="http://www.w3.org/2000/svg"><path d="M97.78 63.503c4.526-4.57 5.658-10.861 2.524-14.025-3.134-3.165-9.366-2.021-13.892 2.548-4.28 4.322-5.523 10.184-2.993 13.483l-5.907 5.965-1.195-1.208-28.233 28.505 3.397 3.429 28.232-28.504-1.195-1.207 5.907-5.965c3.268 2.555 9.074 1.301 13.355-3.021ZM77.618 73.78l-26.052 26.303-1.386-1.398 26.052-26.303 1.386 1.398Zm7.36-8.83c-2.579-2.604-1.484-7.947 2.44-11.91 3.925-3.962 9.217-5.067 11.796-2.463 2.579 2.604 1.485 7.947-2.44 11.91-3.925 3.962-9.216 5.067-11.796 2.463Z"/><path d="M60.073 52.022c-4.52-4.576-10.742-5.72-13.872-2.552-3.13 3.169-1.999 9.469 2.52 14.044 4.276 4.329 10.073 5.585 13.337 3.026l5.899 5.973-1.194 1.209 28.193 28.543 3.392-3.434-28.194-28.543-1.193 1.208-5.9-5.972c2.527-3.305 1.287-9.174-2.988-13.502ZM70.24 72.406l26.016 26.34-1.383 1.4-26.016-26.34 1.383-1.4Zm-8.734-7.442c-2.576 2.608-7.86 1.501-11.779-2.467-3.92-3.968-5.012-9.317-2.437-11.925 2.576-2.608 7.86-1.501 11.78 2.467 3.919 3.968 5.012 9.317 2.436 11.925ZM72.103 12.122c-.358 0-.76-.02-1.207-.057a31.287 31.287 0 0 0-.652-.039c-.256-.013-.543-.02-.863-.02l-1.418.02c-.23.013-.556.02-.977.02-.026 0-.039-.04-.039-.116 0-.077.013-.115.038-.115.397 0 .684-.032.863-.096a.575.575 0 0 0 .364-.365c.077-.192.109-.48.096-.865V1.595c-.026-.385-.077-.666-.153-.846a.575.575 0 0 0-.365-.365c-.178-.077-.447-.115-.805-.115-.025 0-.038-.038-.038-.115 0-.077.013-.116.038-.116l.978.02c.562.025 1.022.038 1.38.038.422 0 .843-.02 1.265-.058A28.55 28.55 0 0 1 71.796 0c1.342 0 2.53.25 3.566.75 1.035.486 1.84 1.171 2.415 2.055.575.883.862 1.895.862 3.035 0 1.23-.306 2.325-.92 3.285a6.222 6.222 0 0 1-2.396 2.21 6.805 6.805 0 0 1-3.22.787Zm-.172-.384c.894 0 1.674-.211 2.338-.634.665-.435 1.176-1.063 1.534-1.883.37-.82.555-1.806.555-2.958a8.2 8.2 0 0 0-.479-2.805 4.938 4.938 0 0 0-1.533-2.21C73.656.673 72.774.385 71.7.385c-.511 0-.856.096-1.035.288-.18.18-.269.5-.269.96v8.646c.013.525.122.903.326 1.133.217.218.62.327 1.208.327Zm23.163 1.123a.13.13 0 0 1 .103-.01c.036.011.07.034.1.07.032.023.041.039.025.047a18.026 18.026 0 0 0-.95 2.564.402.402 0 0 1-.12.205c-.048.026-.127.022-.237-.01l-8.387-2.468c-.049-.015-.063-.059-.04-.132.02-.074.05-.106.087-.095.368.108.64.155.817.14a.52.52 0 0 0 .434-.252c.112-.154.224-.421.335-.802l2.5-8.535c.108-.368.157-.648.146-.838a.576.576 0 0 0-.247-.453c-.15-.124-.397-.237-.74-.338-.037-.01-.05-.055-.041-.132.021-.074.045-.107.07-.1l7.926 2.333c.098.029.13.098.098.21l-.676 2.443c-.01.037-.053.045-.126.023-.062-.018-.095-.041-.1-.07-.007-.749-.228-1.402-.665-1.957-.42-.564-1.005-.957-1.753-1.177l-.35-.103c-.38-.111-.664-.162-.854-.15a.464.464 0 0 0-.399.202c-.092.133-.195.37-.308.71l-1.102 3.76 2.3.677c.625.184 1.117.209 1.476.074.359-.134.61-.447.755-.939.014-.05.064-.061.15-.036s.12.069.102.13l-.316 1.009a16.216 16.216 0 0 0-.443 1.512l-.273 1c-.018.061-.064.081-.137.06a.361.361 0 0 1-.105-.051c-.017-.032-.023-.06-.015-.085.154-.528.106-.976-.146-1.344-.236-.377-.648-.651-1.237-.825l-2.262-.665-1.22 4.165c-.144.492-.164.833-.06 1.024.116.194.42.364.91.508l.515.152a3.94 3.94 0 0 0 2.388-.038 4.737 4.737 0 0 0 2.072-1.413Zm7.229 6.722c-.022-.014-.012-.053.029-.118.042-.065.073-.09.095-.076.333.214.592.343.777.386a.519.519 0 0 0 .487-.12c.151-.116.333-.341.547-.675l4.798-7.483c.208-.323.333-.577.376-.763a.576.576 0 0 0-.11-.504c-.109-.162-.314-.34-.615-.533-.032-.021-.027-.064.014-.128.041-.065.078-.087.111-.066l.763.514c.459.327.834.583 1.124.77.291.187.69.429 1.198.726l.833.514c.021.013.011.053-.03.117-.042.065-.073.09-.095.076-.333-.214-.595-.338-.787-.37a.573.573 0 0 0-.487.12c-.14.123-.322.348-.547.675l-4.747 7.402c-.269.42-.389.739-.361.955.035.206.22.416.553.63l.451.291c.871.56 1.721.834 2.55.82.847-.017 1.714-.327 2.601-.928a.13.13 0 0 1 .101.02c.032.02.058.052.076.094.025.032.031.058.017.08a30.364 30.364 0 0 0-1.714 2.39c-.104.161-.236.19-.398.086l-7.61-4.902Zm15.137 12.033c-.017-.019.004-.054.062-.104.057-.05.095-.066.112-.046.259.3.467.492.624.575a.574.574 0 0 0 .514.037c.177-.069.415-.233.715-.493l6.707-5.825c.28-.243.462-.453.547-.628a.578.578 0 0 0 .051-.527c-.059-.186-.21-.42-.452-.7-.017-.02-.001-.06.049-.12.058-.05.099-.06.124-.031l.614.738c.348.443.636.795.862 1.056.251.29.578.65.983 1.079l.629.698c.017.02-.004.055-.062.105-.058.05-.095.066-.112.046-.251-.29-.464-.478-.639-.563a.633.633 0 0 0-.528-.024c-.169.078-.407.243-.715.493l-6.678 5.8c-.289.252-.481.46-.574.626a.709.709 0 0 0-.039.542c.069.177.225.407.467.687.017.02-.003.054-.061.105-.058.05-.096.066-.112.046-.26-.3-.464-.546-.614-.738l-.901-1.073-.906-1.018a19.592 19.592 0 0 1-.667-.743Zm10.859 17.117c-.589-1.293-.852-2.532-.787-3.716.07-1.173.427-2.209 1.07-3.109.655-.905 1.529-1.608 2.622-2.108 1.057-.484 2.132-.638 3.224-.462 1.103.17 2.108.633 3.013 1.387.917.75 1.647 1.718 2.188 2.906.25.548.452 1.13.608 1.75.167.613.255 1.115.264 1.505-.004.114-.024.194-.06.238a.91.91 0 0 1-.238.172l-2.22 1.186c-.046.021-.089.005-.127-.048-.038-.053-.045-.099-.021-.138.698-.812 1.139-1.662 1.325-2.55.197-.892.097-1.776-.301-2.65-.515-1.13-1.317-1.825-2.406-2.087-1.077-.268-2.301-.087-3.673.54-1.197.548-2.159 1.242-2.886 2.082-.727.84-1.176 1.735-1.347 2.686a4.743 4.743 0 0 0 .381 2.825c.191.42.395.713.612.881.229.163.501.221.818.175.333-.04.772-.185 1.319-.435.569-.26.958-.502 1.166-.724a.928.928 0 0 0 .243-.808c-.046-.317-.21-.784-.491-1.401-.032-.07-.002-.126.091-.169a.214.214 0 0 1 .095-.022c.046.007.074.022.085.046.382.993.719 1.81 1.011 2.451.276.606.58 1.227.913 1.863.021.047-.007.095-.083.144-.076.048-.124.05-.146.003-.073-.192-.173-.287-.298-.286-.126.002-.375.087-.747.258l-1.186.542c-.523.24-.881.425-1.074.556-.194.13-.331.214-.412.252-.07.031-.122.041-.156.028-.028 0-.07-.03-.125-.09-1.005-1.342-1.76-2.567-2.264-3.673Zm5.826 22.117c.003.026-.033.044-.109.055-.076.01-.116.004-.119-.022a16.446 16.446 0 0 1-.107-.877l-.185-1.429-.216-1.366c-.047-.24-.1-.568-.16-.986-.004-.026.031-.05.105-.074.076-.01.117.003.122.04.057.394.128.668.215.824a.52.52 0 0 0 .41.29c.184.025.472.01.864-.047l4.364-.629-.786-5.476-4.363.629c-.38.054-.653.126-.821.215a.702.702 0 0 0-.325.435c-.038.187-.03.47.025.85.005.038-.03.063-.106.074-.076.01-.116-.003-.122-.04-.06-.42-.1-.743-.12-.973l-.183-1.41-.207-1.31a18.99 18.99 0 0 1-.155-.948c-.006-.038.029-.062.105-.073.076-.011.117.003.122.04.055.38.126.649.212.805a.522.522 0 0 0 .41.29c.186.038.475.029.867-.028l8.785-1.266c.533-.064.87-.19 1.01-.378.154-.19.193-.546.119-1.066-.006-.038.029-.062.105-.073.076-.01.117.003.122.04l.112.916c.055.562.107 1.013.156 1.356.049.342.128.803.237 1.382l.158.967c.004.026-.032.044-.108.055-.076.01-.116.004-.119-.022-.055-.38-.133-.653-.234-.82a.637.637 0 0 0-.451-.304c-.184-.025-.467-.017-.848.025l-3.851.555.783 5.458 3.851-.555c.544-.079.892-.213 1.046-.403.155-.178.195-.527.121-1.046-.004-.026.032-.05.106-.074.075-.01.116.003.122.04l.114.935c.055.562.108 1.02.159 1.375.049.342.126.79.231 1.344l.158.968c.006.038-.029.062-.105.073-.076.01-.117-.003-.122-.04-.055-.381-.133-.654-.234-.82a.575.575 0 0 0-.41-.291c-.186-.038-.47-.042-.854-.013l-8.784 1.266c-.367.053-.639.13-.818.234a.778.778 0 0 0-.32.473c-.036.2-.027.483.026.85Zm-.777 8.111c.006-.038.046-.052.122-.04.076.01.112.028.109.054-.077.532-.1.923-.072 1.173.027.263.123.452.287.566.177.116.455.201.835.256l8.784 1.266c.441.076.74.061.897-.046.17-.105.281-.334.332-.69l.035-.247c.062-.43-.016-.875-.235-1.334a3.513 3.513 0 0 0-.928-1.22 3.38 3.38 0 0 0-1.385-.743c-.025-.004-.033-.038-.024-.101a.354.354 0 0 1 .035-.111c.029-.022.049-.026.06-.011.471.132 1.716.409 3.734.83.038.005.053.039.044.102a.226.226 0 0 1-.033.093c-.018.036-.04.052-.065.049-.266-.039-.439.227-.521.798a109.697 109.697 0 0 0-.611 3.852c-.1.697-.199 1.479-.297 2.344l-.172 1.334c-.06.418-.072.727-.036.926.036.2.145.338.327.416.035.031.041.077.019.139-.011.076-.041.104-.089.084a95.221 95.221 0 0 0-2.09-.418c-.829-.158-1.39-.252-1.683-.28-.038-.006-.052-.047-.041-.123.015-.102.047-.149.098-.141a3 3 0 0 0 1.494-.154 2.726 2.726 0 0 0 1.201-.817c.324-.367.521-.791.59-1.273l.035-.247c.037-.254.031-.442-.016-.566-.048-.11-.147-.189-.295-.236a5.867 5.867 0 0 0-.713-.161l-8.749-1.241c-.392-.057-.682-.06-.87-.01-.19.064-.333.211-.431.443-.098.232-.186.62-.264 1.165-.006.038-.046.052-.122.041-.076-.01-.111-.035-.106-.073.067-.47.127-.836.177-1.1l.268-1.728.215-1.638c.028-.281.078-.675.15-1.182Zm-13.359 32.514c.017-.019.055-.004.112.047.058.05.079.085.062.104-.259.3-.419.534-.48.702a.58.58 0 0 0 .037.515c.094.166.29.379.589.639l6.707 5.824c.28.244.513.395.698.454.187.078.363.07.529-.024.175-.085.384-.268.626-.549.017-.019.059-.009.125.032.058.05.074.09.049.119l-.642.714c-.387.409-.694.744-.92 1.005-.251.291-.56.667-.925 1.129l-.601.724c-.016.019-.054.004-.112-.047-.058-.05-.078-.085-.062-.104.252-.291.407-.529.466-.715a.639.639 0 0 0-.051-.527c-.102-.156-.298-.369-.589-.639l-6.678-5.799c-.29-.252-.524-.412-.701-.481a.695.695 0 0 0-.54.039c-.166.093-.37.28-.613.561-.016.019-.054.004-.112-.047-.057-.05-.078-.085-.061-.104.259-.3.473-.538.642-.713l.931-1.048.876-1.043c.15-.192.362-.448.638-.768Zm-13.707 26.691c-.033.021-.069-.001-.111-.065-.041-.065-.046-.108-.014-.129.441-.283.704-.666.79-1.148.076-.475-.047-.974-.368-1.498l-5.331-8.35c-.031-.025-.022-.07.029-.133a.443.443 0 0 1 .162-.173c.108-.069.198-.082.272-.038l12.207 4.149-4.139-6.491c-.321-.524-.713-.85-1.175-.979-.462-.128-.919-.047-1.37.244-.043.027-.085.009-.127-.056-.041-.065-.041-.111.002-.138.301-.194.536-.338.704-.431l1.026-.638.957-.639c.176-.129.431-.3.764-.515.043-.028.085-.009.127.055.041.065.04.111-.003.139-.451.291-.709.67-.774 1.138-.075.475.048.974.369 1.498l4.533 7.105c.533.144.968.207 1.305.188.326-.013.618-.102.876-.268.022-.014.053.011.095.076.041.065.051.104.029.118l-.881.545c-.179.1-.413.243-.703.43-.291.187-.529.348-.716.484-.197.142-.328.234-.392.275-.086.056-.165.076-.235.06a.955.955 0 0 1-.333-.128 9.042 9.042 0 0 0-.729-.284l-9.681-3.264 3.616 5.709c.321.524.712.851 1.174.979.452.136.909.055 1.371-.243.043-.028.085-.009.127.055.041.065.04.111-.003.139l-.639.389a25.74 25.74 0 0 0-1.101.663c-.226.146-.536.361-.931.645l-.779.525Zm-38.068-1.118a.132.132 0 0 1-.095.038.21.21 0 0 1-.115-.038c-.039-.013-.052-.026-.039-.039a18.04 18.04 0 0 0 .192-2.728c0-.102.02-.179.057-.23.039-.039.115-.058.23-.058h8.74c.052 0 .078.039.078.115 0 .077-.02.116-.058.116-.383 0-.658.032-.824.096a.52.52 0 0 0-.345.365c-.064.179-.096.467-.096.864v8.895c0 .384.032.666.096.845.064.18.185.301.364.365.179.077.447.115.805.115.038 0 .064.039.077.116 0 .077-.013.115-.039.115h-8.26c-.103 0-.154-.058-.154-.173l-.038-2.536c0-.038.038-.057.114-.057.064 0 .103.012.115.038.218.717.614 1.281 1.189 1.691.562.422 1.233.634 2.013.634h.364c.396 0 .683-.032.862-.096a.466.466 0 0 0 .326-.308c.051-.154.083-.41.096-.768v-3.919h-2.396c-.652 0-1.131.115-1.438.345-.306.231-.46.602-.46 1.115 0 .051-.044.077-.134.077-.09 0-.134-.032-.134-.097l.02-1.056a16.271 16.271 0 0 0 0-1.575l-.02-1.038c0-.064.038-.096.115-.096.038 0 .077.007.115.019.026.026.038.052.038.077 0 .551.173.967.518 1.249.332.294.805.442 1.418.442h2.358v-4.342c0-.512-.077-.845-.23-.999-.166-.154-.505-.23-1.016-.23h-.537c-.83 0-1.59.237-2.28.71a4.75 4.75 0 0 0-1.592 1.941Zm-22.484 4.085c-.062-.018-.081-.064-.06-.138.022-.074.063-.101.124-.083.454.133.89.121 1.31-.036.406-.16.873-.597 1.402-1.309l6.221-8.28c.055-.051.156-.054.303-.011a.505.505 0 0 1 .173.091c.058.03.09.06.094.088l1.658 11.32c.077.556.192.957.347 1.203.15.258.398.437.74.538.038.011.045.053.024.127-.022.074-.045.107-.07.1l-.969-.305a19.443 19.443 0 0 0-.964-.324c-.466-.137-.996-.28-1.592-.429l-.907-.246c-.061-.018-.08-.064-.06-.138.022-.074.064-.102.125-.084.687.202 1.086.113 1.197-.268.04-.135.045-.334.015-.596l-1.227-8.631-4.48 6.09c-.178.241-.296.46-.353.657-.112.381-.057.717.164 1.009.217.305.558.525 1.024.662.05.015.063.059.041.133-.021.073-.056.103-.106.088l-.932-.294c-.532-.183-1.02-.34-1.46-.47-.246-.072-.556-.15-.931-.234l-.851-.23Zm-11.333-16.699a.132.132 0 0 1-.101-.02.205.205 0 0 1-.076-.095c-.026-.031-.03-.049-.012-.053a17.95 17.95 0 0 0 1.633-2.191.387.387 0 0 1 .173-.163c.053-.011.128.014.224.077l7.353 4.736c.043.027.044.074.003.138-.042.065-.079.087-.111.066-.322-.208-.57-.33-.745-.366a.52.52 0 0 0-.487.12c-.15.116-.333.342-.547.676l-4.798 7.482c-.208.324-.333.578-.376.763a.577.577 0 0 0 .11.505c.109.161.314.339.615.533.032.021.033.067.002.138-.041.065-.073.09-.094.077l-6.95-4.477c-.086-.055-.098-.131-.036-.228l1.336-2.154c.02-.033.063-.028.128.013.054.035.079.067.076.095-.204.721-.175 1.41.088 2.066.245.66.695 1.202 1.35 1.624l.307.197c.333.215.593.344.778.387.167.047.314.02.44-.082.125-.102.29-.3.495-.595l2.114-3.296-2.016-1.299c-.548-.353-1.014-.516-1.396-.488-.382.028-.712.257-.988.688-.027.043-.079.041-.154-.008-.076-.048-.096-.099-.061-.153l.586-.879a16.513 16.513 0 0 0 .85-1.325l.543-.883c.035-.054.084-.06.149-.019a.362.362 0 0 1 .086.079c.008.035.005.064-.01.085-.296.464-.376.907-.237 1.331.12.428.438.808.954 1.14l1.984 1.278 2.342-3.652c.276-.431.391-.753.345-.965-.057-.22-.3-.468-.73-.745l-.452-.291a3.948 3.948 0 0 0-2.302-.638 4.736 4.736 0 0 0-2.385.771Zm-12.302-16.528c-.025-.029-.009-.069.05-.119.049-.06.09-.071.124-.032l2.058 2.381c.201.232.166.974-.104 2.226-.289 1.25-.864 2.961-1.725 5.133.302.212.595.483.88.812.041.049.086.12.134.214l3.433-2.982c.288-.233.484-.437.587-.611a.708.708 0 0 0 .039-.542c-.078-.187-.242-.426-.493-.716-.033-.039-.021-.084.037-.134.05-.06.091-.071.124-.032.285.329.498.585.639.768l.914 1.087.956 1.076c.177.185.408.442.692.771.034.039.026.088-.024.148-.058.051-.104.057-.137.018-.276-.32-.505-.536-.688-.649-.191-.104-.376-.122-.553-.053-.195.068-.437.218-.725.452l-6.707 5.825c-.29.251-.477.465-.562.64a.58.58 0 0 0-.024.53c.067.195.23.443.49.743.034.039.021.083-.037.134-.057.05-.103.056-.137.017l-.65-.782a31.67 31.67 0 0 0-.875-1.07c-.285-.33-.614-.671-.987-1.025a15.774 15.774 0 0 1-.556-.584c-.845-.978-1.318-1.847-1.417-2.608-.108-.77.122-1.403.692-1.897.415-.361.938-.569 1.567-.624a4.391 4.391 0 0 1 1.911.246c.593-1.837 1.021-3.327 1.284-4.47.245-1.145.355-2.054.33-2.727-.042-.675-.222-1.197-.54-1.564Zm1.011 10.967a2.346 2.346 0 0 0-.32-.459c-.553-.638-1.082-.967-1.588-.985-.514-.028-1.1.244-1.756.814-.686.595-1.071 1.167-1.156 1.715-.102.546.014 1.013.349 1.4.226.262.4.424.522.487.113.072.249.072.408.002.14-.072.375-.241.702-.508l2.839-2.466ZM4.22 98.279c-.026-.059-.004-.104.066-.136.07-.031.118-.018.144.04.186.408.52.726 1.004.955.467.223 1.108.366 1.924.43l4.109.23 4.062-1.859c.36-.165.609-.314.745-.446a.64.64 0 0 0 .156-.536c-.027-.213-.136-.53-.327-.95-.021-.046.003-.085.073-.117.07-.032.115-.025.136.022.186.408.324.725.413.952l.612 1.388.678 1.443c.118.227.267.539.447.935.022.047-.003.086-.072.118-.07.032-.116.025-.137-.022-.191-.419-.36-.715-.51-.886-.16-.166-.336-.247-.53-.243-.2-.007-.473.076-.816.247l-3.81 1.765-2.954 4.71c-.302.476-.494.888-.575 1.235-.086.335-.07.63.046.887.021.046-.003.086-.073.117-.064.044-.104.048-.12.013l-.397-.916a22.636 22.636 0 0 0-.41-.995 38.997 38.997 0 0 0-.633-1.294l-.423-.884c-.016-.035-.001-.063.045-.084a.208.208 0 0 1 .121-.013c.029.001.048.013.059.036.138.303.262.514.372.633.105.106.21.136.314.088.105-.048.212-.167.322-.358l2.816-4.457-3.94-.182c-.28.001-.513.045-.699.13a.897.897 0 0 0-.518.575c-.083.249-.047.542.107.88.02.047-.003.086-.073.118-.07.032-.113.031-.129-.004l-.412-.952a39.961 39.961 0 0 0-.579-1.362 8.403 8.403 0 0 0-.345-.665l-.288-.586Zm1.865-36.173c.281-1.059.759-1.87 1.434-2.433.661-.564 1.422-.785 2.283-.66a2.958 2.958 0 0 1 1.698.846c.475.47.822 1.07 1.04 1.8.205.728.247 1.517.125 2.366-.05.355-.128.758-.231 1.209-.039.175-.083.395-.134.66-.049.251-.096.536-.142.853l-.177 1.372c-.022.242-.064.58-.126 1.01-.003.025-.043.033-.119.022-.076-.011-.112-.03-.108-.055.052-.367.06-.644.022-.831a.702.702 0 0 0-.322-.454c-.166-.102-.44-.18-.819-.234L1.725 66.31c-.367-.053-.644-.054-.832-.004a.576.576 0 0 0-.434.326c-.101.166-.178.434-.231.801-.004.026-.043.033-.12.022-.075-.011-.111-.03-.108-.055l.164-1.005c.105-.554.182-1.002.231-1.344.051-.355.085-.726.102-1.111.005-.129.02-.321.044-.576.023-.256.049-.479.076-.669.171-1.191.512-2.08 1.022-2.667.512-.599 1.166-.84 1.963-.726.607.088 1.128.37 1.563.846.435.477.742 1.13.92 1.957Zm-5.13.93c-.052.368 0 .634.157.8.157.164.476.281.957.35l3.604.52.131-.777c.098-.684-.073-1.246-.513-1.685-.452-.453-1.057-.734-1.816-.844-.72-.104-1.295-.012-1.724.276-.44.273-.704.726-.795 1.36Zm11.246 1.252c.13-.9.003-1.591-.38-2.073s-1.01-.786-1.883-.912c-.974-.14-1.78-.01-2.419.389-.638.4-1.029 1.1-1.172 2.102a11.33 11.33 0 0 0-.104.994l4.572.659c.443.064.764.026.965-.113.2-.14.341-.488.421-1.046Zm4.41-14.826c-.01.024-.05.02-.12-.012-.07-.032-.1-.06-.089-.083.165-.361.253-.631.264-.809a.576.576 0 0 0-.18-.484c-.137-.132-.385-.281-.745-.446l-8.073-3.695c-.337-.154-.603-.234-.797-.239a.575.575 0 0 0-.5.173c-.144.131-.293.366-.447.704-.011.023-.054.024-.129.004-.07-.032-.097-.065-.08-.1l.415-.866c.257-.502.457-.91.6-1.225.16-.35.35-.797.57-1.344l.373-.864c.01-.023.051-.02.12.013.07.032.1.06.09.083-.16.35-.242.621-.246.816a.637.637 0 0 0 .197.492c.142.121.39.27.745.447l8.038 3.679c.348.16.617.247.807.263a.704.704 0 0 0 .508-.19c.132-.136.275-.373.43-.711.01-.023.05-.02.12.013.07.032.099.06.088.083-.164.36-.303.65-.415.865l-.599 1.268-.548 1.249c-.09.227-.221.532-.396.916Zm8.363-14.284c-.025.03-.066.019-.124-.032-.058-.05-.079-.085-.062-.104.352-.407.583-.723.693-.949.12-.235.14-.446.064-.63-.086-.194-.274-.417-.564-.669l-6.707-5.824c-.33-.304-.59-.453-.78-.448-.199-.004-.416.13-.65.4l-.163.19c-.285.328-.459.745-.523 1.249a3.523 3.523 0 0 0 .123 1.53c.146.516.4.974.764 1.375.02.017.008.05-.034.098a.361.361 0 0 1-.09.074c-.035.003-.054-.005-.055-.023-.326-.367-1.224-1.274-2.695-2.721-.029-.025-.022-.062.02-.11a.215.215 0 0 1 .077-.06c.034-.021.061-.023.08-.006.204.176.493.046.87-.39a105.587 105.587 0 0 0 4.106-4.72l.864-1.029c.277-.32.453-.573.53-.76a.528.528 0 0 0-.05-.527c-.013-.045.007-.087.058-.127.05-.058.09-.066.12-.022.4.398.912.892 1.534 1.483.612.583 1.033.966 1.264 1.149.029.025.018.067-.032.125-.067.077-.12.1-.159.066a3.002 3.002 0 0 0-1.339-.68 2.723 2.723 0 0 0-1.451.035c-.47.134-.865.385-1.183.752l-.163.19c-.168.193-.265.354-.292.483-.019.12.022.24.12.36.09.11.261.285.514.52l6.69 5.786c.3.26.542.42.727.479.194.05.395.003.602-.139.207-.142.49-.42.85-.837.026-.029.067-.018.125.032.058.05.075.09.05.12-.31.357-.558.634-.743.829l-1.157 1.308-1.065 1.262c-.174.22-.429.525-.764.912Zm17.05-18.472a.13.13 0 0 1 .06-.085.207.207 0 0 1 .117-.03c.04-.01.057-.006.053.012.342.77.778 1.569 1.31 2.399.056.086.08.16.076.225-.011.053-.065.11-.162.173l-7.353 4.736c-.043.028-.085.01-.127-.055-.041-.065-.046-.108-.014-.129.323-.207.537-.383.642-.527a.523.523 0 0 0 .093-.494c-.043-.186-.171-.445-.385-.78l-4.798-7.482c-.208-.323-.386-.543-.537-.66a.573.573 0 0 0-.503-.109c-.192.032-.438.146-.74.34-.032.02-.074.002-.126-.056-.042-.065-.052-.104-.03-.118l6.95-4.476c.086-.056.16-.035.222.062l1.4 2.113c.02.032-.001.069-.066.11-.053.035-.093.045-.117.03-.57-.485-1.207-.745-1.912-.778-.7-.05-1.38.135-2.035.557l-.306.198c-.333.214-.558.397-.674.548a.466.466 0 0 0-.108.435c.04.157.15.39.334.698l2.114 3.297 2.015-1.298c.548-.353.89-.71 1.023-1.07.134-.36.062-.755-.214-1.186-.028-.043-.004-.09.071-.138.076-.048.13-.045.165.008l.554.9a16.169 16.169 0 0 0 .85 1.325l.575.862c.035.054.02.102-.045.143a.36.36 0 0 1-.107.047c-.035-.008-.06-.023-.073-.044-.297-.464-.667-.72-1.11-.77-.438-.068-.915.064-1.43.396l-1.984 1.278 2.342 3.652c.276.431.52.67.732.716.223.04.55-.08.98-.356l.45-.291a3.956 3.956 0 0 0 1.536-1.834 4.76 4.76 0 0 0 .292-2.494Z"/></svg><svg viewBox="0 0 40 10" id="icons--spoon" xmlns="http://www.w3.org/2000/svg"><path d="M33.501 9.5C37.085 9.5 40 7.481 40 5S37.085.5 33.5.5c-3.389 0-6.18 1.806-6.471 4.102h-4.677v-.947H0v2.69h22.353v-.947h4.677c.292 2.296 3.082 4.102 6.471 4.102ZM21.49 5.548H.863V4.452H21.49v1.096ZM27.866 5c0-2.042 2.528-3.704 5.636-3.704 3.107 0 5.635 1.662 5.635 3.704 0 2.042-2.528 3.704-5.636 3.704-3.107 0-5.635-1.662-5.635-3.704Z"/></svg><svg viewBox="0 0 47 41" id="quote--brakers" xmlns="http://www.w3.org/2000/svg"><path d="M12.914 23.404c2.402 0 4.304.802 5.706 2.406 1.501 1.504 2.252 3.509 2.252 6.015 0 2.707-.9 4.863-2.703 6.466-1.701 1.504-4.054 2.256-7.057 2.256-3.504 0-6.257-1.353-8.259-4.06C.951 33.78 0 29.921 0 24.908c0-4.511 1.001-8.672 3.003-12.481 2.002-3.91 5.006-7.82 9.01-11.73.1-.1.25-.15.45-.15.3 0 .55.15.751.451.2.301.2.552 0 .752C8.31 6.763 5.856 12.677 5.856 19.494c0 2.808.5 4.863 1.502 6.166.9-1.504 2.753-2.256 5.556-2.256Zm26.128 0c2.402 0 4.304.802 5.706 2.406C46.249 27.314 47 29.32 47 31.825c0 2.707-.901 4.863-2.703 6.466-1.702 1.504-4.054 2.256-7.057 2.256-3.504 0-6.257-1.353-8.26-4.06-1.901-2.707-2.852-6.566-2.852-11.579 0-4.511 1-8.672 3.003-12.481 2.002-3.91 5.005-7.82 9.01-11.73.1-.1.25-.15.45-.15.3 0 .55.15.75.451.201.301.201.552 0 .752-4.904 5.013-7.357 10.927-7.357 17.744 0 2.808.5 4.863 1.502 6.166.9-1.504 2.753-2.256 5.556-2.256Z"/></svg><svg viewBox="0 0 241 93" id="quote--sign" xmlns="http://www.w3.org/2000/svg"><path fill-rule="evenodd" clip-rule="evenodd" d="M71.418 20.492c-1.75 1.75-2.541 2.77-2.375 3.062.334.5.927.604 1.781.313.855-.313 1.771-.948 2.75-1.907 1.313-1.291 2.24-2.51 2.782-3.656.541-1.166.666-2.146.375-2.937-.292-.792-.875-1.417-1.75-1.875-.854-.459-2.063-.657-3.625-.594-1.563.042-3.313.364-5.25.969-5.146 1.604-11.875 4.718-20.188 9.343-8.312 4.605-16 9.5-23.062 14.688-2.354 1.729-3.573 2.594-3.657 2.594-.041 0 .47-1.636 1.532-4.907a1191.82 1191.82 0 0 1 3.937-11.937c3.292-9.854 5.282-16.052 5.969-18.594.708-2.562.802-4.01.281-4.344-.541-.333-1.02-.156-1.437.532-.417.687-.969 2.218-1.657 4.593-.833 2.896-2.708 8.667-5.625 17.313-2.895 8.646-4.864 14.292-5.906 16.937a27.436 27.436 0 0 1-1.718 3.657c-.688 1.229-1.313 2.187-1.875 2.875-1.542 1.875-2.605 3.49-3.188 4.843-.562 1.355-.812 2.896-.75 4.625.02 1.98-.302 3.792-.969 5.438-.916 2.062-2.104 5.156-3.562 9.281-1.438 4.104-2.459 7.302-3.063 9.594-.625 2.333-1 4.469-1.125 6.406-.125 1.938.021 3.302.438 4.094.208.417.583.698 1.125.844.562.166 1.073.166 1.531 0 .48-.146.719-.427.719-.844 0-.25-.073-.49-.219-.719-.146-.229-.323-.375-.531-.437-1.021-.396-.938-2.99.25-7.782 1.187-4.791 3.208-10.729 6.062-17.812l1.282-3.219 2.437 2.313c3.917 3.77 9 5.833 15.25 6.187 6.27.334 13.323-1.052 21.156-4.156 1.299-.511 2.197-.93 2.697-1.256.258 1.202.869 1.996 1.832 2.38 1.375.563 2.865.553 4.469-.03 1.604-.584 3.927-1.959 6.969-4.125 2.354-1.661 3.9-2.818 4.64-3.472-.735 3.75-.876 6.303-.424 7.66.166.437.375.728.625.874.25.125.677.156 1.281.094.646-.063 1.323-.438 2.031-1.125.73-.709 1.98-2.24 3.75-4.594a584.778 584.778 0 0 0 2.407-3.125c1.52-1.937 2.447-2.969 2.78-3.094.147-.062.355.042.626.313.604.604 1.76.75 3.469.437 1.729-.312 2.74-.854 3.03-1.625.272-.666.167-1.104-.312-1.312-.458-.23-1.166-.167-2.125.187-1.146.438-1.843.532-2.093.282-.209-.23.03-1.177.718-2.844.48-1.167.73-1.917.75-2.25.042-.334-.114-.677-.468-1.031-.355-.334-.605-.48-.75-.438-.125.021-.355.25-.688.688l-2.906 3.875a3032.775 3032.775 0 0 0-5.906 7.906A56.377 56.377 0 0 1 73.1 63.21a3.083 3.083 0 0 1-.531.437c-.167.083-.292.114-.375.094-.063-.021-.115-.115-.157-.282a2.202 2.202 0 0 1-.031-.656c.02-.27.063-.625.125-1.062.063-.459.135-.938.219-1.438.104-.5.229-1.114.375-1.844.291-1.562.458-2.666.5-3.312.062-.667-.01-1.115-.219-1.344-.188-.187-.385-.281-.594-.281-.658.05-1.238 1.009-1.74 2.878a.525.525 0 0 0-.132-.066c-.188-.083-.531-.01-1.031.22-.5.208-1.126.572-1.876 1.093-.75.5-1.78 1.23-3.093 2.187-3.417 2.48-5.719 3.886-6.906 4.22-.875.25-1.448.364-1.72.343-.27-.042-.572-.27-.905-.688-.417-.625-.532-1.427-.344-2.406.208-1.02.416-1.635.625-1.844.208-.229.656-.343 1.344-.343.875 0 1.916-.646 3.125-1.938 1.208-1.312 1.906-2.469 2.093-3.469.188-.937-.052-1.75-.718-2.437-.646-.708-1.5-.896-2.563-.563-1.02.334-1.906.98-2.656 1.938-.73.937-1.459 2.177-2.188 3.719-.968 2.041-1.504 3.897-1.61 5.566a7.86 7.86 0 0 0-.137.027c-.959.167-3.032.813-6.219 1.938-7 2.437-12.99 3.48-17.969 3.125-4.958-.354-9.177-2.135-12.656-5.344a26.36 26.36 0 0 0-1.156-1.031c-.209-.188-.469-.49-.781-.906a44.33 44.33 0 0 0-.594-.782c-.063-.104-.115-.385-.156-.843-.042-.48-.042-.802 0-.97.062-.187.197-.624.406-1.312.208-.708.396-1.26.562-1.656.167-.396.459-1.125.875-2.187 1.563-3.917 2.604-6.136 3.125-6.657 1.417-1.416 5.125-4.197 11.125-8.343s10.927-7.334 14.782-9.563c3.416-1.979 7.53-4.125 12.343-6.437 4.813-2.313 8.271-3.802 10.375-4.47 2.542-.832 4.521-1.25 5.938-1.25.979 0 1.573.074 1.781.22.208.125.313.49.313 1.093 0 .834-.886 2.136-2.657 3.907Zm136.235 50.843c-.25.105-1.343.25-3.281.438-1.917.167-4.656.583-8.219 1.25-3.562.646-7.271 1.573-11.125 2.781-4.646 1.459-8.896 3.354-12.75 5.688-3.833 2.354-7.114 5.01-9.843 7.968-1.396 1.542-2.313 2.459-2.75 2.75-.417.313-.844.323-1.282.032-.291-.188-.448-.396-.468-.625 0-.23.104-.615.312-1.157.813-2.02 2.552-6.104 5.219-12.25 5.833-13.666 9.75-23.104 11.75-28.312 2.021-5.208 4.021-11.125 6-17.75 1.625-5.458 2.385-8.292 2.281-8.5-.042-.104-.229.094-.562.594l-.063.062c-.437.625-.917.886-1.437.781-.5-.104-.75-.52-.75-1.25 0-.27.208-.833.625-1.687.437-.875.958-1.781 1.562-2.719 1.479-2.458 2.542-4.552 3.188-6.281.729-1.854 1.375-2.781 1.937-2.781.563 0 .948.166 1.156.5.292.458-.729 4.864-3.062 13.218-2.313 8.334-4.511 15.49-6.594 21.47-1.646 4.708-3.771 10.114-6.375 16.218-6.271 14.896-9.406 22.417-9.406 22.562 0 .042.156-.041.469-.25.312-.208.75-.52 1.312-.937a29.833 29.833 0 0 0 1.781-1.313c2.896-2.166 7.115-4.343 12.657-6.53 5.562-2.188 10.093-3.615 13.593-4.282a95.433 95.433 0 0 1 5.907-.938c2.104-.291 3.916-.52 5.437-.687 1.542-.167 2.354-.26 2.438-.281.52-.105.895 0 1.125.312.229.292.26.636.093 1.031-.146.396-.437.688-.875.875Zm13.654-14.062c-.396-.625-1.615.166-3.656 2.375-.25.27-.479.52-.688.75-1.666 1.812-2.635 2.52-2.906 2.125-.292-.438.198-2.74 1.469-6.906.666-2.125.969-3.667.906-4.625-.062-.959-.49-1.438-1.281-1.438-.709 0-1.521.552-2.438 1.656-.916 1.084-2.062 2.834-3.437 5.25-3.042 5.417-4.969 8.125-5.781 8.125-.209-.104-.313-.635-.313-1.593 0-.98.115-2.323.344-4.032a65.19 65.19 0 0 1 .906-5.156c.521-2.52.583-3.979.188-4.375-.48-.479-.959-.364-1.438.344-1.062 1.562-1.833 5.073-2.312 10.531-.209 2.23-.209 3.834 0 4.813.208.958.677 1.583 1.406 1.875.687.27 1.135.406 1.344.406.229-.021.656-.209 1.281-.563 1.291-.687 3.052-3.03 5.281-7.03.354-.626.667-1.147.938-1.563 1.145-1.771 1.385-1.49.718.843-.562 2.063-.646 3.657-.25 4.782s1.25 1.687 2.563 1.687c.479 0 1.312-.49 2.5-1.469a26.13 26.13 0 0 0 2.333-2.183 3.634 3.634 0 0 0-.179.277 4.787 4.787 0 0 0-.313.719c-.083.292-.167.708-.25 1.25-.083.52 0 1.052.25 1.594.25.541.667 1 1.25 1.375.917.562 1.875.635 2.875.218 1.021-.437 2.021-1.343 3-2.718.604-.855 1.292-1.521 2.063-2 .791-.5 2.322-1.24 4.593-2.22 1.542-.666 2.854-1.187 3.938-1.562 1.104-.375 1.875-.614 2.312-.718.438-.104.761-.22.969-.344.271-.167.458-.458.563-.875.125-.417.104-.781-.063-1.094-.146-.312-.427-.416-.844-.312-.333.083-1.26.375-2.781.875l-4.219 1.406c-1.312.437-1.979.646-2 .625 0-.02.063-.177.188-.469.125-.291.281-.698.469-1.219.208-.52.364-1.02.468-1.5.229-.75.313-1.395.25-1.937-.062-.542-.156-.906-.281-1.094-.104-.208-.312-.49-.625-.844-.521-.604-1.146-.875-1.875-.812-.708.062-1.625.5-2.75 1.312-.812.584-1.729 1.709-2.75 3.375-1 1.667-1.51 2.896-1.531 3.688 0 .73-.365 1.24-1.094 1.531-.256.11-.536.308-.84.594l.186-.219c1.021-1.187 1.532-2.02 1.532-2.5 0-.479-.063-.823-.188-1.031Zm2.091 6c-.083.146-.333.437-.75.875-.687.77-1.187 1.156-1.5 1.156-.187 0-.312-.125-.375-.375-.041-.25-.021-.562.063-.937.104-.375.25-.75.437-1.125.209-.396.407-.615.594-.657.208-.062.51.021.906.25.375.188.594.334.657.438.062.104.052.23-.032.375Zm5.094-8.969c0 .73-.49 1.938-1.469 3.625-.75 1.334-1.448 2.156-2.093 2.469-.542.27-.813.042-.813-.688 0-.604.438-1.656 1.313-3.156.875-1.5 1.583-2.427 2.125-2.781.416-.25.677-.344.781-.281.104.062.156.333.156.812Zm-87.646 2.781c-.271-.208-.552-.25-.844-.125-.167.063-.583.428-1.25 1.094a183.97 183.97 0 0 1-2.062 2.094 15.425 15.425 0 0 1-2.532 1.969c-.958.604-1.812.906-2.562.906-1.896 0-3.198-1.417-3.906-4.25-.271-1.104-.521-1.833-.75-2.188-.23-.354-.573-.562-1.032-.625-.729-.104-1.75.303-3.062 1.22a13.897 13.897 0 0 0-3.313 3.218c-.333.458-.625.833-.875 1.125-.375.458-.562.646-.562.562 0-.145.323-1.99.969-5.53.625-3.5.791-5.397.5-5.688-.417-.396-.855-.407-1.313-.032-.458.375-.812 1.032-1.062 1.97-.542 2.228-1.084 5.093-1.625 8.593-.542 3.5-.74 5.427-.594 5.781.229.646.625.917 1.187.813 1.146-.209 2.667-1.813 4.563-4.813a20.05 20.05 0 0 1 2.375-3.031c.875-.917 1.489-1.375 1.844-1.375.041 0 .177.427.406 1.281.229.834.614 1.771 1.156 2.813.563 1.041 1.229 1.75 2 2.125 1.688.833 3.635.791 5.844-.125.562-.25 1.635-1.032 3.219-2.344 1.604-1.313 2.687-2.344 3.25-3.094.375-.541.541-1.01.5-1.406-.021-.417-.178-.73-.469-.938Zm-26.404-.75c.563-.062.958.146 1.188.625.229.48.083 1.032-.438 1.657-.417.458-.875.948-1.375 1.468-.5.5-1.344 1.271-2.531 2.313a42 42 0 0 1-3.563 2.812c-1.187.813-2.593 1.605-4.218 2.375-1.625.771-3.198 1.303-4.72 1.594-2.208.417-4.166.084-5.874-1-1.709-1.104-2.667-2.646-2.875-4.625-.209-2.083-.084-4.26.375-6.531.396-1.917.885-3.302 1.468-4.156.584-.854 1.198-1.073 1.844-.657.292.167.438.563.438 1.188 0 .604-.136.99-.407 1.156-.291.188-.625 1.542-1 4.063-.25 1.604-.375 2.74-.375 3.406.021.646.188 1.344.5 2.094.584 1.416 1.72 2.208 3.407 2.375 1.708.145 3.49-.157 5.344-.907a21.342 21.342 0 0 0 5.156-2.937 67.959 67.959 0 0 0 3.281-2.781 385.792 385.792 0 0 1 2.875-2.563c.708-.604 1.208-.927 1.5-.969Zm-19.031-7.937c-.23.23-.521.344-.875.344s-.657-.115-.907-.344a1.294 1.294 0 0 1-.343-.906c0-.354.114-.646.343-.875.25-.25.553-.375.907-.375s.646.125.875.375c.25.229.375.52.375.875 0 .354-.125.656-.375.906Zm-37.808 6.125c-.75 1.083-.979 1.698-.687 1.844.208.062.573-.146 1.094-.625.791-.75 1.187-1.344 1.187-1.782 0-.562-.188-.75-.563-.562-.312.146-.656.52-1.03 1.125Z"/></svg></svg>