<svg width="47" height="41" viewBox="0 0 47 41" fill="none" xmlns="http://www.w3.org/2000/svg">
<path d="M12.9137 23.4043C15.3163 23.4043 17.2183 24.2063 18.6198 25.8103C20.1214 27.314 20.8722 29.319 20.8722 31.8253C20.8722 34.5321 19.9712 36.6875 18.1693 38.2915C16.4675 39.7952 14.115 40.5471 11.1118 40.5471C7.60809 40.5471 4.85517 39.1937 2.85304 36.487C0.951012 33.7802 0 29.9206 0 24.908C0 20.3967 1.00107 16.2363 3.00319 12.4268C5.00533 8.51704 8.00852 4.60727 12.0128 0.697493C12.1129 0.597244 12.263 0.547119 12.4633 0.547119C12.7636 0.547119 13.0138 0.697493 13.2141 0.998241C13.4143 1.299 13.4143 1.54962 13.2141 1.75012C8.30884 6.76265 5.85623 12.6774 5.85623 19.4945C5.85623 22.3015 6.35676 24.3566 7.35783 25.6599C8.25879 24.1561 10.1108 23.4043 12.9137 23.4043ZM39.0415 23.4043C41.4441 23.4043 43.3461 24.2063 44.7476 25.8103C46.2492 27.314 47 29.319 47 31.8253C47 34.5321 46.099 36.6875 44.2971 38.2915C42.5953 39.7952 40.2428 40.5471 37.2396 40.5471C33.7359 40.5471 30.983 39.1937 28.9808 36.487C27.0788 33.7802 26.1278 29.9206 26.1278 24.908C26.1278 20.3967 27.1289 16.2363 29.131 12.4268C31.1331 8.51704 34.1363 4.60727 38.1406 0.697493C38.2407 0.597244 38.3908 0.547119 38.5911 0.547119C38.8914 0.547119 39.1416 0.697493 39.3419 0.998241C39.5421 1.299 39.5421 1.54962 39.3419 1.75012C34.4366 6.76265 31.984 12.6774 31.984 19.4945C31.984 22.3015 32.4846 24.3566 33.4856 25.6599C34.3866 24.1561 36.2386 23.4043 39.0415 23.4043Z" fill="white"/>
</svg>
