<svg width="79" height="79" viewBox="0 0 79 79" fill="none" xmlns="http://www.w3.org/2000/svg">
<path fill-rule="evenodd" clip-rule="evenodd" d="M12.193 58.3299C12.0212 58.1548 11.8495 57.9796 11.8495 57.8044C11.6778 57.4541 11.506 57.279 11.506 57.279C11.506 57.0162 11.5489 56.7535 11.5919 56.4907C11.6348 56.228 11.6777 55.9652 11.6777 55.7025C12.193 55.7025 13.0517 55.5273 13.3951 54.4763C13.5669 53.9508 13.5669 53.2501 13.5669 52.5495C13.5669 52.1992 13.5669 51.8488 13.3951 51.6737V50.973C12.8799 51.3233 10.9908 52.7246 10.6473 53.6005C10.4756 54.126 10.4756 54.4763 10.6473 54.8266C10.767 55.0709 10.9703 55.23 11.1406 55.3633L11.1406 55.3633C11.2146 55.4212 11.2823 55.4743 11.3343 55.5273C11.2378 55.6257 11.1956 55.7793 11.1466 55.9571C11.1084 56.0959 11.0661 56.2495 10.9908 56.4031C10.9908 56.4031 10.819 56.228 10.6473 55.8776L10.1321 54.8266L9.61689 53.7756C9.61689 53.6005 9.44514 53.4253 9.44514 53.4253V53.2501L8.92992 52.024C8.92992 51.7904 9.08258 51.4012 9.23523 51.0119C9.31156 50.8173 9.38789 50.6227 9.44514 50.4475C9.96036 50.4475 10.8191 50.4475 11.3343 49.5717C11.506 49.2213 11.6777 48.5207 11.6777 47.82V46.769V46.0684C11.1625 46.2435 9.10166 47.2945 8.58645 48.1703C8.41472 48.3455 8.41472 48.5207 8.41472 48.6958V48.6959C8.24299 49.3965 8.75818 49.922 8.92992 50.0972C8.84405 50.1847 8.75819 50.3161 8.67232 50.4475C8.58646 50.5789 8.50059 50.7102 8.41472 50.7978C8.41472 50.7978 8.41471 50.6227 8.24298 50.4475C8.24298 50.3749 8.21351 50.3024 8.17898 50.2174C8.13016 50.0972 8.07123 49.9521 8.07123 49.7468L7.72775 48.6959C7.72775 48.6959 7.72777 48.5207 7.55603 48.3455C7.55603 48.1703 7.38428 47.9952 7.38428 47.9952L7.04081 46.769L7.72775 45.3677C8.07123 45.5429 9.10166 45.5429 9.78861 44.667C10.1321 44.3167 10.3038 43.616 10.4756 42.9154C10.5216 42.7277 10.5676 42.5525 10.6103 42.3899C10.727 41.9457 10.8191 41.5954 10.8191 41.3389C10.7769 41.3532 10.7232 41.3711 10.6597 41.3922C9.94859 41.6288 8.01499 42.2721 7.38428 42.9154C6.7395 43.7374 7.15382 44.5595 7.34913 44.947C7.3619 44.9724 7.37374 44.9959 7.38428 45.0174L7.38424 45.0174C7.21252 45.1926 7.04079 45.3677 6.86906 45.718C6.86906 45.718 6.86908 45.5429 6.69734 45.1925C6.69734 45.0351 6.66264 44.8776 6.62443 44.7042C6.57764 44.4919 6.52559 44.2557 6.52559 43.9664C6.52559 43.7912 6.48265 43.5723 6.43971 43.3533C6.39678 43.1343 6.35384 42.9154 6.35384 42.7402V42.2147V41.5141V41.1637V40.9886C6.43971 40.8134 6.61145 40.5945 6.78319 40.3755C6.95492 40.1565 7.12666 39.9376 7.21253 39.7624C7.55601 39.9376 8.58646 40.1127 9.27342 39.4121C9.6169 39.0617 9.96037 38.5363 10.1321 37.8356C10.4756 37.1349 10.6473 36.6094 10.6473 36.2591C9.96035 36.2591 7.72776 36.6094 7.04081 37.3101L7.04079 37.3101C6.86906 37.4853 6.69734 37.6604 6.69734 37.8356C6.38664 38.4694 6.63802 38.9599 6.81595 39.307C6.83472 39.3436 6.85267 39.3786 6.86906 39.4121L6.86902 39.4121C6.69729 39.5873 6.52557 39.7624 6.18212 39.9376V39.5872V38.8866V37.8356V36.9598V36.2591V35.5584C6.35385 35.2081 6.86906 34.6826 7.21253 34.5075C7.23362 34.5182 7.25664 34.5303 7.28149 34.5433C7.66143 34.7425 8.46743 35.1651 9.27342 34.5075C9.6169 34.1571 10.1321 33.6316 10.4756 33.1061C10.8191 32.5806 11.1625 32.0551 11.1625 31.7048C10.4756 31.7048 8.24298 31.7048 7.38428 32.2303C6.86907 32.5806 6.69734 32.931 6.69734 33.2813V33.2814C6.69734 33.6317 6.69734 33.982 6.86906 34.1571C6.78319 34.2447 6.65439 34.3323 6.52558 34.4199C6.39678 34.5075 6.26798 34.595 6.18212 34.6826V34.1571C6.18212 33.9996 6.21681 33.8422 6.25501 33.6688C6.3018 33.4565 6.35384 33.2203 6.35384 32.931C6.35384 32.6417 6.40589 32.4055 6.45268 32.1931C6.49089 32.0197 6.52559 31.8623 6.52559 31.7048C6.52559 31.3545 6.69734 31.1793 6.69734 31.1793V31.0042V30.6538C6.69734 30.3035 6.86906 29.9531 6.86906 29.9531C7.21254 29.6028 7.72775 29.2525 8.07123 29.0773C8.4147 29.4277 9.10168 29.9532 10.1321 29.4277C10.218 29.3401 10.3468 29.2525 10.4756 29.1649L10.4756 29.1649C10.6044 29.0773 10.7332 28.9897 10.8191 28.9022L11.506 28.2015C11.8326 27.8683 12.0902 27.5352 12.2788 27.2913C12.3877 27.1505 12.4736 27.0395 12.5364 26.9753C12.193 26.9753 11.506 26.8002 10.8191 26.625H10.819C10.1321 26.625 9.2734 26.625 8.7582 26.8002C8.67233 26.8878 8.58646 26.9316 8.50059 26.9753C8.41472 27.0191 8.32885 27.0629 8.24298 27.1505C8.07124 27.3257 7.8995 27.676 7.8995 28.0263V28.727C7.80306 28.8254 7.65247 28.8685 7.47813 28.9184C7.34201 28.9574 7.19141 29.0005 7.04081 29.0773L7.38428 28.0263C7.38428 27.9388 7.42722 27.8074 7.47016 27.676C7.51309 27.5446 7.55603 27.4132 7.55603 27.3257C7.55603 27.1505 7.72775 26.9753 7.72775 26.9753L8.07123 26.0995V25.9244V25.7492C8.07123 25.7492 8.07124 25.574 8.24298 25.3989C8.41471 25.0485 8.41472 24.8734 8.41472 24.8734C8.65421 24.6291 9.06066 24.47 9.40124 24.3367C9.54914 24.2788 9.68462 24.2257 9.78861 24.1727C10.1321 24.523 10.8191 25.2237 11.8495 24.8734C12.422 24.6398 13.2234 23.9392 13.8467 23.3942L13.8468 23.3942C14.1584 23.1217 14.4256 22.8881 14.5973 22.7714C14.5462 22.754 14.4782 22.7297 14.3962 22.7005C13.651 22.4345 11.7473 21.7551 10.8191 22.0707C10.3038 22.2459 9.96035 22.5962 9.78861 22.9465C9.61689 23.2968 9.61689 23.6471 9.61689 23.8223V23.8224C9.54575 23.8224 9.44515 23.8524 9.32729 23.8876C9.16061 23.9374 8.9594 23.9975 8.7582 23.9975C8.7582 23.9975 8.92992 23.8224 8.92992 23.472L9.44514 22.421L9.96036 21.3701C10.1321 21.0197 10.1321 20.8446 10.1321 20.8446L10.8191 19.7936C11.048 19.6768 11.4297 19.56 11.8114 19.4432C12.0022 19.3848 12.193 19.3265 12.3647 19.2681C12.5364 19.6184 13.2234 20.3191 14.2538 20.3191C14.769 20.3191 15.2843 19.9687 15.7995 19.6184C15.9712 19.5308 16.1 19.4432 16.2288 19.3557C16.3576 19.2681 16.4864 19.1805 16.6582 19.0929C16.8299 18.9177 17.1734 18.7426 17.1734 18.7426C16.6582 18.3922 14.5973 17.3412 13.5669 17.3412C13.3951 17.3412 13.2234 17.3412 13.0517 17.5164C12.3647 17.8667 12.193 18.5674 12.193 18.7426H11.3343C11.3343 18.7426 11.3343 18.5674 11.506 18.3922C11.5919 18.3047 11.6348 18.2171 11.6777 18.1295C11.7207 18.0419 11.7636 17.9543 11.8495 17.8668C12.193 17.5164 12.3647 16.9909 12.3647 16.9909C12.3647 16.9909 12.5364 16.8158 12.5364 16.6406C12.7082 16.4654 12.7082 16.2903 12.7082 16.2903L13.0517 15.7648L13.5669 15.2393C13.9104 15.0641 14.5973 15.0641 15.1125 15.0641C15.2843 15.4144 15.7995 16.2903 16.8299 16.2903C17.3451 16.2903 18.0321 16.1151 18.5473 15.7648C19.2343 15.5896 19.7495 15.2393 19.9212 15.0641C19.8391 15.0083 19.7265 14.9258 19.591 14.8265L19.591 14.8265L19.5909 14.8265C18.8761 14.3027 17.5244 13.3124 16.6582 13.3124C16.1429 13.3124 15.7995 13.4876 15.456 13.8379C15.41 13.9318 15.364 14.0131 15.3213 14.0886C15.2046 14.2947 15.1125 14.4573 15.1125 14.7138H14.2538L14.5973 14.3634L15.456 13.4876L15.9712 12.9621L16.3147 12.6118L16.6582 12.2615L17.1734 11.736C17.3451 11.5608 17.6886 11.3856 17.6886 11.3856H19.2342C19.2342 11.9111 19.5777 12.787 20.6082 12.9621H21.4669C21.6681 12.9621 21.8693 12.902 22.0359 12.8522C22.1538 12.817 22.2544 12.787 22.3255 12.787C22.4973 12.787 22.669 12.7432 22.8408 12.6994C23.0125 12.6556 23.1842 12.6118 23.356 12.6118C23.5572 12.6118 23.6995 12.5517 23.8173 12.5019C23.9007 12.4667 23.9718 12.4366 24.0429 12.4366C23.6995 11.9111 21.9821 10.3346 21.1234 10.1595H20.4364C20.2647 10.1595 20.093 10.1595 19.9212 10.3346C19.8151 10.3346 19.7745 10.4015 19.7185 10.494C19.6839 10.5511 19.6433 10.6181 19.5777 10.685L19.5777 10.685C19.406 10.8602 19.2342 11.0353 19.2342 11.2105C19.1631 11.2105 19.0625 11.1804 18.9446 11.1452C18.778 11.0954 18.5768 11.0353 18.3755 11.0353C18.3755 11.0353 18.719 10.685 19.2342 10.3346C19.5777 9.98431 20.0929 9.63397 20.0929 9.63397L20.7799 9.10848C20.7799 9.10848 20.7799 9.10848 20.8123 9.07543C20.8364 9.05086 20.8784 9.00801 20.9516 8.93331C20.9516 8.93331 21.1234 8.93331 21.1234 8.75815C21.4669 8.58298 21.6386 8.40782 21.6386 8.40782C21.793 8.40782 22.0168 8.44321 22.2632 8.48217L22.2632 8.48218C22.5649 8.5299 22.9006 8.58298 23.1842 8.58298C23.1842 9.10848 23.356 9.98431 24.3864 10.3346C24.9016 10.5098 25.5886 10.5098 26.2755 10.5098H26.2755H26.2756C26.619 10.5098 26.9625 10.5098 27.1342 10.3346H27.8212C27.4777 9.80914 26.1038 7.88232 25.2451 7.53199C24.7299 7.35683 24.3864 7.35683 24.0429 7.53199C23.8035 7.65412 23.6475 7.8614 23.5168 8.03509L23.5167 8.03512C23.46 8.11054 23.408 8.17963 23.356 8.23266C23.2595 8.13429 23.1089 8.09116 22.9346 8.04123C22.7985 8.00225 22.6479 7.95912 22.4973 7.88232C22.4973 7.88232 22.669 7.70716 23.0125 7.53199L24.0429 7.00649C24.116 6.93198 24.4998 6.73068 25.0226 6.45652C25.7287 6.0862 26.6882 5.58294 27.4777 5.07968C27.8212 5.43001 28.5082 5.95551 29.3668 5.60518C30.2255 5.25485 31.5994 3.32802 31.9429 2.80252C31.4277 2.62736 29.0234 2.27703 28.1647 2.62736C27.0782 3.1023 27.1139 4.0065 27.1308 4.43471C27.1326 4.48029 27.1342 4.52047 27.1342 4.55417C26.7318 4.75939 26.3294 4.90451 25.9961 5.02472C25.7603 5.10973 25.5591 5.18228 25.4168 5.25484C25.0734 5.43 23.356 5.9555 23.356 5.9555C23.356 5.75028 23.4149 5.54506 23.4637 5.37506C23.4982 5.25484 23.5277 5.15223 23.5277 5.07968C23.6994 5.07968 24.0429 5.07968 24.3864 4.90451C24.7299 4.72935 25.0734 4.37902 25.2451 3.85352C25.4168 3.32803 25.4168 2.45219 25.4168 1.75153C25.4168 1.28444 25.3405 0.739497 25.2896 0.376191L25.2896 0.376159C25.2642 0.194506 25.2451 0.0582664 25.2451 -0.00012207L25.2451 -7.6894e-05C25.0733 0.175073 24.9016 0.350229 24.5582 0.525379C24.3864 0.612962 24.2576 0.744337 24.1288 0.875711L24.1288 0.87572C24 1.00709 23.8712 1.13846 23.6995 1.22604C23.0125 1.75154 22.4973 2.4522 22.3255 2.9777C21.9821 4.02869 22.669 4.72935 23.0125 4.90451C23.0125 5.07968 22.8408 5.43001 22.669 5.60518C22.6034 5.73899 22.5629 5.84725 22.5282 5.93971C22.4722 6.08932 22.4317 6.19757 22.3255 6.30583C22.3255 6.30583 22.1538 6.30584 21.9821 6.481C21.8962 6.56858 21.7674 6.65616 21.6386 6.74374L21.6386 6.74375C21.5098 6.83133 21.381 6.91891 21.2951 7.00649L20.2647 7.70716L20.0929 7.88232C19.9868 7.88232 19.9463 7.94923 19.8902 8.04169C19.8556 8.09884 19.8151 8.16575 19.7495 8.23266C19.406 8.40782 19.2342 8.58298 19.2342 8.58298L18.8908 8.75815V8.23266V7.88232C19.0625 7.88232 19.406 7.70716 19.7495 7.53199C20.0929 7.35683 20.4364 7.0065 20.4364 6.481C20.6082 5.43001 19.9212 3.15285 19.7495 2.62736L19.2342 3.15286C19.1233 3.37909 18.9408 3.53227 18.7329 3.70674C18.6189 3.80246 18.4972 3.90458 18.3755 4.02869C17.8603 4.72935 17.3451 5.43001 17.3451 5.9555V6.13066C17.3451 7.18166 18.0321 7.53199 18.3755 7.70716C18.295 7.95355 18.2523 8.23845 18.2118 8.50769V8.5077C18.1661 8.81269 18.1233 9.09758 18.0321 9.28365L17.6886 9.63397C17.5169 9.80914 17.1734 10.1595 16.8299 10.3346C16.6582 10.4222 16.5294 10.5536 16.4006 10.685C16.2718 10.8163 16.143 10.9477 15.9712 11.0353L15.6277 11.3856C15.6277 11.3856 15.2843 11.736 14.9408 11.9111L14.5973 12.2615L14.4601 12.4014C14.4256 12.4366 14.4256 12.4366 14.4256 12.4366C14.4256 12.2314 14.3666 12.0262 14.3178 11.8562C14.2833 11.736 14.2538 11.6333 14.2538 11.5608C14.4256 11.5608 14.769 11.3856 15.1125 11.0353C15.456 10.8601 15.6277 10.3346 15.6277 9.80913C15.6277 9.02089 15.0481 7.64146 14.6859 6.77932L14.6859 6.77929C14.5651 6.49192 14.4685 6.26203 14.4256 6.13066C14.3665 6.25119 14.2668 6.39245 14.1473 6.56157C13.9197 6.88404 13.6204 7.3078 13.3951 7.88232C13.0517 8.58298 12.7082 9.45881 12.7082 9.98431C12.7082 11.2105 13.5669 11.5608 14.0821 11.5608V11.5609C14.0821 12.0864 14.0821 12.787 13.9104 13.1373L13.5669 13.4876L13.5668 13.4877C13.3951 13.6628 13.2234 13.838 13.0517 14.1883C12.9658 14.2758 12.8799 14.4072 12.7941 14.5386L12.7941 14.5386C12.7082 14.67 12.6223 14.8013 12.5364 14.8889C12.3647 15.0641 12.3647 15.2393 12.3647 15.2393C12.3647 15.2393 12.193 15.5896 11.8495 15.7648C11.7839 15.8317 11.7434 15.8986 11.7087 15.9557C11.6527 16.0482 11.6121 16.1151 11.506 16.1151C11.506 16.2903 11.3343 16.2903 11.3343 16.2903L11.1625 16.6406C11.1625 16.553 11.1196 16.4654 11.0767 16.3778C11.0337 16.2903 10.9908 16.2027 10.9908 16.1151C10.9908 15.9399 10.9908 15.9399 10.8191 15.7648L10.8191 15.7648C10.9049 15.6772 11.0337 15.5896 11.1625 15.502C11.2913 15.4144 11.4201 15.3269 11.506 15.2393L11.506 15.2392C11.6778 14.8889 11.8495 14.5386 11.8495 14.0131C11.6778 12.9621 10.4756 11.0353 10.1321 10.5098L9.27342 12.2615C8.92994 13.1373 8.75818 13.8379 8.92992 14.5386V14.7138C9.10166 15.7648 9.96037 15.9399 10.4756 15.9399C10.4756 16.2292 10.5276 16.5716 10.5744 16.8794C10.6126 17.1307 10.6473 17.3589 10.6473 17.5164C10.6473 17.5164 10.3038 18.2171 9.78861 18.9177C9.44514 19.6184 8.92992 20.3191 8.92992 20.3191C8.92992 20.3191 8.92994 20.4942 8.7582 20.4942C8.7582 20.6694 8.58647 20.8445 8.41474 21.0197L8.41472 21.0197L8.07123 21.7204C8.02521 21.6265 7.9792 21.5452 7.93648 21.4698C7.81979 21.2636 7.72775 21.101 7.72775 20.8446C7.77975 20.7915 7.8475 20.7385 7.92145 20.6806C8.09175 20.5473 8.29498 20.3881 8.41472 20.1439C8.58646 19.7936 8.75819 19.4432 8.58645 18.7426C8.24297 17.6916 6.69733 16.1151 6.18212 15.5896C6.18212 15.7648 6.01038 16.1151 5.83864 16.2903C5.7422 16.487 5.69991 16.6837 5.65095 16.9115C5.61273 17.0893 5.57044 17.286 5.49515 17.5164C5.32341 18.3922 5.32341 19.2681 5.49515 19.7936C5.83862 20.8446 6.86906 21.0197 7.21253 21.0197C7.38427 21.5452 7.55603 22.2459 7.55603 22.5962C7.55603 22.5962 7.55602 22.7714 7.38428 22.9465C7.28784 23.0449 7.24556 23.1985 7.19661 23.3763C7.15839 23.5152 7.11611 23.6688 7.04081 23.8224C6.86907 24.3479 6.52559 25.0485 6.52559 25.0485V25.2237C6.52559 25.3113 6.48265 25.3989 6.43971 25.4864C6.39678 25.574 6.35384 25.6616 6.35384 25.7492C6.1821 26.0995 6.18212 26.4498 6.18212 26.4498L6.01037 26.8002C5.94477 26.7333 5.90423 26.6664 5.8696 26.6092C5.81357 26.5168 5.77303 26.4498 5.66689 26.4498C5.66689 26.3623 5.62396 26.3185 5.58102 26.2747C5.53808 26.2309 5.49515 26.1871 5.49515 26.0995C5.66688 25.9244 5.83863 25.7492 6.01037 25.2237C6.18211 24.8734 6.18211 24.3479 6.01037 23.8224C5.49515 22.9465 3.77778 21.3701 3.26256 21.0197C3.09082 21.7204 2.74735 24.3479 3.26256 25.2237C3.26256 25.2237 3.26255 25.3989 3.43429 25.3989C3.9495 26.2747 4.80821 26.2747 5.32342 26.0995L5.32344 26.0995C5.49518 26.4499 5.83864 27.1505 5.83864 27.676C5.83864 27.676 5.83863 27.8512 5.66689 28.2015C5.66689 28.3767 5.62396 28.5518 5.58102 28.727C5.53808 28.9022 5.49515 29.0773 5.49515 29.2525C5.32342 29.6028 5.32342 29.9531 5.32342 30.3034V30.3035C5.32342 30.6538 5.15167 30.829 5.15167 30.829C5.15167 30.829 5.15169 31.1793 4.97995 31.7048C4.80821 32.0551 4.8082 32.5806 4.8082 32.5806L4.12126 31.88C4.293 31.7048 4.46473 31.3545 4.46473 31.0042V31.0041C4.46473 30.6538 4.46473 30.1283 4.12126 29.6028C3.72053 28.9216 2.38478 28.1345 1.56849 27.6534C1.33527 27.516 1.14445 27.4035 1.02995 27.3257V29.4277L1.02997 29.4278C1.20171 30.3035 1.37343 31.1793 1.7169 31.5296C2.40385 32.4055 3.26254 32.2303 3.77776 32.0551C4.12124 32.4055 4.46471 33.1061 4.63645 33.4565V33.8068V34.6826V35.5584V35.9088V37.3101V37.6604C4.57085 37.5935 4.50525 37.5522 4.44923 37.5168C4.35858 37.4597 4.29298 37.4184 4.29298 37.3101C4.20711 37.3101 4.16418 37.2663 4.12124 37.2225C4.07831 37.1787 4.03538 37.1349 3.94951 37.1349C4.12125 36.9598 4.12126 36.6094 4.12126 36.2591C4.12126 35.9088 3.94951 35.3833 3.60604 35.0329C2.91908 34.3323 0.686477 33.4565 0.171261 33.2813C0.171261 33.6316 0.342994 34.5074 0.514733 35.2081C0.686472 36.0839 1.02995 36.7846 1.37343 37.3101L1.54518 37.4853C2.40387 38.1859 3.09081 37.8356 3.43429 37.6604C3.77776 38.0108 4.29299 38.5363 4.46473 38.8866V39.4121V40.4631V40.4632C4.46473 40.8135 4.46473 41.1638 4.63645 41.5141V42.0396C4.63645 42.0396 4.63646 42.5651 4.8082 42.9154C4.8082 43.2657 4.97995 43.7912 4.97995 43.7912C4.88792 43.7443 4.80822 43.6973 4.73424 43.6538C4.53211 43.5348 4.3727 43.4409 4.12126 43.4409C4.293 43.0906 4.46473 42.0396 3.60604 41.3389C2.74734 40.6382 0.514728 40.2879 -0.000488281 40.2879C0.0853833 40.4631 0.171259 40.7258 0.278603 41.0543C0.385942 41.3827 0.514748 41.7768 0.686482 42.2147C1.02996 42.9154 1.54517 43.7912 1.88865 44.1416C2.74734 44.8422 3.60603 44.3167 3.94951 43.9664C4.12125 44.1415 4.33592 44.3167 4.55059 44.4919L4.55066 44.4919C4.76531 44.6671 4.97995 44.8422 5.15167 45.0174C5.15167 45.0174 5.32341 45.718 5.49515 46.2435C5.49515 46.4487 5.55408 46.654 5.6029 46.824C5.63743 46.9442 5.66689 47.0468 5.66689 47.1194C5.66689 47.2945 5.83864 47.4697 5.83864 47.4697C5.83864 47.4697 6.01037 47.82 6.01037 48.1703C6.01037 48.2579 6.0533 48.3455 6.09624 48.4331C6.13918 48.5207 6.18212 48.6083 6.18212 48.6959V48.871L6.35384 49.2213C6.26797 49.2213 6.18211 49.1775 6.09624 49.1338C6.01038 49.09 5.92451 49.0462 5.83864 49.0462C5.75277 49.0462 5.70984 49.0024 5.6669 48.9586C5.62396 48.9148 5.58102 48.871 5.49515 48.871V47.9952C5.32341 47.6449 5.15167 47.2945 4.63645 46.9442C3.77776 46.4187 1.37342 46.4187 0.858205 46.4187C1.02994 46.769 1.37343 47.4697 1.88865 48.1703L1.8887 48.1704C2.4039 48.8711 2.91909 49.5717 3.43429 49.7468H3.60604C4.46473 50.0972 5.15167 49.5717 5.49515 49.2213L5.49518 49.2214C5.83867 49.3965 6.5256 49.7468 6.86906 50.0972C6.86906 50.0972 7.21254 50.7978 7.38428 51.4985L7.8995 52.5495C8.07124 52.8998 8.07123 53.075 8.07123 53.075C8.07123 53.075 8.07124 53.2501 8.24298 53.2501C8.24298 53.4253 8.41471 53.6005 8.58645 53.7756C8.75819 54.126 8.92992 54.6515 8.92992 54.6515C8.72871 54.6515 8.52751 54.5914 8.36083 54.5416C8.24296 54.5064 8.14236 54.4763 8.07123 54.4763V54.4762C8.07123 54.3011 8.07123 53.9508 7.8995 53.6005C7.72776 53.2501 7.38428 52.8998 6.86906 52.7246C6.35386 52.5495 5.49519 52.5495 4.80825 52.5495H4.8082C4.35024 52.5495 3.81596 52.6273 3.45977 52.6792H3.45973C3.28163 52.7052 3.14806 52.7246 3.09081 52.7246C3.16195 52.7972 3.20362 52.8698 3.25244 52.9548C3.32149 53.075 3.40483 53.2201 3.60604 53.4253C3.6919 53.6005 3.8207 53.7318 3.94951 53.8632C4.07831 53.9946 4.20711 54.126 4.29298 54.3011C4.8082 55.0018 5.49515 55.5273 6.01037 55.7025C7.0408 56.0528 7.72776 55.3521 7.8995 55.0018C8.07124 55.0018 8.41471 55.177 8.58645 55.3521C8.71763 55.419 8.82376 55.4604 8.91441 55.4957L8.91445 55.4957C9.06113 55.5529 9.16728 55.5942 9.27342 55.7025C9.27342 55.7025 9.2734 55.8776 9.44514 56.0528C9.53101 56.1404 9.61688 56.2717 9.70275 56.4031C9.78862 56.5345 9.87449 56.6659 9.96036 56.7535L10.6473 57.8044L10.8191 57.9796C10.8191 58.0879 10.8847 58.1292 10.9753 58.1864C11.0313 58.2217 11.0969 58.263 11.1625 58.3299C11.3343 58.6803 11.506 58.8554 11.506 58.8554L12.193 58.3299ZM66.291 59.9072C65.9476 60.2575 65.6041 60.783 65.6041 60.783C65.6041 60.5778 65.5452 60.3726 65.4964 60.2026L65.4963 60.2025L65.4963 60.2025C65.4618 60.0823 65.4324 59.9797 65.4324 59.9072C65.6041 59.9072 65.7758 59.732 65.9476 59.5568L66.291 59.2065C66.291 59.1189 66.334 59.0313 66.3769 58.9437C66.4198 58.8562 66.4628 58.7686 66.4628 58.681V57.9803C66.3098 57.0444 64.9311 55.6917 64.3885 55.1593C64.3218 55.0939 64.2678 55.0409 64.2302 55.0025C64.2302 55.0751 64.2007 55.1476 64.1662 55.2327C64.1174 55.3529 64.0584 55.498 64.0584 55.7032C64.0584 55.8784 64.0155 56.0535 63.9726 56.2287C63.9296 56.4039 63.8867 56.579 63.8867 56.7542C63.8867 56.9594 63.8278 57.1646 63.7789 57.3346C63.7444 57.4548 63.715 57.5575 63.715 57.63V58.5058C63.8867 59.5568 64.7454 59.9072 65.2606 59.9072V61.4836C65.2606 61.4836 65.0889 61.6588 64.9171 62.0091L64.4019 62.5346L64.0584 62.885L63.715 63.2353L63.1997 63.7608L62.341 64.6366L61.9976 64.987V64.1111C62.1693 64.1111 62.5128 63.936 62.8563 63.7608C63.1997 63.5856 63.3715 63.0601 63.3715 62.5346C63.3715 61.4837 61.9976 59.5568 61.6541 59.2065C61.5737 59.2885 61.4932 59.4859 61.3951 59.7265C61.2838 59.9996 61.1497 60.3285 60.9671 60.6078C60.6236 61.3085 60.4519 62.0091 60.4519 62.3595C60.4519 63.4105 61.3106 63.936 61.6541 64.1111C61.6541 64.4004 61.6021 64.7427 61.5553 65.0505L61.5553 65.0506C61.517 65.3019 61.4823 65.5301 61.4823 65.6876L60.4519 66.5634C60.4519 66.5634 60.2802 66.7386 60.1084 66.7386C59.9367 66.9138 59.765 66.9138 59.765 66.9138C59.765 66.9138 59.4215 67.2641 58.9063 67.4393C58.7345 67.6144 58.391 67.7896 58.391 67.7896C58.2193 67.9648 58.0476 67.9648 58.0476 67.9648V67.0889C58.391 67.0889 59.078 66.9138 59.2497 66.2131C59.2497 66.1255 59.2927 66.038 59.3356 65.9504C59.3785 65.8628 59.4215 65.7752 59.4215 65.6876C59.5503 64.8994 58.9063 63.5199 58.5038 62.6578C58.3696 62.3704 58.2623 62.1405 58.2193 62.0091C58.2193 62.1843 58.0476 62.3594 57.8759 62.5346L57.8758 62.5346C57.7041 62.7098 57.5324 63.06 57.3607 63.4103L57.3606 63.4105C57.0171 63.936 56.6737 64.6366 56.6737 64.987C56.5019 66.0379 57.1889 66.5635 57.7041 66.9138C57.5896 67.1473 57.4751 67.5366 57.3606 67.9258C57.3034 68.1205 57.2461 68.3151 57.1889 68.4903L56.1584 69.1909C56.1584 69.1909 55.9867 69.3661 55.6432 69.3661L54.6128 69.8916C54.4983 69.95 54.3647 70.0084 54.2311 70.0668C53.964 70.1835 53.6968 70.3003 53.5823 70.4171C53.2389 70.5923 53.0672 70.5923 53.0672 70.5923C53.0672 70.387 53.1261 70.1818 53.1749 70.0118C53.2094 69.8916 53.2389 69.789 53.2389 69.7164C53.4106 69.7164 53.7541 69.7164 54.0976 69.5413C54.441 69.3661 54.7845 69.0158 54.9563 68.4903C55.2253 67.6669 54.7567 66.1986 54.4584 65.2643C54.376 65.0059 54.3065 64.7884 54.2693 64.6366C54.1834 64.7242 54.1405 64.8118 54.0976 64.8994C54.0546 64.987 54.0117 65.0745 53.9258 65.1621L53.2389 65.8628C53.1244 66.0379 52.9908 66.2131 52.8572 66.3883C52.5901 66.7386 52.3229 67.0889 52.2085 67.4393C51.865 68.4903 52.5519 69.1909 52.8954 69.5413L52.2085 70.9426C52.2085 70.9426 51.865 71.1177 51.6932 71.1177C51.5215 71.1177 51.3498 71.2929 51.3498 71.2929H51.178L50.3193 71.6432C50.3193 71.6432 50.1476 71.6432 49.9758 71.8184C49.89 71.8184 49.7612 71.8622 49.6324 71.906C49.5035 71.9498 49.3747 71.9936 49.2889 71.9936L48.2585 72.3439C48.3443 72.1687 48.3873 72.0374 48.4302 71.906C48.4731 71.7746 48.5161 71.6432 48.6019 71.4681H49.2889C49.5403 71.4681 49.6997 71.3742 49.9018 71.2552C49.9758 71.2116 50.0555 71.1647 50.1476 71.1177C50.2334 71.0302 50.2764 70.9426 50.3193 70.855C50.3623 70.7674 50.4052 70.6798 50.4911 70.5923C50.6628 70.0668 50.6628 69.3662 50.6628 68.4905V68.4903C50.6628 67.7896 50.4911 66.9138 50.3193 66.7386C50.2565 66.8027 50.1476 66.8903 50.0095 67.0014C49.7704 67.1937 49.4438 67.4565 49.1171 67.7896L48.4302 68.4903C48.3443 68.5778 48.2584 68.7092 48.1726 68.8406C48.0867 68.972 48.0009 69.1033 47.915 69.1909C47.3998 70.2419 47.915 70.9426 48.2585 71.2929C48.1726 71.4681 48.0008 71.687 47.8291 71.906C47.6574 72.125 47.4856 72.3439 47.3998 72.5191C47.3998 72.5191 47.0563 72.5191 46.7128 72.6942H46.5411C44.3085 72.8694 40.7019 73.2197 40.7019 73.2197C40.7019 73.2197 36.5802 73.0446 34.5193 72.8694H34.3476H34.0041C33.6606 72.8694 33.3172 72.6942 33.3172 72.6942C32.9737 72.3439 32.6302 71.8184 32.4585 71.4681C32.802 71.1178 33.3172 70.4171 32.8019 69.3661C32.738 69.3009 32.6979 69.2114 32.655 69.1157C32.5826 68.9544 32.5023 68.7754 32.2867 68.6654L31.5998 67.9648C31.2732 67.6316 30.9465 67.3689 30.7074 67.1765L30.7072 67.1764C30.5693 67.0654 30.4604 66.9779 30.3976 66.9138C30.3976 67.2641 30.2259 67.9648 30.0541 68.6654C30.0541 69.3661 30.0541 70.2419 30.2259 70.7674C30.3117 70.855 30.3547 70.9426 30.3976 71.0302C30.4405 71.1178 30.4835 71.2053 30.5693 71.2929C30.7411 71.4681 31.0846 71.6432 31.428 71.6432H32.115C32.2114 71.7416 32.2537 71.8952 32.3027 72.073C32.3409 72.2119 32.3832 72.3655 32.4585 72.5191L31.428 72.1687C31.3422 72.1687 31.2134 72.125 31.0847 72.0812L31.0846 72.0812C30.9558 72.0374 30.827 71.9936 30.7411 71.9936C30.5693 71.9936 30.3976 71.8184 30.3976 71.8184L29.5389 71.4681H29.3672H29.1954C29.1095 71.4681 29.0666 71.4243 29.0237 71.3805C28.9807 71.3367 28.9378 71.2929 28.8519 71.2929C28.5085 71.1178 28.3367 71.1177 28.3367 71.1177L27.6498 69.7164C27.9933 69.3661 28.6802 68.6654 28.3367 67.6144C28.165 67.0889 27.8215 66.5635 27.3063 66.038C27.2543 65.9849 27.2023 65.9159 27.1456 65.8405L27.1455 65.8404C27.0148 65.6667 26.8588 65.4594 26.6193 65.3373C26.4476 65.1621 26.2759 64.987 26.2759 64.8118C26.2588 64.8639 26.235 64.9333 26.2063 65.0169C25.9456 65.7769 25.2795 67.7187 25.5889 68.6654C25.7607 69.1909 26.1041 69.5413 26.4476 69.7164C26.7911 69.8916 27.1346 69.8916 27.3063 69.8916C27.3063 69.9641 27.3358 70.0668 27.3703 70.187C27.4191 70.357 27.478 70.5622 27.478 70.7674C27.478 70.7674 27.3063 70.5923 26.9628 70.5923L25.9324 70.0667L24.9019 69.5413C24.5585 69.3661 24.3867 69.3661 24.3867 69.3661L23.3563 68.6654C23.2418 68.4319 23.1273 68.0426 23.0128 67.6533C22.9556 67.4587 22.8983 67.2641 22.8411 67.0889C23.1846 66.9138 23.8715 66.2131 23.8715 65.1621C23.8715 64.6367 23.5281 64.1112 23.1846 63.5857L23.1846 63.5857L23.1846 63.5856C23.0987 63.4105 23.0128 63.2791 22.9269 63.1477C22.8411 63.0163 22.7552 62.885 22.6693 62.7098C22.4976 62.5346 22.3259 62.1843 22.3259 62.1843C21.9824 62.7098 20.9519 64.8118 20.9519 65.8628C20.9519 66.0379 20.952 66.2131 21.1237 66.3883C21.4672 67.0889 21.9824 67.2641 22.3259 67.2641V68.1399C22.3259 68.1399 22.1541 68.1399 21.9824 67.9648C21.8965 67.8772 21.8106 67.8334 21.7248 67.7896C21.6389 67.7458 21.553 67.702 21.4672 67.6144C21.1237 67.2641 20.6085 66.9138 20.6085 66.9138C20.6085 66.9138 20.4367 66.7386 20.265 66.7386C20.0933 66.5634 19.9215 66.5634 19.9215 66.5634L18.5476 65.5125C18.3759 65.1621 18.3759 64.4615 18.3759 63.936C18.7193 63.7608 19.5781 63.2353 19.5781 62.1843C19.5781 61.6588 19.4063 60.9582 19.0628 60.4327C18.8911 59.732 18.5476 59.2065 18.3759 59.0313C18.3211 59.1151 18.2402 59.2299 18.1429 59.3681L18.1429 59.3682C17.6294 60.0974 16.6585 61.476 16.6585 62.3595C16.6585 62.885 16.8302 63.2353 17.1737 63.5856C17.2657 63.6326 17.3454 63.6795 17.4194 63.7231C17.6215 63.8421 17.7809 63.936 18.0324 63.936V64.8118L17.6889 64.4615L16.8302 63.5856L16.315 63.0601L15.9715 62.7098L15.628 62.3595L15.1128 61.834C14.9411 61.6588 14.7694 61.3085 14.7694 61.3085V59.732C15.2846 59.732 16.1433 59.3817 16.315 58.3307V57.4548C16.315 57.2496 16.2561 57.0444 16.2073 56.8744C16.1727 56.7542 16.1433 56.6516 16.1433 56.579C16.1433 56.4039 16.1003 56.2287 16.0574 56.0535C16.0145 55.8784 15.9715 55.7032 15.9715 55.528C15.9715 55.3228 15.9126 55.1777 15.8638 55.0575C15.8292 54.9725 15.7998 54.8999 15.7998 54.8274C15.2846 55.1777 13.7389 56.9293 13.5672 57.8052V58.5058V58.5059C13.5672 58.681 13.5672 58.8562 13.7389 59.0313C13.7389 59.1396 13.8045 59.1809 13.8952 59.2381C13.9512 59.2734 14.0168 59.3148 14.0824 59.3817C14.2541 59.5568 14.4259 59.732 14.5976 59.732C14.5976 59.8045 14.5681 59.9072 14.5336 60.0274C14.4848 60.1974 14.4259 60.4026 14.4259 60.6078C14.4259 60.6078 14.0824 60.2575 13.7389 59.732C13.3954 59.3817 13.052 58.8562 13.052 58.8562L12.365 59.3817L12.5367 59.732H12.0215H11.678C11.678 59.5568 11.5063 59.2065 11.3346 58.8562C11.1628 58.5058 10.8193 58.1555 10.3041 58.1555C9.2737 57.9804 7.0411 58.681 6.52588 58.8562L7.0411 59.3817L7.8998 60.2575L7.89984 60.2575C8.58678 60.783 9.2737 61.3085 9.78891 61.3085H9.96066C10.9911 61.3085 11.3346 60.6078 11.5063 60.2575C11.7479 60.3396 12.0272 60.3832 12.2912 60.4245H12.2912C12.5902 60.4712 12.8695 60.5148 13.052 60.6078L13.3954 60.9582C13.4666 61.0307 13.5377 61.1333 13.621 61.2535C13.7389 61.4235 13.8812 61.6288 14.0824 61.834C14.1683 62.0091 14.2971 62.1405 14.4259 62.2719C14.5547 62.4033 14.6835 62.5346 14.7694 62.7098L15.1128 63.0601C15.1128 63.0601 15.4563 63.4105 15.628 63.7608L15.9715 64.1111L16.1433 64.2863C15.9421 64.2863 15.7409 64.3464 15.5742 64.3962C15.4563 64.4314 15.3557 64.4615 15.2846 64.4615C15.2846 64.2863 15.1128 63.936 14.7694 63.5856C14.5976 63.2353 14.0824 63.0601 13.5672 63.0601C12.7944 63.0601 11.442 63.6513 10.5967 64.0208L10.5966 64.0208C10.3149 64.144 10.0895 64.2425 9.96066 64.2863C10.0788 64.3466 10.2173 64.4483 10.3831 64.5701C10.6993 64.8023 11.1148 65.1075 11.678 65.3373C12.365 65.6876 13.2237 66.038 13.7389 66.038C14.9411 66.038 15.2846 65.1621 15.2846 64.6366C15.7998 64.6366 16.4867 64.6366 16.8302 64.8118L17.1737 65.1621C17.3454 65.3373 17.5172 65.5125 17.8607 65.6876C17.9465 65.7752 18.0753 65.8628 18.2041 65.9504C18.3329 66.038 18.4617 66.1255 18.5476 66.2131C18.7193 66.3883 18.8911 66.3883 18.8911 66.3883C18.8911 66.3883 19.2346 66.5635 19.4063 66.9138C19.4719 66.9807 19.5375 67.022 19.5935 67.0574C19.6842 67.1145 19.7498 67.1559 19.7498 67.2641C19.9215 67.2641 19.9215 67.4393 19.9215 67.4393L20.0932 67.6144C20.0074 67.6144 19.9215 67.6582 19.8356 67.702C19.7498 67.7458 19.6639 67.7896 19.5781 67.7896C19.4063 67.7896 19.4063 67.7896 19.2346 67.9648C19.1487 67.8772 19.0628 67.7458 18.977 67.6144C18.8911 67.4831 18.8052 67.3517 18.7194 67.2641C18.3759 67.0889 18.0324 66.9138 17.5172 66.9138C16.4867 67.089 14.5976 68.3151 14.0824 68.6654L15.7998 69.5413C16.6585 69.8916 17.3454 70.0667 18.0324 70.0667H18.2041C19.2346 69.8916 19.4063 69.0158 19.4063 68.4903C19.6899 68.4903 20.0256 68.4372 20.3274 68.3895L20.3275 68.3894C20.5738 68.3505 20.7976 68.3151 20.9519 68.3151C20.9519 68.3151 21.6389 68.6654 22.3259 69.1909C23.0128 69.5413 23.6998 70.0667 23.6998 70.0667C23.6998 70.0667 23.8715 70.0667 23.8715 70.2419C24.0432 70.2419 24.2149 70.417 24.3867 70.5922L24.3867 70.5923C24.7302 70.7674 25.2454 70.9426 25.2454 70.9426C25.1534 70.9895 25.0737 71.0365 24.9997 71.08C24.7976 71.199 24.6382 71.2929 24.3867 71.2929C24.3347 71.2399 24.2827 71.1708 24.226 71.0954C24.0952 70.9217 23.9393 70.7144 23.6998 70.5923C23.3563 70.4171 23.0128 70.2419 22.3259 70.4171C21.2954 70.7674 19.7498 72.3439 19.2346 72.8694C19.4063 72.8694 19.7498 73.0446 19.9215 73.2197C20.1144 73.3181 20.3073 73.3612 20.5306 73.4112L20.5307 73.4112C20.705 73.4502 20.8978 73.4933 21.1237 73.5701C21.9824 73.7452 22.8411 73.7452 23.3563 73.5701C24.3867 73.2197 24.5585 72.1687 24.5585 71.8184C25.0737 71.6432 25.7606 71.4681 26.1041 71.4681C26.1041 71.4681 26.2759 71.4681 26.4476 71.6432C26.5441 71.7416 26.6946 71.7847 26.869 71.8347C27.0051 71.8736 27.1557 71.9168 27.3063 71.9936C27.8215 72.1687 28.5085 72.5191 28.5085 72.5191H28.6802C28.7661 72.5191 28.8519 72.5629 28.9378 72.6067C29.0237 72.6505 29.1095 72.6942 29.1954 72.6942C29.5389 72.8694 29.8824 72.8694 29.8824 72.8694L30.2259 73.0446C30.1603 73.1115 30.0947 73.1528 30.0386 73.1881C29.948 73.2453 29.8824 73.2866 29.8824 73.3949C29.7965 73.3949 29.7536 73.4387 29.7106 73.4825C29.6677 73.5263 29.6248 73.5701 29.5389 73.5701C29.3672 73.3949 29.1954 73.2197 28.6802 73.0446C28.3367 72.8694 27.8215 72.8694 27.3063 73.0446C26.4476 73.5701 24.9019 75.3217 24.5585 75.8472C25.2454 76.0224 27.8215 76.3727 28.6802 75.8472C28.6802 75.8472 28.8519 75.8472 28.8519 75.6721C29.5953 75.2171 29.5664 74.4996 29.5453 73.9742C29.542 73.8927 29.5389 73.8158 29.5389 73.7452C29.8824 73.5701 30.5693 73.2197 31.0846 73.2197C31.0846 73.2197 31.2563 73.2197 31.5998 73.3949C31.7715 73.4825 31.9432 73.5263 32.115 73.5701C32.2867 73.6138 32.4585 73.6576 32.6302 73.7452C32.9737 73.9204 33.3172 73.9204 33.6606 73.9204H34.1759C34.9488 74.0518 36.0116 74.1832 37.0743 74.3146C37.4284 74.3583 37.7825 74.4021 38.1258 74.4459H38.4693C33.8324 76.0224 32.6302 79.0002 32.6302 79.0002H34.6911C35.2063 77.2485 38.1258 75.8472 40.3585 75.1465C42.4193 76.0224 45.3389 77.4237 46.0258 79.0002H48.0867C48.0867 79.0002 46.8845 76.0224 42.2476 74.4459H42.4193C42.8168 74.3952 43.3006 74.3445 43.8249 74.2896C45.1127 74.1547 46.6448 73.9942 47.7432 73.7452C47.915 73.7452 48.0867 73.7452 48.2585 73.5701C48.4302 73.4825 48.6019 73.4387 48.7737 73.3949C48.9454 73.3511 49.1171 73.3073 49.2889 73.2197C49.6324 73.2197 49.8041 73.0446 49.8041 73.0446C49.9246 73.106 50.0873 73.1675 50.2701 73.2365C50.6084 73.3642 51.0153 73.5178 51.3498 73.7452C51.3498 73.7876 51.3473 73.8402 51.3444 73.9009C51.3233 74.3421 51.2819 75.2101 52.0367 75.6721H52.2085C53.2389 76.1975 55.6432 75.8472 56.3302 75.6721C55.9867 75.1466 54.6128 73.2197 53.5823 72.8694C53.0671 72.6942 52.5519 72.6942 52.2085 72.8694C51.865 73.0446 51.5215 73.2197 51.3498 73.3949C51.2639 73.3949 51.221 73.3511 51.178 73.3073C51.1351 73.2635 51.0921 73.2197 51.0063 73.2197C50.9407 73.1528 50.8751 73.1115 50.819 73.0761C50.7284 73.019 50.6628 72.9776 50.6628 72.8694L51.0063 72.6942C51.0063 72.6942 51.3498 72.5191 51.6932 72.5191C51.7791 72.5191 51.865 72.4753 51.9508 72.4315C52.0367 72.3877 52.1226 72.3439 52.2085 72.3439H52.3802C52.3802 72.3439 52.8954 72.1687 53.5823 71.8184C53.7541 71.7308 53.8829 71.687 54.0117 71.6432C54.1405 71.5995 54.2693 71.5557 54.441 71.4681C54.6128 71.2929 54.7845 71.2929 54.7845 71.2929C55.0682 71.2929 55.4038 71.3991 55.7056 71.4945C55.952 71.5725 56.1758 71.6432 56.3302 71.6432C56.3302 72.1687 56.3302 73.0446 57.5323 73.3949C58.0476 73.5701 58.9063 73.5701 59.765 73.3949C60.1084 73.3949 60.6236 73.2197 60.9671 73.0446C61.0983 72.9777 61.2295 72.9363 61.3416 72.901C61.5229 72.8438 61.6541 72.8025 61.6541 72.6942C61.1389 72.1687 59.5932 70.5922 58.5628 70.2419C58.0476 70.0667 57.5324 70.2419 57.1889 70.4171C56.9494 70.5392 56.7934 70.7465 56.6627 70.9202C56.6059 70.9956 56.5539 71.0647 56.5019 71.1177C56.4055 71.0194 56.2549 70.9762 56.0806 70.9263C55.9444 70.8873 55.7938 70.8442 55.6432 70.7674L56.3302 70.4171C56.416 70.3295 56.5019 70.2857 56.5877 70.2419L56.5878 70.2419L56.5878 70.2419C56.6737 70.1981 56.7596 70.1543 56.8454 70.0667C57.0171 70.0667 57.0171 69.8916 57.0171 69.8916C57.0171 69.8916 57.7041 69.5413 58.391 69.0158C59.078 68.6654 59.765 68.1399 59.765 68.1399H59.765C60.2802 68.1399 60.9671 68.1399 61.3106 68.3151C61.3106 68.6654 61.4824 69.5413 62.5128 69.8916H62.6845C63.0519 70.0165 63.5939 69.8742 64.186 69.7188L64.1861 69.7187C64.4244 69.6562 64.6708 69.5915 64.9171 69.5413C65.7758 69.1909 66.4628 68.8406 66.6345 68.6654C66.5816 68.6295 66.5143 68.5825 66.4349 68.527C65.7405 68.0422 64.1244 66.9138 63.1997 66.9138C62.6845 66.9138 62.1693 67.0889 61.9976 67.2641C61.6541 67.4393 61.4823 67.7896 61.4823 67.9648C61.4097 67.9648 61.3678 67.9648 61.3306 67.9515C61.2799 67.9334 61.238 67.8907 61.1389 67.7896C61.053 67.7896 60.9671 67.7458 60.8813 67.702C60.7954 67.6582 60.7095 67.6144 60.6237 67.6144L60.9671 67.4393L61.1389 67.2641C61.245 67.2641 61.2856 67.1972 61.3416 67.1047C61.3762 67.0476 61.4168 66.9807 61.4823 66.9138C61.8258 66.7386 61.9976 66.3883 61.9976 66.3883C61.9976 66.3883 62.1693 66.2131 62.341 66.2131C62.4269 66.1255 62.5557 66.038 62.6845 65.9504C62.8133 65.8628 62.9421 65.7752 63.028 65.6876C63.1139 65.6 63.2427 65.5125 63.3715 65.4249C63.5003 65.3373 63.6291 65.2497 63.715 65.1621L64.0584 64.8118C64.4019 64.6366 65.2606 64.6366 65.6041 64.6366C65.6227 64.6747 65.6435 64.7211 65.6669 64.7735C65.8586 65.2031 66.2314 66.038 67.1497 66.038C67.665 66.038 68.5237 65.6876 69.2106 65.3373C69.613 65.1321 70.0153 64.8668 70.3487 64.647L70.3488 64.6469L70.349 64.6468C70.5846 64.4915 70.7858 64.3588 70.928 64.2863C70.4128 63.936 68.3519 62.885 67.3215 63.0601C66.8062 63.0601 66.291 63.2353 66.1193 63.5856C65.9181 63.7909 65.8347 63.9961 65.7657 64.1661C65.7169 64.2863 65.6752 64.3889 65.6041 64.4615C65.4323 64.4615 65.0889 64.4615 64.7454 64.2863L64.9171 64.1111L65.2606 63.7608L65.9476 63.0601L66.291 62.7098C66.4628 62.5346 66.8063 62.1843 66.978 61.834C67.0639 61.6588 67.1927 61.5274 67.3215 61.3961C67.4503 61.2647 67.5791 61.1333 67.665 60.9582L68.0084 60.6078C68.3519 60.4327 69.0389 60.2575 69.5541 60.2575C69.7258 60.6078 70.241 61.4837 71.0997 61.3085H71.2715C71.7867 61.1333 72.4736 60.783 73.1606 60.2575C73.3618 60.0523 73.563 59.9072 73.7297 59.7869L73.7298 59.7869C73.8476 59.7019 73.9482 59.6294 74.0193 59.5568L74.5345 59.0313C74.0193 58.8562 71.7867 58.1555 70.7562 58.3307C70.241 58.5058 69.8976 58.681 69.7258 59.0313C69.5541 59.3817 69.3824 59.732 69.3824 59.9072H69.0388H68.5237L68.6954 59.5568L68.096 59.0983C68.1161 59.0691 68.1332 59.041 68.149 59.0149C68.205 58.9224 68.2456 58.8555 68.3517 58.8555C68.3517 58.6804 68.5234 58.6804 68.5234 58.6804L69.2104 57.6294C69.3821 57.279 69.5539 57.1039 69.7256 56.9287C69.8973 56.7535 69.8973 56.5784 69.8973 56.5784C69.9832 56.4908 70.112 56.447 70.2408 56.4032C70.3696 56.3594 70.4984 56.3156 70.5843 56.228C70.7155 56.1611 70.8216 56.1198 70.9123 56.0845C71.059 56.0273 71.1651 55.986 71.2712 55.8777C71.443 56.228 72.1299 57.1039 73.1604 56.5784C73.6756 56.4032 74.3625 55.8777 74.8778 55.177C75.079 54.9718 75.2212 54.7666 75.3391 54.5966C75.4224 54.4764 75.4936 54.3738 75.5647 54.3012C75.7365 53.9509 75.9082 53.7757 76.0799 53.6006C75.9377 53.6006 75.7365 53.5705 75.5007 53.5353C75.1674 53.4855 74.765 53.4254 74.3625 53.4254C73.6756 53.4254 72.8169 53.4254 72.3017 53.6006C71.7865 53.7757 71.443 54.126 71.2712 54.4764C71.0995 54.8267 71.0995 55.177 71.0995 55.3522C71.0284 55.3522 70.9278 55.3823 70.8099 55.4175C70.6432 55.4673 70.442 55.5274 70.2408 55.5274L70.5843 54.8267C70.6702 54.7391 70.7131 54.6515 70.756 54.564C70.799 54.4764 70.8419 54.3888 70.9278 54.3012C70.9278 54.1261 71.0995 54.1261 71.0995 54.1261C71.0995 54.1261 71.0995 53.9509 71.2712 53.6006L71.7865 52.5496C72.1299 51.8489 72.3017 51.1482 72.3017 51.1482C72.6452 50.7979 73.1604 50.4476 73.6756 50.2724C74.0191 50.6227 74.5343 51.1482 75.5647 50.7979H75.7365C76.2517 50.6227 76.7668 49.9221 77.282 49.2215L77.2821 49.2214C77.7973 48.5208 78.1408 47.8201 78.3125 47.4698C77.6256 47.4698 75.393 47.4698 74.5343 47.9953C74.0191 48.3456 73.8473 48.6959 73.6756 49.0463C73.5521 49.2982 73.6062 49.5502 73.6464 49.737C73.6621 49.8099 73.6756 49.8729 73.6756 49.9221C73.5897 49.9221 73.5468 49.9659 73.5039 50.0097C73.4609 50.0535 73.418 50.0972 73.3321 50.0972C73.2462 50.0972 73.1604 50.141 73.0745 50.1848C72.9886 50.2286 72.9028 50.2724 72.8169 50.2724L72.9886 49.9221V49.7469C72.9886 49.6593 73.0316 49.5718 73.0745 49.4842C73.1174 49.3966 73.1604 49.309 73.1604 49.2214C73.3321 48.8711 73.3321 48.5208 73.3321 48.5208C73.3321 48.5208 73.3321 48.3456 73.5039 48.1704C73.3321 47.4698 73.3321 47.2946 73.5039 46.9443C73.6756 46.2436 73.8473 45.7181 73.8473 45.7181C74.0191 45.5429 74.2337 45.3678 74.4484 45.1926C74.6631 45.0174 74.8778 44.8423 75.0495 44.6671C75.393 45.0174 76.2517 45.5429 77.1104 44.8423C77.6256 44.492 77.9691 43.7913 78.3125 42.9155C78.5137 42.505 78.656 42.0345 78.7739 41.6447C78.8572 41.369 78.9284 41.1338 78.9995 40.9886C78.8439 41.0283 78.609 41.077 78.3308 41.1346C77.3805 41.3315 75.9244 41.6332 75.393 42.0396C74.5343 42.7403 74.706 43.7913 74.8778 44.1416C74.706 44.3168 74.3625 44.492 74.0191 44.492C74.0191 44.492 74.0191 44.1416 74.1908 43.6161C74.1908 43.0906 74.3625 42.7403 74.3625 42.7403V42.2148C74.3625 41.8645 74.3626 41.5141 74.5343 41.1638V40.1128V39.5873C74.706 39.237 75.2212 38.7115 75.5647 38.3612C75.9082 38.5363 76.7669 38.8867 77.4538 38.186C77.4538 38.186 77.6256 38.186 77.6256 38.0108C77.9691 37.6605 78.3125 36.7847 78.4843 35.9088C78.5303 35.6741 78.5763 35.4519 78.6191 35.2457C78.7357 34.6826 78.8278 34.2385 78.8278 33.982C78.7943 33.9934 78.7536 34.007 78.7066 34.0227C78.0291 34.2489 76.0353 34.9147 75.393 35.7337C75.0495 36.084 74.8778 36.6095 74.8778 36.9598C74.8778 37.1651 74.9367 37.3703 74.9855 37.5403C75.02 37.6605 75.0495 37.7631 75.0495 37.8357C75.0495 37.8357 74.8778 38.0108 74.706 38.0108C74.6404 38.0777 74.5748 38.1191 74.5188 38.1544C74.4281 38.2116 74.3625 38.2529 74.3625 38.3612V38.0108V36.6095V36.2592V35.3834V34.5075V34.1572C74.5343 33.8069 74.8778 33.1062 75.2212 32.7559C75.5647 32.931 76.5951 33.1062 77.2821 32.2304C77.6256 31.88 77.7973 31.0042 77.9691 30.1284C78.1408 29.2526 78.1408 28.3767 77.9691 28.0264C77.8434 28.1118 77.6259 28.2389 77.3588 28.3949C76.5305 28.8788 75.2255 29.6413 74.706 30.3036C74.3625 30.8291 74.3625 31.1794 74.3625 31.7049C74.3625 32.0552 74.5343 32.4055 74.706 32.5807L74.0191 33.2814C74.0191 33.2814 74.0191 32.7559 73.8473 32.4055C73.8473 32.0552 73.6756 31.5297 73.6756 31.5297V31.0042C73.6756 30.8291 73.6327 30.6539 73.5897 30.4787C73.5468 30.3036 73.5039 30.1284 73.5039 29.9532C73.5039 29.7781 73.4609 29.6029 73.418 29.4277C73.375 29.2526 73.3321 29.0774 73.3321 28.9022C73.3321 28.5519 73.1604 28.3767 73.1604 28.3767C73.2206 28.2539 73.2809 28.0879 73.3485 27.9014C73.4737 27.5564 73.6243 27.1414 73.8473 26.8003C73.8889 26.8003 73.9404 26.8028 73.9999 26.8058C74.4325 26.8272 75.2835 26.8695 75.7365 26.0996V25.9244C76.2517 25.0486 75.9082 22.4211 75.7365 21.7205C75.2212 22.0708 73.3321 23.4721 72.9886 24.5231C72.8169 25.0486 72.8169 25.5741 72.9886 25.9244C73.1604 26.2748 73.3321 26.6251 73.5039 26.8003C73.5039 26.8878 73.4609 26.9316 73.418 26.9754C73.375 27.0192 73.3321 27.063 73.3321 27.1506C73.2665 27.2175 73.226 27.2844 73.1913 27.3415C73.1353 27.434 73.0948 27.5009 72.9886 27.5009L72.8169 27.1506C72.8169 27.1506 72.6452 26.8002 72.6452 26.4499C72.6452 26.3623 72.6022 26.2747 72.5593 26.1872C72.5163 26.0996 72.4734 26.012 72.4734 25.9244V25.7493C72.4734 25.7493 72.3017 25.2238 71.9582 24.5231C71.8723 24.3479 71.8294 24.2166 71.7865 24.0852C71.7435 23.9538 71.7006 23.8224 71.6147 23.6473C71.443 23.4721 71.443 23.2969 71.443 23.2969C71.443 23.0342 71.5289 22.7714 71.6147 22.5087C71.7006 22.246 71.7865 21.9832 71.7865 21.7205C72.3017 21.7205 73.1604 21.7205 73.5039 20.4943C73.6756 19.9688 73.6756 19.093 73.5039 18.2171C73.5039 17.8668 73.3321 17.3413 73.1604 16.991C73.0948 16.8572 73.0542 16.7234 73.0196 16.6091C72.9636 16.4241 72.923 16.2903 72.8169 16.2903L72.8168 16.2904C72.3015 16.816 70.756 18.3924 70.4126 19.4433C70.2408 19.9688 70.4126 20.4943 70.5843 20.8446C70.704 21.0889 70.9073 21.248 71.0776 21.3813C71.1515 21.4392 71.2192 21.4923 71.2712 21.5453C71.1748 21.6437 71.1325 21.7973 71.0836 21.9751C71.0454 22.1139 71.0031 22.2675 70.9278 22.4211C70.9278 22.4211 70.756 22.0708 70.5843 21.5453C70.4984 21.4577 70.4555 21.3701 70.4126 21.2825C70.3696 21.195 70.3267 21.1074 70.2408 21.0198C70.2408 20.8446 70.0691 20.8446 70.0691 20.8446L69.3821 19.4433C69.0387 18.7426 68.5234 18.042 68.5234 18.042V18.0418C68.5234 17.5164 68.5234 16.8158 68.6952 16.4655C69.0386 16.4655 69.8974 16.2903 70.2408 15.2393V15.0642C70.3633 14.6895 70.2238 14.1366 70.0714 13.5327C70.01 13.2896 69.9466 13.0383 69.8973 12.787C69.5538 11.9112 69.2104 11.2105 69.0386 11.0354C68.9963 11.1002 68.9382 11.1864 68.8686 11.2896C68.3744 12.023 67.3001 13.6174 67.1495 14.5387C67.1495 15.0642 67.3213 15.5897 67.493 15.7648C67.6647 16.1152 68.0082 16.2903 68.1799 16.2903C68.1799 16.4655 68.18 16.4655 68.0082 16.6407C68.0082 16.7282 67.9653 16.8158 67.9223 16.9034C67.8794 16.991 67.8365 17.0786 67.8365 17.1662L67.6647 16.8158L67.493 16.6407C67.493 16.5324 67.4274 16.491 67.3367 16.4339C67.2807 16.3986 67.2151 16.3572 67.1495 16.2903C66.9778 15.94 66.6343 15.7648 66.6343 15.7648C66.6343 15.7648 66.4626 15.5897 66.4626 15.4145C66.3767 15.3269 66.2908 15.1955 66.2049 15.0642C66.1191 14.9328 66.0332 14.8014 65.9474 14.7138C65.8615 14.6263 65.7756 14.4949 65.6897 14.3635C65.6039 14.2321 65.518 14.1008 65.4321 14.0132C65.2604 13.838 65.2604 13.6628 65.2604 13.6628C65.0887 13.3126 65.0887 12.4369 65.0887 12.0865V12.0864C65.126 12.0673 65.1715 12.0462 65.2229 12.0223C65.6441 11.8267 66.4626 11.4466 66.4626 10.5099C66.4626 9.98437 66.1191 9.10854 65.7756 8.40788C65.5744 7.99744 65.3143 7.58701 65.0988 7.24699C64.9464 7.00656 64.8163 6.80134 64.7452 6.65623C64.4017 7.18172 63.3713 9.28371 63.543 10.3347C63.543 10.8602 63.7147 11.3857 64.0582 11.5609C64.2594 11.7661 64.4606 11.8511 64.6273 11.9215C64.7452 11.9713 64.8458 12.0138 64.9169 12.0864C64.9169 12.2615 64.9169 12.6118 64.7452 12.9622C64.7452 12.9622 64.7452 12.9622 64.5734 12.787C64.5078 12.7201 64.4673 12.6532 64.4327 12.596C64.3766 12.5036 64.3361 12.4367 64.23 12.4367C63.8865 12.0863 63.543 11.9112 63.543 11.9112L63.1995 11.5609C63.0278 11.3857 62.6843 11.0354 62.3408 10.8602C62.1691 10.7726 62.0403 10.6412 61.9115 10.5099C61.7827 10.3785 61.6539 10.2471 61.4821 10.1595L61.1387 9.8092C60.9669 9.45887 60.7952 8.75822 60.7952 8.23272C61.1387 8.05755 61.9974 7.53205 61.8256 6.65623V6.48106C61.6539 5.95557 61.3104 5.2549 60.7952 4.55423C60.6735 4.43013 60.5734 4.30603 60.4796 4.18971C60.3085 3.97768 60.1583 3.79152 59.9365 3.67841L59.4213 3.15292C59.2495 3.67842 58.5626 5.95556 58.7343 7.00655C58.906 7.53205 59.0778 7.88238 59.4213 8.05754L59.4214 8.05758C59.7648 8.23274 60.1082 8.40788 60.28 8.40788V8.75821V9.28371L60.1082 9.10855C60.1082 9.10855 59.7647 8.93337 59.593 8.75821C59.5274 8.6913 59.4618 8.64995 59.4058 8.61463C59.3151 8.55749 59.2495 8.51614 59.2495 8.40788C59.0778 8.40788 59.0778 8.23272 59.0778 8.23272L58.0474 7.53205C57.7039 7.3569 57.5322 7.18174 57.3605 7.00659L57.3604 7.00655C57.1887 6.83139 57.0169 6.83139 57.0169 6.83139C56.9311 6.74381 56.8881 6.61244 56.8452 6.48106C56.8023 6.34969 56.7593 6.21831 56.6734 6.13073C56.6078 5.99691 56.5673 5.88865 56.5327 5.79618C56.4767 5.64657 56.4361 5.53832 56.33 5.43006C56.6735 5.2549 57.5322 4.55424 57.1887 3.50324C57.0169 2.97775 56.5017 2.27709 55.8148 1.75159C55.6136 1.54637 55.4123 1.40126 55.2457 1.28104C55.1278 1.19604 55.0272 1.12348 54.9561 1.05093C54.6126 0.875768 54.4409 0.700619 54.2691 0.525461L54.2691 0.525438C54.2691 0.67055 54.2396 0.875769 54.2051 1.1162C54.1563 1.45622 54.0974 1.86665 54.0974 2.27709C54.0974 2.97775 54.0974 3.85358 54.2691 4.37907C54.4409 4.90457 54.7843 5.2549 55.1278 5.43006C55.4713 5.60523 55.8148 5.60524 55.9865 5.60524C55.9865 5.67779 56.016 5.7804 56.0505 5.90062C56.0993 6.07063 56.1582 6.27585 56.1582 6.48106L54.0974 5.7804C53.9912 5.67214 53.6883 5.56388 53.2696 5.41427C53.0109 5.32181 52.708 5.21355 52.38 5.07974C52.38 5.04603 52.3816 5.00584 52.3834 4.96026C52.4003 4.53204 52.4361 3.62786 51.3496 3.15292C50.7021 2.88875 49.1757 3.02297 48.2432 3.10498C47.939 3.13173 47.698 3.15292 47.5713 3.15292C47.9148 3.67842 49.2887 5.60523 50.1474 5.95556C51.1778 6.30589 51.8648 5.78039 52.0365 5.43006C52.6605 5.78362 53.3124 6.13719 53.8794 6.44466C54.7169 6.89884 55.3689 7.25244 55.4713 7.35689L56.5017 7.88238C56.8452 8.05755 57.0169 8.23272 57.0169 8.23272C56.8452 8.3203 56.7164 8.36409 56.5876 8.40788C56.4588 8.45167 56.33 8.49546 56.1582 8.58305C56.1062 8.53001 56.0542 8.46091 55.9975 8.38548C55.8667 8.21179 55.7108 8.00451 55.4713 7.88238C55.1278 7.70721 54.7843 7.70721 54.2691 7.88238C53.4104 8.23271 52.0365 10.1595 51.693 10.685H52.38C52.7235 10.685 52.8952 10.685 53.2387 10.8602C53.9256 10.8602 54.6126 10.8602 55.1278 10.685C56.1582 10.3347 56.33 9.45887 56.33 8.93337C56.8452 8.75821 57.3604 8.75821 57.8756 8.75821C57.8756 8.75821 58.2191 8.93338 58.3908 9.10855C58.4767 9.10855 58.5196 9.15234 58.5626 9.19613C58.6055 9.23992 58.6484 9.28371 58.7343 9.28371C58.906 9.28371 58.9061 9.45887 58.9061 9.45887L59.593 9.98437C59.593 9.98437 59.9365 10.3347 60.4517 10.685C60.7952 11.0354 61.3104 11.3857 61.3104 11.3857C61.1092 11.3857 60.908 11.4458 60.7413 11.4956C60.6234 11.5308 60.5228 11.5609 60.4517 11.5609C60.4517 11.3857 60.28 11.2105 60.1082 11.0354L59.7648 10.685C59.6789 10.685 59.593 10.6412 59.5071 10.5974C59.4213 10.5537 59.3354 10.5099 59.2495 10.5099H58.5626C57.645 10.6659 56.3188 12.072 55.7968 12.6255C55.7327 12.6935 55.6806 12.7487 55.643 12.787C55.7142 12.787 55.7853 12.8171 55.8686 12.8523C55.9865 12.9021 56.1288 12.9622 56.33 12.9622C56.5017 12.9622 56.6735 13.006 56.8452 13.0498C57.0169 13.0936 57.1887 13.1373 57.3604 13.1373C57.5616 13.1373 57.7628 13.1975 57.9295 13.2472C58.0474 13.2825 58.148 13.3125 58.2191 13.3125H59.0778C60.1082 13.1373 60.4517 12.2615 60.4517 11.736H61.9974C61.9974 11.736 62.1691 11.9112 62.5126 12.0864L63.0278 12.6119L63.3713 12.9622L63.7147 13.3125L64.23 13.838C64.3516 13.9621 64.4518 14.0862 64.5456 14.2025C64.7167 14.4146 64.8669 14.6007 65.0887 14.7138L65.4321 15.0642H64.5734C64.5734 14.889 64.4017 14.5387 64.23 14.1883C64.0582 13.838 63.543 13.6628 63.0278 13.6628C61.9973 13.6628 60.1082 15.0642 59.7648 15.4145C59.8452 15.4965 60.0387 15.5786 60.2746 15.6786C60.5423 15.7922 60.8648 15.9289 61.1387 16.1152C61.8256 16.4655 62.5126 16.6407 62.8561 16.6407C63.8865 16.6407 64.4017 15.7648 64.5734 15.4145C64.8571 15.4145 65.1928 15.4676 65.4945 15.5153C65.7409 15.5543 65.9647 15.5897 66.1191 15.5897L66.9778 16.6407C66.9778 16.6407 67.1495 16.8158 67.1495 16.991C67.3213 17.1662 67.3212 17.3413 67.3212 17.3413C67.3212 17.3413 67.6647 17.6916 67.8365 18.2171C68.0082 18.3923 68.1799 18.7426 68.1799 18.7426C68.3517 18.9178 68.3517 19.093 68.3517 19.093H67.493C67.493 18.7426 67.3213 18.042 66.6343 17.8668C66.5484 17.8668 66.4626 17.823 66.3767 17.7792C66.2908 17.7354 66.2049 17.6916 66.1191 17.6916C65.3463 17.5603 63.9938 18.2171 63.1486 18.6277C62.8668 18.7645 62.6414 18.874 62.5126 18.9178C62.6843 18.9178 62.856 19.0929 63.0277 19.2681L63.0278 19.2681C63.1995 19.4433 63.543 19.6185 63.8865 19.7936C64.4017 20.144 65.0887 20.4943 65.4321 20.4943C66.4626 20.6695 66.9778 19.9688 67.3212 19.4433C67.5502 19.5601 67.9319 19.6768 68.3135 19.7936C68.5043 19.852 68.6952 19.9104 68.8669 19.9688L69.5539 21.0198C69.5539 21.0198 69.7256 21.195 69.7256 21.5453L70.2408 22.5963C70.2981 22.7131 70.3553 22.8493 70.4126 22.9856C70.5271 23.258 70.6415 23.5305 70.756 23.6473C70.9278 23.9976 70.9278 24.1728 70.9278 24.1728C70.7266 24.1728 70.5254 24.1127 70.3587 24.0629C70.2408 24.0277 70.1402 23.9976 70.0691 23.9976C70.0691 23.8224 70.0691 23.4721 69.8973 23.1218C69.7256 22.7715 69.3821 22.4211 68.8669 22.246C68.0597 21.9715 66.6201 22.4495 65.704 22.7537C65.4507 22.8378 65.2375 22.9087 65.0887 22.9466C65.4321 23.2969 66.806 24.6983 67.8365 25.0486C68.8669 25.3989 69.5538 24.6983 69.8973 24.3479L71.2712 25.0486C71.2712 25.0486 71.443 25.3989 71.443 25.5741C71.443 25.7493 71.6147 25.9244 71.6147 25.9244V26.0996L71.9582 26.9754C71.9582 26.9754 71.9582 27.1506 72.1299 27.3257C72.1299 27.4133 72.1729 27.5447 72.2158 27.6761C72.2588 27.8074 72.3017 27.9388 72.3017 28.0264L72.6452 29.0774C72.4734 28.9898 72.3446 28.946 72.2158 28.9022C72.087 28.8584 71.9582 28.8147 71.7865 28.7271V28.0264C71.7865 27.7699 71.6944 27.6074 71.5777 27.4012C71.535 27.3257 71.489 27.2444 71.443 27.1506C71.3571 27.063 71.2713 27.0192 71.1854 26.9754C71.0995 26.9316 71.0136 26.8878 70.9278 26.8003C70.4126 26.6251 69.7256 26.6251 68.8669 26.6251C68.18 26.6251 67.3213 26.8002 67.1495 26.9754C67.2124 27.0395 67.2982 27.1506 67.4071 27.2914C67.5957 27.5353 67.8533 27.8684 68.1799 28.2016L68.8669 28.9022C68.9528 28.9898 69.0816 29.0774 69.2104 29.165C69.3392 29.2526 69.468 29.3402 69.5539 29.4277C70.5843 29.9532 71.2712 29.4277 71.6147 29.0774C71.7865 29.165 72.0011 29.3401 72.2158 29.5153C72.4305 29.6905 72.6452 29.8656 72.8169 29.9532C72.8169 29.9532 72.8169 30.3036 72.9886 30.6539V31.0042V31.1794C72.9886 31.1794 72.9886 31.3545 73.1604 31.7049C73.1604 31.8623 73.1951 32.0198 73.2333 32.1932C73.2801 32.4055 73.3321 32.6418 73.3321 32.931C73.3321 33.2203 73.3842 33.4565 73.4309 33.6689C73.4692 33.8423 73.5039 33.9997 73.5039 34.1572V34.6827C73.1604 34.5075 72.9886 34.3324 72.8169 34.1572C72.8169 34.0846 72.8464 33.982 72.8809 33.8618C72.9297 33.6918 72.9886 33.4866 72.9886 33.2814C72.9886 32.931 72.8169 32.5807 72.3017 32.2304C71.443 31.7049 69.2104 31.7049 68.5234 31.7049C68.6039 31.7869 68.6843 31.9842 68.7824 32.2248C68.8937 32.498 69.0278 32.8268 69.2104 33.1062C69.2718 33.2002 69.3333 33.2999 69.3957 33.4011C69.6823 33.8656 69.9895 34.3637 70.4126 34.5075C71.2712 35.033 72.1299 34.6827 72.4734 34.5075C72.5879 34.6243 72.7215 34.7411 72.8551 34.8579C73.1222 35.0914 73.3894 35.325 73.5039 35.5585V36.2592V36.9598V37.8357V38.8867V39.5873V39.9377C73.418 39.8501 73.2892 39.7625 73.1604 39.6749C73.0316 39.5873 72.9028 39.4997 72.8169 39.4122C72.9886 39.0618 73.1604 38.5363 72.9886 37.8357C72.9028 37.7481 72.8598 37.6605 72.8169 37.5729C72.774 37.4853 72.731 37.3978 72.6452 37.3102C71.9582 36.6095 69.5538 36.2592 69.0386 36.2592C69.0386 36.444 69.1342 36.6775 69.2497 36.9598C69.3532 37.2127 69.4727 37.5046 69.5539 37.8357C69.7256 38.3612 70.0691 39.0618 70.4126 39.4122C71.0995 40.1128 72.1299 39.9377 72.4734 39.7625C72.8169 40.1128 73.1604 40.6383 73.3321 40.9886V41.1638V41.6893V42.39V42.9155C73.3321 43.0729 73.2974 43.2304 73.2592 43.4038C73.2124 43.6161 73.1604 43.8523 73.1604 44.1416C73.1604 44.3168 73.1174 44.5358 73.0745 44.7547C73.0316 44.9737 72.9886 45.1926 72.9886 45.3678C72.9886 45.7181 72.8169 45.8933 72.8169 45.8933C72.731 45.8057 72.6452 45.6743 72.5593 45.5429C72.4734 45.4116 72.3876 45.2802 72.3017 45.1926C72.6452 44.8423 72.9886 43.9665 72.3017 43.0906C71.6147 42.2148 69.5539 41.5141 68.8669 41.5141C68.8669 41.6893 69.0386 42.39 69.2104 43.0906L69.2104 43.0907C69.3821 43.7914 69.5539 44.492 69.8973 44.8423C70.4926 45.6012 71.2168 45.571 71.7347 45.5494C71.8145 45.5461 71.8894 45.5429 71.9582 45.5429L72.6452 46.9443L72.3017 48.1704C72.3017 48.1704 72.3017 48.3456 72.1299 48.5208C72.1299 48.6959 71.9582 48.8711 71.9582 48.8711L71.6147 49.9221C71.6147 50.0097 71.5718 50.141 71.5289 50.2724C71.4859 50.4038 71.443 50.5352 71.443 50.6227C71.443 50.7979 71.2712 50.9731 71.2712 50.9731C71.1854 50.8855 71.0995 50.7541 71.0136 50.6227C70.9278 50.4914 70.8419 50.36 70.756 50.2724C71.0995 50.0973 71.443 49.5718 71.2712 48.8711C71.2712 48.7835 71.2283 48.6959 71.1854 48.6083C71.1424 48.5208 71.0995 48.4332 71.0995 48.3456C70.5843 47.4698 68.5234 46.4188 68.0082 46.2436V46.9443V47.9953C68.0082 48.6959 68.1799 49.3966 68.3517 49.7469C68.8669 50.6227 69.7256 50.7979 70.2408 50.6227C70.4126 50.9731 70.756 51.6737 70.756 52.1992L70.2408 53.4254V53.6006C70.2408 53.6006 70.0691 53.7757 70.0691 53.9509L69.5539 55.0019L69.0386 56.0529C68.8669 56.4032 68.6952 56.5784 68.6952 56.5784C68.6093 56.4032 68.5664 56.2718 68.5234 56.1405C68.4805 56.0091 68.4376 55.8777 68.3517 55.7025C68.4037 55.6495 68.4714 55.5965 68.5454 55.5386C68.7157 55.4053 68.9189 55.2461 69.0386 55.0019C69.2104 54.6516 69.2104 54.3012 69.0386 53.7757C68.6952 52.8999 66.806 51.4986 66.2908 51.1482V51.8489C66.2908 52.1992 66.2908 52.3744 66.1191 52.7247C66.1191 53.4254 66.1191 54.1261 66.2908 54.6516C66.6343 55.7025 67.493 55.8777 68.0082 55.8777C68.1799 56.4032 68.1799 56.9286 68.1799 57.4541V57.4542C68.1799 57.4542 68.0082 57.8045 67.8365 57.9797C67.6647 58.1549 67.6647 58.33 67.6647 58.33C67.6647 58.5052 67.493 58.5052 67.493 58.5052L66.9778 59.2059L67.0359 59.2503C66.7652 59.3969 66.5822 59.5948 66.4173 59.7732C66.3744 59.8196 66.3327 59.8647 66.291 59.9072Z" fill="#F5EFDB"/>
</svg>
