<svg width="79" height="79" viewBox="0 0 79 79" fill="none" xmlns="http://www.w3.org/2000/svg">
<path fill-rule="evenodd" clip-rule="evenodd" d="M35.734 4.67551C36.375 4.67551 37.1762 4.99796 37.8172 5.48164C38.4582 6.12654 38.9389 6.93265 38.9389 7.73878C39.0991 8.38368 39.0992 8.86737 39.0992 8.86737C39.0992 8.86737 38.7787 8.86736 38.1377 8.70614C37.9774 8.62552 37.8172 8.58521 37.6569 8.5449C37.4967 8.50459 37.3365 8.46428 37.1762 8.38367C36.8557 8.22244 36.5353 8.06123 36.2148 7.73878C35.5738 7.09389 35.2533 6.44898 34.9328 5.8041L34.9328 5.80406C34.7726 5.15916 34.6123 4.67551 34.6123 4.67551H35.734ZM35.734 4.35304C35.0931 4.67549 34.6123 4.67551 34.6123 4.67551C34.6123 4.67551 34.6123 4.19182 34.7726 3.54692C34.7726 2.90202 35.0931 2.09591 35.734 1.45101C36.0545 1.12856 36.5352 0.806115 36.8557 0.64489C37.1762 0.32244 37.6569 0.161186 37.9774 0.161186C38.7786 -3.93689e-05 39.2594 0 39.2594 0C39.2594 0 39.0991 0.483645 38.9389 1.12855C38.8869 1.2332 38.8349 1.34211 38.7815 1.45388C38.506 2.03085 38.1939 2.68426 37.6569 3.2245C37.016 3.8694 36.375 4.19182 35.734 4.35304ZM30.1259 6.77145C30.4464 7.25512 31.0873 8.06124 31.7283 8.38368L32.6898 8.86738C33.0102 9.02857 33.1704 9.02857 33.4908 9.02857H33.491H34.132H34.7729C34.7729 9.02857 34.6127 8.54493 34.4525 7.90003C34.132 7.25514 33.6513 6.61023 33.0103 6.12656L33.0102 6.12652C32.6897 5.96531 32.3693 5.8041 32.0488 5.8041C31.1397 5.54278 30.2307 5.70502 29.8334 5.77592L29.7846 5.78459L29.7853 5.77733C30.121 5.68523 30.9247 5.34937 31.7283 4.67556C31.9353 4.57145 32.0754 4.40011 32.235 4.20496L32.2351 4.20491C32.3226 4.09787 32.416 3.98365 32.5295 3.86944C33.0103 3.22455 33.3308 2.25722 33.491 1.61232C33.6513 0.96743 33.6512 0.483739 33.6512 0.483739C33.6512 0.483739 33.3308 0.483749 32.85 0.644973C32.6898 0.644973 32.3693 0.806167 32.0488 0.96739C31.7283 1.12861 31.4078 1.28987 31.2476 1.45109C30.9271 1.61231 30.6066 1.93476 30.4464 2.25721C29.9656 3.06333 29.8054 3.86943 29.8054 4.51433V5.64291C29.8054 5.64291 29.7928 5.69365 29.7853 5.77733C29.7197 5.7953 29.672 5.80399 29.6456 5.8041C29.6705 5.804 29.718 5.79633 29.7846 5.78459C29.7663 6.0016 29.7838 6.42732 30.1259 6.77145ZM16.9855 14.1883C16.3445 13.8659 16.024 13.5435 16.024 13.5435C16.024 13.5435 16.1843 13.3822 16.9855 13.0598C17.306 12.7373 17.7867 12.5761 18.4277 12.4149H19.3892C20.1904 12.5761 20.9916 12.8986 21.4723 13.3822L22.2736 14.1883L21.6326 14.5108C21.3121 14.672 20.8314 14.8332 20.1904 14.9945H19.2289C18.2675 14.8332 17.6265 14.5108 16.9855 14.1884L16.9855 14.1883ZM16.5048 12.8986C16.3445 13.221 16.024 13.5435 16.024 13.5435C16.024 13.5435 15.7036 13.221 15.2228 12.5761C14.9023 11.9312 14.7421 11.1251 14.9023 10.1577C14.9023 9.67407 15.0626 9.35161 15.2228 9.02916C15.5433 8.38427 16.024 7.90061 16.3445 7.57816L16.3445 7.57815C16.665 7.2557 16.9855 7.0945 16.9855 7.0945C16.9855 7.0945 17.306 7.57814 17.4663 8.22304C17.6265 8.86793 17.7867 9.83528 17.6265 10.6414C17.6265 10.9638 17.4662 11.2863 17.306 11.6088C17.1458 12.0924 16.8253 12.5761 16.5048 12.8986ZM5.28774 24.9894C5.44798 25.3119 5.76847 25.6343 6.08895 25.7955C6.56968 26.2792 7.05043 26.4404 7.05043 26.4404C7.05043 26.4404 7.53115 26.6016 8.17212 26.6016H9.29383C9.61431 26.6016 10.095 26.4404 10.4155 26.2792L10.4158 26.2791C10.7362 26.1179 11.0565 25.9567 11.2167 25.7955C11.6974 25.4731 12.0179 25.1507 12.3383 24.8283L12.3384 24.8282C12.3996 24.7666 12.4375 24.705 12.4698 24.6524C12.5221 24.5673 12.5599 24.5057 12.6589 24.5057C12.6589 24.3445 12.8192 24.3445 12.8192 24.3445C12.8192 24.3445 12.3385 24.1833 11.6975 24.022C11.5534 24.022 11.4094 23.9895 11.2508 23.9536C11.0565 23.9097 10.8404 23.8608 10.5758 23.8608C10.2553 23.8608 9.77456 23.8608 9.29383 24.022L8.33235 24.5057C8.00384 24.726 7.75016 25.0217 7.52018 25.2897L7.52017 25.2897C7.41361 25.4139 7.31213 25.5322 7.21065 25.6343C7.11979 25.7257 7.05468 25.8171 7.00804 25.9012C7.0322 25.781 7.05043 25.6362 7.05043 25.4731C7.21065 24.9894 7.21065 24.5058 7.21065 23.861V23.8608V23.8607C7.21065 23.5383 7.21065 23.2158 7.05043 22.7322C6.89022 22.2487 6.73001 21.9263 6.5698 21.6039L6.56969 21.6037C6.48957 21.4424 6.36938 21.2812 6.24919 21.12C6.12901 20.9588 6.00882 20.7975 5.9287 20.6363L5.12748 19.8302C5.12748 19.8302 5.12749 19.8302 5.10746 19.8503L4.96725 19.9914C4.96725 20.072 4.92719 20.1526 4.88713 20.2333C4.84706 20.3139 4.807 20.3945 4.807 20.4751C4.64676 20.9588 4.48652 21.6037 4.48652 22.2486C4.48652 22.571 4.48653 23.0547 4.64677 23.3772C4.7692 23.6851 4.86825 23.946 4.95284 24.1688C5.08968 24.5293 5.18871 24.7901 5.28774 24.9894ZM3.52487 41.757C2.8839 41.5957 2.0827 41.2733 1.44172 40.6284C1.12124 40.3059 0.960979 39.9835 0.800735 39.3386C0.480248 38.6937 0.319999 38.0488 0.319999 37.5651V36.9202V36.759C0.319999 36.759 0.80075 36.759 1.44172 37.0815C2.0827 37.4039 2.72367 37.8876 3.36464 38.5325C3.6851 38.8549 3.84534 39.1773 4.00557 39.4997L4.00561 39.4998C4.21927 39.8223 4.29049 40.1447 4.36171 40.4672C4.39732 40.6284 4.43293 40.7896 4.48634 40.9508C4.64659 41.4345 4.6466 41.757 4.6466 41.757V40.9508C4.70957 40.8241 4.74779 40.6476 4.79044 40.4507C4.85632 40.1464 4.93276 39.7934 5.12731 39.4998C5.28754 39.1774 5.44778 39.0162 5.76821 38.6938L5.7683 38.6937C6.40927 38.0488 7.21049 37.7263 7.85147 37.5651C8.49244 37.4039 8.97317 37.4039 8.97317 37.4039V37.5651C8.81293 37.7263 8.81292 37.8875 8.81292 38.0488C8.81292 38.5324 8.65267 39.0161 8.33218 39.4998C8.17194 39.8223 8.0117 39.9835 7.69122 40.3059C7.21048 40.9508 6.40927 41.4345 5.7683 41.5957C5.12732 41.9182 4.6466 41.9182 4.6466 41.9182C4.6466 41.9182 4.16585 41.9182 3.52487 41.757ZM78.3589 39.6615C78.6794 40.3063 78.8396 40.9513 78.8396 41.4349V42.4023V42.5635C78.8396 42.5635 78.3589 42.5635 77.7179 42.241C77.0769 42.0798 76.436 41.5962 75.795 40.9513C75.4745 40.6289 75.3143 40.3064 75.1541 39.984L75.154 39.9839C74.9486 39.5705 74.8748 39.2233 74.8061 38.8999C74.7677 38.7189 74.7308 38.5453 74.6733 38.3717C74.513 37.888 74.513 37.5656 74.513 37.5656V38.3717C74.4501 38.4983 74.4119 38.6748 74.3692 38.8716L74.3692 38.8718L74.3692 38.8718C74.3033 39.1761 74.2269 39.5291 74.0323 39.8227C73.8721 40.1451 73.7118 40.3064 73.3913 40.6288C72.7504 41.2737 71.9492 41.5962 71.3082 41.7574C70.6672 41.9186 70.1865 41.9186 70.1865 41.9186V41.7574C70.3467 41.5962 70.3467 41.4349 70.3467 41.2737C70.3467 40.79 70.507 40.3064 70.8274 39.8227C70.9877 39.5003 71.1479 39.3391 71.4683 39.0167L71.4684 39.0166L71.4684 39.0166C71.9492 38.3717 72.7504 37.888 73.3913 37.7268C74.0323 37.4043 74.513 37.4043 74.513 37.4043C74.513 37.4043 74.9938 37.4043 75.6347 37.5656C76.2757 37.7268 77.0769 38.0493 77.7179 38.6941C78.0384 39.0166 78.1986 39.339 78.3589 39.6615ZM77.6381 44.9822L77.6381 44.9822C77.558 44.7807 77.4779 44.5792 77.3978 44.3373C77.2375 44.1761 77.1173 44.0149 76.9972 43.8537C76.877 43.6924 76.7568 43.5312 76.5965 43.37C76.276 43.0475 75.9556 42.8863 75.6351 42.8863C74.9941 42.5638 74.5134 42.5639 74.5134 42.5639C74.5134 42.5639 74.0326 42.5639 73.3917 42.7251C73.157 42.7251 72.9224 42.8115 72.6249 42.9211C72.516 42.9611 72.3988 43.0043 72.27 43.0475C72.1943 43.0856 72.1097 43.1236 72.0204 43.1638C71.7314 43.2938 71.3931 43.4461 71.1483 43.6924C71.0347 43.8066 70.9212 43.9006 70.8148 43.9887C70.6208 44.1493 70.4505 44.2903 70.3471 44.4985C70.1868 44.821 70.0266 45.1434 69.8663 45.3046L69.5458 46.272H70.6675C71.3085 46.272 72.1097 46.1108 72.9109 45.4659C73.0245 45.3516 73.138 45.2577 73.2444 45.1696C73.4384 45.009 73.6087 44.868 73.7122 44.6598L74.1929 43.6924C74.3531 43.0475 74.5134 42.5639 74.5134 42.5639V43.6924C74.5134 43.8373 74.5457 43.9822 74.5814 44.1418L74.5814 44.1419C74.6251 44.3373 74.6736 44.5547 74.6736 44.821C74.7537 44.9822 74.8339 45.1837 74.914 45.3852C74.9941 45.5868 75.0742 45.7883 75.1544 45.9496C75.6351 46.7557 76.276 47.2394 76.917 47.5618L77.8785 48.0455C77.8785 48.0455 78.0387 47.5618 78.0387 46.7557V46.7556C78.0387 46.4332 78.0387 46.1107 77.8785 45.6271C77.7984 45.3853 77.7182 45.1838 77.6381 44.9822ZM75.4745 48.851C75.795 49.1734 76.1154 49.4959 76.2757 49.9795C76.4359 50.4632 76.5962 50.9469 76.5962 51.4305V52.7203C76.5962 52.9092 76.5412 53.098 76.4956 53.2545L76.4956 53.2546C76.4634 53.3652 76.4359 53.4597 76.4359 53.5264C76.2757 53.6877 76.2757 53.8489 76.2757 53.8489C76.2757 53.8489 75.7949 53.6877 75.3142 53.204C74.8335 52.7204 74.1925 52.0754 73.872 51.2693C73.7118 50.9469 73.5515 50.4632 73.5515 50.1407V49.0122C73.5515 48.7062 73.5876 48.4364 73.6255 48.2375C73.5473 48.4545 73.4158 48.7334 73.231 49.0122C73.1647 49.079 73.0983 49.1734 73.0205 49.2841C72.9106 49.4405 72.7778 49.6294 72.5901 49.8183C72.2696 50.1408 71.9491 50.4632 71.6286 50.6244C70.8275 50.9468 70.0263 50.9468 69.3854 50.9468H69.3852C68.7442 50.9468 68.2635 50.7857 68.2635 50.7857C68.2635 50.7857 68.2635 50.6244 68.4237 50.4632C68.4237 50.3636 68.4849 50.2639 68.5695 50.1262C68.6218 50.0411 68.683 49.9415 68.7442 49.8183C68.9045 49.4959 69.0647 49.3346 69.3852 49.0122C69.5454 48.9316 69.7057 48.8107 69.8659 48.6897C70.0262 48.5688 70.1864 48.4479 70.3467 48.3673C70.5521 48.1606 70.8235 48.0864 71.0762 48.0173C71.2177 47.9786 71.3534 47.9415 71.4684 47.8836C71.9491 47.7224 72.2696 47.7224 72.5901 47.7224H73.7118L74.6732 48.2061C74.7395 48.2728 74.8333 48.3394 74.943 48.4176L74.9433 48.4177L74.9434 48.4178L74.9435 48.4179C75.099 48.5285 75.2867 48.6621 75.4745 48.851ZM72.9107 53.5264C73.2312 53.6877 73.5517 54.0101 73.7119 54.3325C74.0324 54.655 74.1927 54.9774 74.5132 55.9448C74.6734 56.2672 74.6734 56.7509 74.6734 57.0734C74.6734 57.7183 74.5132 58.3632 74.3529 58.8468L74.3528 58.8469C74.1926 59.0081 74.0324 59.1693 74.0324 59.3305C73.8722 59.4917 73.8722 59.4917 73.8722 59.4917L73.071 58.6856C72.9909 58.5244 72.8707 58.3632 72.7505 58.2019C72.6303 58.0407 72.5101 57.8795 72.43 57.7183C72.2698 57.3958 72.1095 57.0733 71.9493 56.5897C71.789 56.106 71.789 55.7836 71.789 55.4611C71.789 54.8162 71.789 54.3326 71.9493 53.8489C71.9493 53.6858 71.9675 53.541 71.9917 53.4207C71.945 53.5048 71.8799 53.5962 71.789 53.6877C71.6876 53.7898 71.5861 53.908 71.4795 54.0322C71.2495 54.3003 70.9958 54.5959 70.6673 54.8162L69.7059 55.2999C69.2251 55.4611 68.7444 55.4611 68.4239 55.4611C68.1593 55.4611 67.9432 55.4123 67.7489 55.3683C67.5903 55.3325 67.4463 55.2999 67.3022 55.2999C66.6612 55.1387 66.1805 54.9774 66.1805 54.9774C66.1805 54.9774 66.3408 54.9775 66.3408 54.8162C66.4398 54.8162 66.4776 54.7547 66.5299 54.6696C66.5622 54.617 66.6 54.5554 66.6612 54.4938L66.6614 54.4937C66.9818 54.1713 67.3023 53.8488 67.7829 53.5264C67.9432 53.3652 68.2635 53.2041 68.5839 53.0429L68.5842 53.0428C68.9046 52.8816 69.3854 52.7203 69.7059 52.7203H70.8276C71.4685 52.7203 71.9493 52.8815 71.9493 52.8815C71.9493 52.8815 72.43 53.0428 72.9107 53.5264ZM63.1358 65.6184C63.1358 65.6184 62.8153 65.296 62.1743 64.9735C61.5333 64.6511 60.8924 64.3286 59.9309 64.1674H58.9694C58.3284 64.3286 57.8477 64.4899 57.5272 64.6511L56.8862 64.9735L57.6875 65.7797C58.1682 66.2633 58.9694 66.5858 59.7706 66.747H60.7321C61.3731 66.5858 61.8538 66.4246 62.1743 66.1021C62.5255 66.0315 62.7535 65.9608 62.8989 65.8901C62.8127 65.9999 62.7205 66.1316 62.655 66.2633C62.3345 66.5858 62.0141 67.0695 61.8538 67.5532C61.6936 67.8756 61.5333 68.1981 61.5333 68.5205C61.3731 69.3266 61.5333 70.294 61.6936 70.9389C61.8538 71.5838 62.1743 72.0674 62.1743 72.0674C62.1743 72.0674 62.4948 71.9062 62.8153 71.5838L62.8153 71.5837C63.1358 71.2613 63.6165 70.7776 63.937 70.1328C64.0972 69.8103 64.2575 69.4878 64.2575 69.0042C64.389 68.2104 64.1968 67.5252 64.035 66.9486C63.9997 66.8224 63.9658 66.7015 63.937 66.5858C63.4563 66.1021 63.1358 65.6184 63.1358 65.6184ZM65.8598 61.4265C66.3405 61.5877 66.8212 61.9102 66.8212 61.9102C66.661 61.9102 66.3405 62.2326 66.1803 62.7163L65.2188 63.2L65.2187 63.2C64.8982 63.3612 64.5778 63.5224 64.0971 63.5224H63.4561C63.2684 63.5224 63.1356 63.4671 63.0257 63.4213C62.9479 63.3889 62.8815 63.3612 62.8151 63.3612L61.8537 62.8776C61.2127 62.5551 60.8922 62.2326 60.8922 62.2326C60.8922 62.2326 60.8922 62.2327 61.0525 62.0714C61.1515 62.0714 61.2505 62.0098 61.3874 61.9247C61.472 61.8721 61.571 61.8106 61.6934 61.749C61.8536 61.5878 62.174 61.4266 62.4944 61.2654L62.4947 61.2653C62.5748 61.2653 62.6549 61.225 62.735 61.1847C62.8151 61.1444 62.8953 61.1041 62.9754 61.1041C63.1356 60.9428 63.4561 60.9428 63.6164 60.9428C64.4176 60.9428 65.2188 61.104 65.8598 61.4265ZM66.8212 61.9102C66.8212 61.9102 67.1417 62.2326 67.4622 62.7163C67.7827 63.2 68.1032 64.0061 68.1032 64.9735V65.6184C68.1032 65.699 68.0631 65.8199 68.0231 65.9408C67.983 66.0617 67.943 66.1826 67.943 66.2632C67.7827 66.7469 67.6225 67.0694 67.4622 67.3918C67.3821 67.4724 67.302 67.5933 67.2219 67.7142L67.2219 67.7143C67.1417 67.8352 67.0616 67.9561 66.9815 68.0367L66.661 68.3592C66.661 68.3592 66.3405 68.0367 66.02 67.3918C65.9399 67.2306 65.8998 67.0291 65.8598 66.8275C65.8197 66.626 65.7797 66.4245 65.6995 66.2632C65.5393 66.102 65.5393 65.7796 65.5393 65.6184V64.9735V64.9734C65.5393 64.6509 65.5393 64.1673 65.6995 63.8449L66.1803 62.8776L66.8212 61.9102ZM70.6672 58.3628L69.866 57.5566C69.866 57.5566 69.8002 57.5346 69.6849 57.4986C69.7057 57.4368 69.7057 57.3954 69.7057 57.3954C69.7057 57.3954 69.6714 57.4299 69.6345 57.483C69.4331 57.421 69.1156 57.3276 68.7443 57.2342C68.1033 57.073 67.3021 56.9118 66.5008 57.073C65.7856 57.2169 65.198 57.6178 64.7382 57.9316L64.7379 57.9317C64.6828 57.9694 64.6294 58.0058 64.5779 58.0403C64.5245 58.0941 64.4533 58.1478 64.3821 58.2016C64.2396 58.309 64.0972 58.4165 64.0972 58.524C63.9369 58.6852 63.937 58.6852 63.937 58.6852C63.937 58.6852 64.4177 59.0076 64.8984 59.1689C65.5394 59.4913 66.3406 59.6526 67.1418 59.4913C67.6226 59.4913 67.943 59.3301 68.2635 59.0076C68.584 58.8464 68.9045 58.524 69.0648 58.3628L69.0648 58.3627C69.1562 58.2707 69.2998 58.1263 69.4062 57.9893C69.394 58.0288 69.3824 58.0703 69.3704 58.1135C69.3347 58.2412 69.2952 58.3826 69.225 58.524C69.135 58.705 69.0955 58.8861 69.0499 59.0957C69.0142 59.2594 68.9748 59.4405 68.9045 59.6526C68.9045 59.7502 68.8898 59.8626 68.8738 59.9853C68.8368 60.2679 68.7928 60.6051 68.9045 60.9423C69.0647 61.9097 69.3852 62.5546 69.7057 63.1995C70.0262 63.8444 70.3467 64.1668 70.3467 64.1668C70.3467 64.1668 70.5069 64.0056 70.5069 63.8444C70.6672 63.6831 70.8274 63.3607 70.9877 63.0382C71.3082 62.3933 71.6286 61.426 71.4684 60.6199C71.4684 59.5603 71.0446 58.9271 70.7276 58.4533L70.6854 58.3902L70.6672 58.3628ZM47.4319 70.7777C48.0728 71.1002 48.7138 71.9063 49.0343 72.39C49.2641 72.7367 49.3291 73.1664 49.3475 73.3818L49.3268 73.3855C48.9295 73.4564 48.0204 73.6187 47.1114 73.3573C46.7909 73.3573 46.4704 73.1961 46.15 73.0349L46.1499 73.0349C45.5089 72.5512 45.0282 71.9063 44.7077 71.2614C44.5475 70.6165 44.3872 70.1328 44.3872 70.1328H45.0282H45.6692H45.6694C45.9897 70.1328 46.15 70.1328 46.4704 70.294L47.4319 70.7777ZM49.3483 73.3916L49.3475 73.3818C49.4294 73.3672 49.487 73.3573 49.515 73.3573C49.4853 73.3573 49.428 73.3684 49.3483 73.3916ZM49.3483 73.3916C49.3548 73.4708 49.3548 73.5185 49.3548 73.5185V74.6471C49.3548 75.292 49.1945 76.0981 48.7138 76.9042C48.5536 77.2267 48.2331 77.5491 47.9126 77.7104C47.7523 77.8716 47.4319 78.0328 47.1114 78.1941C46.7909 78.3553 46.4704 78.5165 46.3102 78.5165C45.8294 78.6777 45.5089 78.6777 45.5089 78.6777C45.5089 78.6777 45.5089 78.194 45.6692 77.5491C45.8294 76.9042 46.1499 75.9369 46.6306 75.292C46.7441 75.1778 46.8375 75.0636 46.9251 74.9566L46.9252 74.9565C47.0848 74.7613 47.2249 74.59 47.4319 74.4859C48.215 73.8292 48.9982 73.4935 49.3483 73.3916ZM54.4826 71.5841L53.8416 70.6167C53.3609 70.133 52.7199 69.4881 52.0789 69.1657C51.7585 69.0045 51.2777 68.8432 50.9573 68.8432H49.9958C49.3548 68.8432 49.0343 69.0045 49.0343 69.0045C49.0343 69.0045 49.1946 69.4881 49.5151 69.9718C49.8356 70.4555 50.4765 71.1004 51.2777 71.5841C52.0789 71.9065 52.8802 71.9065 53.5211 71.7453C54.0019 71.7453 54.4826 71.5841 54.4826 71.5841ZM54.4826 71.5841C54.4826 71.5841 54.0019 71.7453 53.5211 72.2289C53.0404 72.5514 52.3994 73.1963 52.0789 74.0024C51.7329 74.5826 51.636 75.1628 51.5491 75.6829L51.549 75.683C51.5152 75.8855 51.4829 76.0788 51.438 76.2596C51.438 76.9044 51.5982 77.3881 51.5982 77.3881C51.5982 77.3881 52.079 77.2269 52.7199 76.9044C53.0404 76.7432 53.3608 76.4208 53.6813 76.0984L53.6814 76.0983L53.6815 76.0982C54.0019 75.7758 54.3224 75.4534 54.4826 74.9698C54.9633 74.1637 54.9633 73.1963 54.8031 72.5514C54.6428 71.9065 54.4826 71.5841 54.4826 71.5841ZM58.3287 68.0364L59.1299 68.8426C59.1299 68.8426 59.2901 69.3263 59.6106 70.1324C59.7709 70.7773 59.9311 71.7446 59.6106 72.5507C59.5728 72.6268 59.535 72.7118 59.4951 72.8016L59.495 72.8018C59.3658 73.0926 59.2145 73.433 58.9697 73.6793C58.8094 74.0017 58.4889 74.3242 58.1684 74.4854C57.5275 74.9691 57.0467 75.1303 57.0467 75.1303C57.0467 75.1303 56.8865 74.6466 56.7262 74.0017C56.566 73.3569 56.566 72.3895 56.8865 71.5834C56.9871 71.2798 57.1508 71.0397 57.2984 70.8233C57.3859 70.6949 57.4678 70.5748 57.5275 70.4548C57.6877 70.1324 58.0082 69.8099 58.1684 69.6487C58.4347 69.3808 58.701 69.1623 58.8856 69.0207C58.6829 69.138 58.3658 69.279 57.8479 69.4874C57.7816 69.4874 57.6602 69.5151 57.518 69.5475C57.3169 69.5934 57.0742 69.6487 56.8865 69.6487C56.566 69.6487 56.0853 69.6487 55.7648 69.4874C54.9636 69.165 54.3226 68.6813 53.8419 68.1977L53.2009 67.2303C53.2009 67.2303 53.5214 67.0691 54.1623 66.9079C54.3226 66.9079 54.4828 66.8676 54.6431 66.8273C54.8033 66.787 54.9636 66.7467 55.1238 66.7467C55.4443 66.7467 55.7648 66.7467 56.2455 66.9079C57.0467 67.0691 57.848 67.5528 58.3287 68.0364ZM33.9718 73.3582L33.9543 73.2876L33.9192 73.1428C33.773 72.5384 33.5991 71.8197 33.1705 71.1011C33.0904 70.9398 32.9702 70.8189 32.8501 70.698C32.7299 70.5771 32.6097 70.4562 32.5296 70.295C32.4495 70.2143 32.3293 70.1337 32.2091 70.0531C32.0889 69.9725 31.9687 69.8919 31.8886 69.8113C31.7284 69.6501 31.4079 69.4888 31.2476 69.4888L30.6067 69.1664C30.6067 69.1664 30.4464 69.6501 30.4464 70.295C30.4464 70.9398 30.6067 71.746 31.0874 72.5521C31.1675 72.7133 31.2877 72.8343 31.4079 72.9552C31.5281 73.0761 31.6482 73.197 31.7284 73.3582C31.8085 73.4389 31.9287 73.5195 32.0488 73.6001C32.169 73.6807 32.2892 73.7613 32.3693 73.8419C32.4494 73.9225 32.5696 73.9628 32.6898 74.0031C32.81 74.0434 32.9302 74.0838 33.0103 74.1644C33.4338 74.3064 33.6086 74.3233 33.7538 74.3253L33.7537 74.3256H33.0103H32.2091C31.8886 74.3256 31.5681 74.3256 31.4079 74.4868C31.0874 74.4868 30.767 74.648 30.4465 74.8092L30.4464 74.8093C29.6452 75.2929 29.0042 75.7766 28.6837 76.4215L28.0428 77.3889C28.0428 77.3889 28.3632 77.55 28.844 77.55H29.6452H29.6455C29.9659 77.55 30.2863 77.55 30.6067 77.3889C30.8412 77.3889 31.0758 77.3025 31.3732 77.193L31.3733 77.1929L31.3734 77.1929C31.4823 77.1528 31.5996 77.1096 31.7284 77.0664C32.5296 76.5827 33.0103 75.9378 33.3308 75.2929C33.5401 74.8718 33.681 74.5194 33.7537 74.3256H33.8114L33.7872 74.3255L33.7538 74.3253C33.7923 74.2225 33.8115 74.1644 33.8115 74.1644C33.8115 74.1644 34.132 74.0031 33.9718 73.3582ZM37.4968 71.342C37.6571 71.4629 37.8173 71.5839 37.9775 71.7451C38.3148 72.1975 38.5732 72.6499 38.8634 73.1581L38.8634 73.1581L38.8636 73.1585C38.987 73.3745 39.1161 73.6006 39.2595 73.841C39.4197 74.4859 39.4197 74.9696 39.4197 74.9696C39.4197 74.9696 39.2595 75.4532 39.0993 76.0981C38.939 76.743 38.6185 77.3879 37.8173 78.0328C37.0161 78.5165 36.2149 78.8389 35.4137 78.8389H34.1317C34.1317 78.8389 34.292 78.3552 34.6125 77.7103C34.6503 77.6532 34.6904 77.5916 34.7327 77.5266C35.0487 77.0408 35.4893 76.3634 36.0546 75.9369C36.2995 75.6905 36.6378 75.5383 36.9268 75.4083C37.0161 75.3681 37.1007 75.33 37.1763 75.292C37.4968 75.1308 37.8173 74.9696 38.1378 74.9696C38.7788 74.8083 39.2595 74.8083 39.2595 74.8083C39.2595 74.8083 38.7788 74.8083 38.1378 74.6471L37.1763 74.1634C37.0161 74.0022 36.8558 73.8813 36.6956 73.7604C36.5354 73.6395 36.3751 73.5185 36.2149 73.3573C35.619 72.7578 35.4386 72.0189 35.2874 71.3998C35.276 71.3529 35.2647 71.3068 35.2534 71.2614V70.1328L36.2149 70.4553C36.3751 70.6165 36.6956 70.7777 37.0161 70.939C37.1763 71.1002 37.3366 71.2211 37.4968 71.342ZM44.0672 73.5183C43.7467 72.8734 43.4262 72.2285 42.7852 71.5836C42.4647 71.2611 42.1443 71.0999 41.8238 70.9387C41.6635 70.8581 41.5033 70.8178 41.3431 70.7775C41.1828 70.7372 41.0226 70.6968 40.8623 70.6162C40.2213 70.455 39.9009 70.455 39.9009 70.455C39.9009 70.455 39.9008 70.9387 40.0611 71.5836C40.2213 72.2285 40.5418 73.0346 41.1828 73.5183C41.8238 74.0019 42.625 74.3244 43.266 74.3244H44.3877C44.3877 74.3244 43.9069 74.3244 43.266 74.6469C42.625 74.8081 41.984 75.1306 41.343 75.7755C40.8061 76.3157 40.494 76.9691 40.2185 77.5461L40.2182 77.5466C40.1649 77.6582 40.113 77.7669 40.0611 77.8714C39.9008 78.5163 39.7406 79 39.7406 79C39.7406 79 40.2213 79 41.0226 78.8387C41.343 78.8387 41.8238 78.6775 42.1443 78.355C42.4648 78.1938 42.9455 77.8713 43.266 77.5489C43.9069 76.904 44.2274 76.0979 44.2274 75.453C44.3877 74.8081 44.3877 74.3244 44.3877 74.3244C44.3877 74.3244 44.3877 74.0019 44.0672 73.5183ZM20.0303 67.392C19.7098 68.0369 19.5495 68.5206 19.5495 68.5206C19.5495 68.5206 18.5881 67.8757 17.9471 66.5859C17.7869 66.2635 17.6266 65.941 17.6266 65.6186C17.6266 64.8124 17.7869 64.0063 18.1074 63.3614C18.4279 62.7165 18.7483 62.3941 18.7483 62.3941C18.7483 62.3941 18.7483 62.5553 18.9086 62.5553C19.0076 62.5553 19.0454 62.6169 19.0977 62.702C19.13 62.7546 19.1679 62.8162 19.2291 62.8778C19.5496 63.2002 19.87 63.6839 20.0303 64.1675C20.1905 64.49 20.3508 64.8124 20.3508 65.1349C20.3508 65.941 20.1905 66.7471 20.0303 67.392ZM19.2012 68.3526C19.3801 68.4539 19.498 68.5206 19.5495 68.5206C19.5495 68.5206 19.2291 69.0043 18.5881 69.3267C18.1074 69.6492 17.3061 70.1329 16.3447 70.1329C16.0242 70.1329 15.5435 70.1329 15.223 69.9716C14.582 69.8104 14.1013 69.488 13.6206 69.1655C13.5404 69.0849 13.4603 69.0446 13.3802 69.0043C13.3001 68.964 13.2199 68.9237 13.1398 68.843C12.9796 68.6818 12.9796 68.6818 12.9796 68.6818C12.9796 68.6818 13.3001 68.3594 13.941 68.0369C14.4218 67.7145 15.3832 67.392 16.1845 67.392C16.4491 67.392 16.6652 67.4409 16.8594 67.4848C17.018 67.5207 17.1621 67.5533 17.3062 67.5533C18.1757 67.772 18.8241 68.1391 19.2012 68.3526ZM24.0365 71.2618C24.0365 71.2618 24.1967 70.7781 24.357 70.1332C24.5172 69.4883 24.5172 68.6822 24.357 67.876C24.1967 67.3924 24.0365 67.0699 23.8762 66.7475C23.7961 66.6669 23.7561 66.5863 23.716 66.5056C23.6759 66.425 23.6359 66.3444 23.5557 66.2638C23.4945 66.2022 23.4567 66.1406 23.4244 66.0881C23.3721 66.003 23.3343 65.9414 23.2353 65.9414C22.9148 65.4577 22.434 65.2965 22.434 65.2965C22.434 65.2965 22.2738 65.7801 21.9533 66.425C21.7931 67.0699 21.6328 67.876 21.7931 68.6822C21.9533 69.1658 22.1136 69.4883 22.2738 69.8107C22.4341 70.1332 22.7545 70.4556 22.9148 70.6169C23.5557 70.9393 24.0365 71.2618 24.0365 71.2618ZM24.0365 71.2618C24.0365 71.2618 23.5557 70.9393 22.9148 70.7781C22.7707 70.7781 22.6267 70.7455 22.4681 70.7097L22.468 70.7096C22.2737 70.6657 22.0577 70.6169 21.7931 70.6169H20.5111C19.7099 70.7781 18.9087 71.2618 18.4279 71.5842L17.6267 72.3903C17.6267 72.3903 18.1074 72.7128 18.7484 72.874C18.8285 72.874 18.9087 72.9143 18.9888 72.9546C19.0689 72.9949 19.149 73.0352 19.2292 73.0352C19.3093 73.0352 19.4295 73.0755 19.5497 73.1158C19.6698 73.1562 19.79 73.1965 19.8701 73.1965H21.1521C22.1135 73.0352 22.7545 72.5515 23.2353 72.0679C23.8762 71.7454 24.0365 71.2618 24.0365 71.2618ZM29.1642 72.0672C29.1642 72.7121 29.004 73.1958 29.004 73.1958C29.004 73.1958 28.6835 73.6795 28.5233 74.3244L28.5231 74.3245C28.0424 74.8082 27.4015 75.453 26.6004 75.7754C26.1198 75.9366 25.7993 75.9366 25.3188 75.9366H25.3184H25.3182C24.9977 75.9366 24.5171 75.9366 24.1967 75.7754C23.5558 75.6142 23.075 75.453 23.075 75.453C23.075 75.453 23.2353 74.9693 23.716 74.4856C24.1967 74.0019 24.8377 73.5183 25.6389 73.1958C25.7991 73.1958 25.9994 73.1555 26.1997 73.1152L26.1999 73.1152C26.4001 73.0749 26.6004 73.0346 26.7606 73.0346H27.8823C28.1865 73.0346 28.4546 73.0709 28.6523 73.109C28.4366 73.0303 28.1594 72.898 27.8823 72.7121C27.5618 72.5509 27.4016 72.3897 27.0811 72.0672C26.7606 71.7448 26.6004 71.4223 26.4401 71.0998C26.1196 70.2937 26.1196 69.4876 26.2799 68.8427C26.4401 68.1978 26.6004 67.7141 26.6004 67.7141C26.6004 67.7141 26.9209 67.8754 27.4016 68.1978C27.45 68.2465 27.5131 68.2952 27.5819 68.3484L27.5821 68.3485L27.5822 68.3487L27.5823 68.3487C27.7412 68.4714 27.9308 68.6179 28.0425 68.8427C28.363 69.1652 28.5233 69.4876 28.6835 69.8101C29.1642 70.6161 29.1642 71.4222 29.1642 72.0671V72.0672ZM8.01218 57.2351C8.39537 57.1387 8.72128 57.0423 8.92146 56.9804C8.95625 57.0389 8.97365 57.0739 8.97365 57.0739C8.97365 57.0403 8.96669 57.0067 8.95424 56.9702C9.06866 56.9345 9.13388 56.9126 9.13388 56.9126L9.9351 56.1065L9.93514 56.1065C10.0954 55.9452 10.4159 55.6228 10.5761 55.3004C10.6201 55.2118 10.6763 55.1231 10.7346 55.0311L10.7346 55.0311C10.8883 54.7884 11.0568 54.5225 11.0568 54.1718C11.2171 53.8494 11.2171 53.527 11.2171 53.2046V53.2045V53.2043C11.2171 52.5595 11.2171 52.0758 11.0568 51.7534C11.0568 51.6728 11.0168 51.5922 10.9767 51.5116C10.9366 51.431 10.8966 51.3504 10.8966 51.2698V51.1085C10.8966 51.1085 10.4158 51.2698 9.9351 51.7534C9.72814 51.8575 9.58801 52.0289 9.4284 52.224C9.34084 52.3311 9.24741 52.4453 9.13388 52.5595C8.81339 52.882 8.65316 53.2045 8.49292 53.6881C8.33267 54.0106 8.33266 54.333 8.33266 54.6555C8.33266 55.3003 8.4929 55.784 8.65313 56.2676L8.65317 56.2677C8.73329 56.5096 8.81341 56.6708 8.8735 56.7917C8.90856 56.8623 8.93679 56.9191 8.95424 56.9702L8.92146 56.9804C8.85065 56.8614 8.7078 56.6452 8.49292 56.429C8.39144 56.3269 8.28996 56.2086 8.18339 56.0844C7.95341 55.8164 7.69973 55.5207 7.37122 55.3004C7.26439 55.2466 7.15757 55.175 7.05074 55.1033C6.83708 54.96 6.62341 54.8167 6.40975 54.8167C6.30939 54.7831 6.21602 54.7494 6.12672 54.7172C5.78822 54.5952 5.50817 54.4943 5.12779 54.4943H4.00609C3.36512 54.4943 2.88439 54.6555 2.88439 54.6555L3.04465 54.8167C3.04465 54.9779 3.20486 55.1391 3.36509 55.3003L3.36513 55.3004C3.68561 55.7841 4.0061 56.2677 4.48683 56.7514C4.64706 56.832 4.80729 56.9529 4.96752 57.0738L4.96756 57.0738L4.96761 57.0739C5.12784 57.1948 5.28807 57.3157 5.4483 57.3963C5.54843 57.4299 5.64162 57.4634 5.73074 57.4956L5.73114 57.4957L5.73135 57.4958C6.06983 57.6178 6.34986 57.7187 6.73023 57.7187C7.02539 57.5208 7.32056 57.4443 7.57864 57.3775C7.74088 57.3355 7.88847 57.2973 8.01218 57.2351ZM11.8578 61.4275C11.8578 61.4275 11.5373 61.75 10.8963 61.9112C10.2554 62.0724 9.45415 62.2336 8.65294 62.2336C8.26167 62.2336 7.87041 62.02 7.56554 61.8536L7.56542 61.8535L7.56465 61.8531L7.56395 61.8527L7.56294 61.8522C7.4942 61.8147 7.42989 61.7796 7.37098 61.7499C6.89025 61.4275 6.73 61.2663 6.40951 60.9438C5.92878 60.4601 5.60829 59.9765 5.60829 59.9765C5.60829 59.9765 6.08902 59.8153 6.72999 59.654C7.37097 59.4928 8.33243 59.4928 9.13365 59.654C10.5968 60.0555 11.5079 61.0125 11.867 61.4183L11.8578 61.4275ZM11.9308 61.354C12.018 61.4812 12.018 61.5887 12.018 61.5887C12.0007 61.5713 11.974 61.5406 11.9379 61.4992C11.9173 61.4756 11.8937 61.4485 11.867 61.4183L11.9308 61.354ZM11.9308 61.354L12.659 60.6214C12.9795 60.1377 13.4602 59.3316 13.6205 58.5255V57.3969C13.6205 57.2356 13.5804 57.0744 13.5404 56.9132C13.5003 56.752 13.4602 56.5908 13.4602 56.4296L13.1397 55.4622L12.3385 56.2683C11.8578 56.752 11.3771 57.3969 11.2168 58.3642C11.0566 59.1703 11.2168 59.9765 11.5373 60.6214C11.5985 60.7445 11.6597 60.8442 11.712 60.9293C11.7966 61.067 11.8578 61.1666 11.8578 61.2663C11.8872 61.2959 11.9112 61.3255 11.9308 61.354ZM14.582 65.9409C15.2229 65.6185 15.5434 65.296 15.5434 65.296C15.5434 65.296 15.6 65.2391 15.6894 65.1252L15.7037 65.1348L15.6915 65.1226C15.8148 64.9651 15.9996 64.7005 16.1844 64.3287L16.6651 63.3613C16.6651 63.2945 16.6926 63.2278 16.7248 63.1495C16.7704 63.0389 16.8254 62.9053 16.8254 62.7164V62.0715V62.0714C16.8254 61.5878 16.8254 61.2654 16.6651 60.943C16.585 60.7817 16.5449 60.6205 16.5049 60.4593C16.4648 60.298 16.4247 60.1368 16.3446 59.9756C16.2834 59.8524 16.2222 59.7528 16.1699 59.6677C16.0853 59.53 16.0241 59.4304 16.0241 59.3307L15.8948 59.2006L15.8639 59.1695L15.0627 59.9756C14.7422 60.4593 14.2615 61.2654 14.2615 62.0715V62.7164C14.2615 62.7971 14.3015 62.8777 14.3416 62.9583C14.3816 63.0389 14.4217 63.1195 14.4217 63.2001L14.9024 64.1674C15.215 64.6392 15.5276 64.9576 15.6915 65.1226L15.6894 65.1252L14.7422 64.4899L13.7807 64.0062C13.7144 64.0062 13.648 63.9786 13.5702 63.9461C13.4602 63.9003 13.3275 63.845 13.1397 63.845C13.0734 63.845 13.007 63.8173 12.9292 63.7849C12.8193 63.7391 12.6865 63.6838 12.4988 63.6838C11.8143 63.5461 11.0128 63.7613 10.3941 63.9275L10.3941 63.9275C10.2886 63.9558 10.1885 63.9827 10.0951 64.0062C9.45415 64.1674 9.13365 64.4899 9.13365 64.4899C9.13365 64.4899 9.2939 64.6511 9.2939 64.8123L9.93487 65.4572C10.0951 65.5378 10.2554 65.6588 10.4156 65.7797L10.4157 65.7798C10.5759 65.9007 10.7361 66.0216 10.8963 66.1022C11.2168 66.2634 11.6976 66.4246 12.1783 66.4246H12.8193C12.9795 66.4246 13.3 66.4246 13.4603 66.2634C13.941 66.2634 14.2615 66.1022 14.582 65.9409ZM1.92286 46.2713C2.56383 46.9161 3.5253 47.0774 4.16628 47.0774H5.12772H5.28798C5.28798 47.0774 5.76872 46.9162 6.24945 46.5937C6.89042 46.2713 7.53138 45.7876 8.01211 45.1427C8.39488 44.6292 8.57447 44.0135 8.71266 43.5398C8.74802 43.4185 8.78067 43.3066 8.81333 43.208V42.8856V42.5631V42.2407C8.81333 42.2407 8.3326 42.2407 7.69163 42.5631L6.73016 43.0468C6.40969 43.208 6.08924 43.5304 5.76878 43.8528L5.76871 43.8529C5.44823 44.1754 5.28798 44.4978 5.28798 44.9815C5.12773 45.3039 5.12772 45.6264 5.12772 45.9488V46.755V47.0774C5.12772 47.0774 5.12774 46.9162 4.96749 46.755C4.96749 46.5937 4.80726 46.2713 4.64701 45.9488L4.16628 44.9815C4.00603 44.659 3.68555 44.3366 3.36506 44.0141C3.04457 43.6917 2.72409 43.5305 2.24336 43.3693C1.92287 43.208 1.44212 43.0468 1.12164 43.0468C0.480664 42.8856 -6.10352e-05 42.8856 -6.10352e-05 42.8856V43.208V43.5305C-6.10352e-05 43.6111 0.0400023 43.6917 0.0800656 43.7723C0.120129 43.8529 0.160192 43.9335 0.160192 44.0141C0.395274 44.3098 0.6088 44.6054 0.816581 44.8931C1.17534 45.3899 1.51696 45.8629 1.92286 46.2713ZM6.73031 52.2365C6.73031 52.2365 6.24958 52.3977 5.60861 52.3977C4.96763 52.3977 4.16641 52.2365 3.52544 51.7528C3.20498 51.5916 2.88454 51.2692 2.56408 50.9468L2.56399 50.9467C2.24351 50.6242 2.08325 50.3018 1.92301 49.9794C1.92301 49.8988 1.88295 49.8181 1.84289 49.7375C1.80283 49.6569 1.76278 49.5763 1.76278 49.4957L1.76266 49.4955C1.60253 49.3344 1.60252 49.3344 1.60252 49.1732C1.44228 49.012 1.4423 48.8508 1.4423 48.8508H2.56399C2.88448 48.8508 3.36521 48.8508 3.68569 49.012C3.93053 49.012 4.26889 49.2002 4.55788 49.3609L4.55793 49.3609L4.55868 49.3614L4.55893 49.3615L4.55927 49.3617L4.55965 49.3619L4.55975 49.362C4.64835 49.4112 4.73227 49.4579 4.80739 49.4957C5.16393 49.6152 5.34419 49.8235 5.54428 50.0547C5.61397 50.1352 5.68607 50.2185 5.76886 50.3018C6.08933 50.463 6.24956 50.7854 6.4098 51.1079L6.40982 51.1079C6.47672 51.2425 6.53663 51.3701 6.58956 51.4877C6.57706 51.3701 6.57008 51.2425 6.57008 51.1079V49.9794C6.57008 49.6569 6.73032 49.1732 6.89056 48.8508C7.0508 48.6896 7.17098 48.5283 7.29117 48.3671C7.41135 48.2059 7.53153 48.0446 7.69178 47.8834C8.01223 47.561 8.33269 47.3998 8.65315 47.2386L8.65324 47.2385C9.13398 46.9161 9.61469 46.7549 9.61469 46.7549V47.0773V47.3998V47.7222C9.61469 47.8834 9.57463 48.0446 9.53458 48.2059C9.49452 48.3671 9.45446 48.5283 9.45446 48.6895C9.45446 49.012 9.2942 49.4957 9.13396 49.8181C8.87594 50.4671 8.4102 50.9071 7.98759 51.3064C7.88527 51.4031 7.78548 51.4973 7.69178 51.5916C7.36978 51.9156 7.04777 52.0949 6.87024 52.178C6.88378 52.2161 6.89056 52.2365 6.89056 52.2365C6.86555 52.2365 6.84053 52.2247 6.81613 52.2024C6.76157 52.226 6.73031 52.2365 6.73031 52.2365ZM3.68551 30.3109C3.36502 29.9884 3.04454 29.666 2.88429 29.1823C2.56381 28.6986 2.56381 28.3762 2.56381 27.5701V27.5701V26.4415C2.56381 26.2526 2.61879 26.0637 2.66434 25.9073C2.69655 25.7966 2.72404 25.7022 2.72404 25.6354C2.88428 25.4742 2.88429 25.3129 2.88429 25.3129C2.88429 25.3129 3.36503 25.4741 3.84576 25.9578C4.32649 26.4415 4.96746 27.0864 5.28795 27.8925C5.44819 28.215 5.60843 28.6987 5.60843 29.0211V30.1496C5.60843 30.4557 5.57235 30.7254 5.53443 30.9243C5.61268 30.7073 5.74417 30.4285 5.92891 30.1496C5.99528 30.0829 6.06166 29.9884 6.13942 29.8778L6.13943 29.8778C6.24941 29.7213 6.38216 29.5324 6.5699 29.3435L6.56999 29.3434C6.89045 29.021 7.21089 28.6986 7.53135 28.5374C8.33249 28.215 9.13365 28.215 9.7746 28.215H9.77477C10.4157 28.215 10.8965 28.3762 10.8965 28.3762C10.8965 28.3762 10.8965 28.5374 10.7362 28.6986C10.7362 28.7983 10.675 28.8979 10.5904 29.0356L10.5904 29.0356L10.5904 29.0357C10.5381 29.1208 10.4769 29.2204 10.4157 29.3435C10.2555 29.666 10.0953 29.8272 9.77477 30.1496C9.61453 30.2303 9.45428 30.3512 9.29403 30.4721L9.29401 30.4721C9.13377 30.593 8.97354 30.7139 8.8133 30.7945C8.60783 31.0013 8.3365 31.0755 8.08376 31.1446C7.94228 31.1833 7.80662 31.2204 7.6916 31.2782C7.21087 31.4395 6.89039 31.4395 6.5699 31.4395H5.4482L4.48673 30.9558C4.42037 30.889 4.32654 30.8223 4.21661 30.744L4.21657 30.744L4.21654 30.744L4.21651 30.744C4.06098 30.6333 3.87325 30.4998 3.68551 30.3109ZM1.36196 34.1789L1.36198 34.179L1.362 34.179C1.44212 34.3805 1.52224 34.582 1.60235 34.8238C1.7626 34.9851 1.88278 35.1463 2.00296 35.3075C2.12314 35.4687 2.24333 35.63 2.40357 35.7912C2.72406 36.1136 3.04456 36.2749 3.36504 36.2749C3.78361 36.4855 4.13383 36.5585 4.32649 36.5838V36.5973L4.33072 36.5844C4.43046 36.5973 4.48674 36.5973 4.48674 36.5973C4.48674 36.5973 4.96747 36.5973 5.60845 36.4361C5.92893 36.4361 6.24943 36.2749 6.56992 36.1137C6.64558 36.0756 6.73017 36.0375 6.81948 35.9973C7.10846 35.8673 7.44679 35.7151 7.69162 35.4688C7.80515 35.3545 7.91868 35.2606 8.02509 35.1725C8.21906 35.0119 8.38936 34.8709 8.49284 34.6627C8.65308 34.3402 8.81333 34.0178 8.97357 33.8565L9.29406 32.8892H8.17236C7.53138 32.8892 6.73015 33.0504 5.92893 33.6953C5.8154 33.8095 5.70187 33.9035 5.59546 33.9916C5.40149 34.1522 5.23119 34.2932 5.12771 34.5014L4.647 35.4688C4.50203 36.0522 4.35705 36.5036 4.33072 36.5844L4.32649 36.5838V35.4688C4.32649 35.3238 4.29412 35.1789 4.25847 35.0193C4.21482 34.8239 4.16626 34.6064 4.16626 34.3402C4.08614 34.179 4.00602 33.9774 3.92589 33.7759C3.84577 33.5744 3.76565 33.3728 3.68553 33.2116C3.20479 32.4055 2.56381 31.9218 1.92283 31.5994L0.961386 31.1157C0.961386 31.1157 0.801133 31.5994 0.801133 32.4055C1.12162 32.7279 1.12162 33.2116 1.12162 33.5341C1.20173 33.7759 1.28185 33.9774 1.36196 34.1789ZM12.3385 17.4113C12.3385 17.4113 12.8193 17.7337 13.3 17.8949C13.941 18.2174 14.7422 18.3786 15.5434 18.3786C15.7037 18.3786 16.0242 18.3786 16.1844 18.2174C16.2645 18.2174 16.3446 18.1771 16.4248 18.1368C16.5049 18.0965 16.585 18.0562 16.6651 18.0562L17.6266 17.5725C17.749 17.5109 17.848 17.4494 17.9326 17.3967C18.0695 17.3116 18.1685 17.2501 18.2676 17.2501C18.4278 17.0888 18.4278 17.0888 18.4278 17.0888C18.4278 17.0888 18.1073 16.7664 17.4664 16.4439L16.5049 15.9603C16.4385 15.9603 16.3721 15.9326 16.2944 15.9002C16.1844 15.8544 16.0517 15.799 15.8639 15.799H15.2229C14.7422 15.799 14.4218 15.9603 14.1013 16.1215L14.1012 16.1215L13.1398 16.6052C12.9104 16.759 12.7174 16.9129 12.5784 17.0493L12.9795 16.4439L13.4603 15.4766C13.6205 15.1542 13.6205 14.6706 13.6205 14.3481V14.348V13.7032V13.7031C13.6205 13.5419 13.6205 13.2194 13.4603 13.0582C13.3801 12.897 13.3401 12.6955 13.3 12.494C13.2599 12.2924 13.2199 12.0909 13.1398 11.9297C12.8193 11.2848 12.4988 10.9623 12.4988 10.9623L12.1783 11.2848C12.0982 11.3654 12.0181 11.4863 11.9379 11.6072C11.8578 11.7282 11.7777 11.8491 11.6976 11.9297L11.6975 11.9299C11.5373 12.2523 11.377 12.5747 11.2168 13.0582C11.2168 13.1388 11.1768 13.2598 11.1367 13.3807C11.0967 13.5016 11.0566 13.6225 11.0566 13.7032V14.348C11.0566 15.3154 11.3771 16.1215 11.6976 16.6052C12.0181 17.0888 12.3385 17.4113 12.3385 17.4113ZM9.29413 21.766L8.49291 20.9599C8.01218 20.4762 7.69169 19.6701 7.69169 18.8639C7.53145 18.0578 7.85194 17.0905 8.17243 16.4456C8.33267 16.1231 8.49292 15.8007 8.65316 15.6394C8.65316 15.4782 8.81339 15.317 8.81339 15.317C8.81339 15.317 9.13389 15.6394 9.45438 16.2843C9.77487 16.9292 10.0954 17.5742 10.2556 18.5415C10.3673 18.8788 10.3233 19.216 10.2863 19.4986C10.2703 19.6213 10.2556 19.7337 10.2556 19.8313C10.1755 19.9925 10.1354 20.1538 10.0953 20.315C10.0553 20.4762 10.0152 20.6374 9.93509 20.7987C9.86483 20.94 9.82538 21.0814 9.78972 21.2092C9.77769 21.2523 9.76609 21.2939 9.75389 21.3334C9.86033 21.1964 10.0039 21.0519 10.0953 20.96L10.0953 20.9599L10.0955 20.9598C10.2557 20.7985 10.5762 20.4761 10.8966 20.315C11.2171 19.9925 11.5375 19.8313 12.0183 19.8313C12.8195 19.6701 13.6207 19.8313 14.2617 20.1538C14.7424 20.315 15.2231 20.6374 15.2231 20.6374C15.2231 20.6374 15.2231 20.6374 15.1971 20.6636L15.0629 20.7987C15.0629 20.9061 14.9205 21.0136 14.778 21.1211L14.778 21.1211C14.7068 21.1748 14.6356 21.2286 14.5822 21.2823C14.5308 21.3168 14.4776 21.3531 14.4225 21.3907L14.4219 21.3911C13.962 21.7048 13.3745 22.1057 12.6593 22.2497C11.858 22.4109 11.0568 22.2497 10.4158 22.0884C10.0445 21.995 9.72701 21.9017 9.52555 21.8396C9.48869 21.8927 9.45438 21.9272 9.45438 21.9272C9.45438 21.9272 9.45439 21.8858 9.47523 21.824C9.3599 21.7881 9.29413 21.766 9.29413 21.766ZM25.3182 8.70639L24.6773 7.73903L24.3568 6.77168C24.1965 6.12678 24.1965 5.15944 24.6773 4.35332C24.8375 3.86969 25.158 3.54728 25.4784 3.22486L25.4785 3.22478L25.4786 3.22469C25.799 2.90227 26.1195 2.57987 26.4399 2.41866C27.0809 2.09621 27.5616 1.93496 27.5616 1.93496C27.5616 1.93496 27.7219 2.41865 27.7219 3.06355C27.677 3.24429 27.6447 3.43769 27.6108 3.64021C27.5239 4.16029 27.4269 4.74048 27.0809 5.32067C26.7604 6.12679 26.1195 6.7717 25.6387 7.09415C25.4266 7.30752 25.2146 7.45814 25.0438 7.55985C25.24 7.48564 25.5023 7.41657 25.799 7.41657C26.44 7.25534 27.2412 7.25535 28.0424 7.5778C28.8436 8.06147 29.4846 8.70637 29.8051 9.19004C30.1256 9.67371 30.2858 10.1574 30.2858 10.1574C30.2858 10.1574 29.9653 10.3186 29.3243 10.3186H28.3629C28.0424 10.3186 27.5617 10.1574 27.2412 9.99616C26.4399 9.83494 25.799 9.19006 25.3182 8.70639ZM20.0301 10.3182L20.8313 11.1244C21.312 11.608 22.1133 12.0917 22.9145 12.2529C23.3952 12.4141 23.7157 12.4141 24.0362 12.4141C24.1964 12.4141 24.3567 12.3738 24.5169 12.3335C24.6772 12.2932 24.8374 12.2529 24.9977 12.2529C25.6386 12.0917 25.9591 11.9305 25.9591 11.9305L25.3182 10.9631C24.8374 10.4794 24.1964 9.99579 23.3952 9.67334C23.0747 9.51212 22.594 9.51211 22.2735 9.51211C22.0858 9.51211 21.8431 9.56744 21.642 9.61327C21.4998 9.64568 21.3784 9.67334 21.312 9.67334C20.8588 9.85576 20.5593 10.0382 20.3558 10.1622C20.1995 10.2574 20.0997 10.3182 20.0301 10.3182ZM20.0301 10.3182C20.0301 10.3182 20.5108 9.99578 20.9916 9.51211C21.1518 9.35088 21.4723 9.02843 21.6325 8.70598C21.6766 8.61734 21.7327 8.52869 21.791 8.43669C21.9448 8.19405 22.1133 7.9281 22.1133 7.57739C22.4338 6.77126 22.4338 5.80391 22.2735 5.15901C22.1133 4.51411 21.953 4.03047 21.953 4.03047C21.953 4.03047 21.4723 4.19168 20.8313 4.67536C20.5108 4.83658 20.1903 5.15903 20.0301 5.48148C19.7853 5.72781 19.6339 6.06822 19.5047 6.35897C19.4648 6.44881 19.4269 6.53391 19.3891 6.61003C19.0686 7.41615 19.2289 8.3835 19.3891 9.0284C19.8699 9.83453 20.0301 10.3182 20.0301 10.3182ZM45.241 6.18051C45.2232 6.10696 45.2058 6.03511 45.1884 5.96515C45.0282 5.32026 45.3487 5.15904 45.3487 5.15904C45.3487 5.15904 45.368 5.10091 45.4065 4.99808C45.5516 5.0001 45.7264 5.01702 46.1499 5.15904C46.23 5.23965 46.3502 5.27996 46.4704 5.32027C46.5906 5.36058 46.7108 5.4009 46.7909 5.48151C46.871 5.56212 46.9912 5.64272 47.1114 5.72333C47.2316 5.80394 47.3517 5.88454 47.4319 5.96515C47.512 6.12638 47.6322 6.24729 47.7523 6.36821C47.8725 6.48913 47.9927 6.61004 48.0728 6.77126C48.5536 7.57738 48.7138 8.38348 48.7138 9.02837C48.7138 9.67326 48.5536 10.1569 48.5536 10.1569L47.9126 9.83448C47.7524 9.83448 47.4319 9.67329 47.2716 9.51206C47.1915 9.43145 47.0713 9.35083 46.9511 9.27021C46.8309 9.1896 46.7108 9.10898 46.6306 9.02837C46.5505 8.86714 46.4303 8.74623 46.3102 8.62531C46.19 8.50439 46.0698 8.38348 45.9897 8.22226C45.5611 7.50359 45.3872 6.78493 45.241 6.18051ZM45.4066 4.99781L45.4065 4.99808C45.3869 4.99781 45.3678 4.99781 45.3487 4.99781H45.4066ZM45.4066 4.99781C45.4792 4.80398 45.6202 4.45163 45.8294 4.03052C46.1499 3.38563 46.6306 2.74073 47.4319 2.25706C47.5607 2.21385 47.678 2.17064 47.7869 2.13053C48.0844 2.02099 48.319 1.9346 48.5536 1.9346C48.8741 1.77337 49.1945 1.77336 49.515 1.77336H50.3162C50.797 1.77336 51.1175 1.9346 51.1175 1.9346L50.4765 2.90194C50.156 3.54683 49.515 4.0305 48.7138 4.51416C48.5536 4.59477 48.3933 4.63508 48.2331 4.67539C48.0728 4.7157 47.9126 4.75602 47.7523 4.83663C47.4319 4.99781 47.2717 4.99781 46.9514 4.99781H46.9511H46.1499H45.4066ZM41.1826 7.57758C41.3428 7.7388 41.5031 7.85972 41.6633 7.98064C41.8235 8.10156 41.9838 8.22248 42.144 8.3837L43.1055 8.8674L44.067 9.18982V8.06128C44.0557 8.01593 44.0444 7.96977 44.033 7.92293L44.0329 7.92279L44.0329 7.92276C43.8818 7.30365 43.7013 6.56482 43.1055 5.96534C42.9453 5.80413 42.785 5.68322 42.6248 5.56231L42.6248 5.56228L42.6247 5.56225C42.4645 5.44134 42.3043 5.32043 42.144 5.15922L41.1826 4.67557C40.5416 4.51435 40.0609 4.51434 40.0609 4.51434C40.0609 4.51434 40.5416 4.51433 41.1826 4.3531C41.503 4.3531 41.8235 4.19191 42.144 4.03068C42.2197 3.99263 42.3042 3.95458 42.3935 3.91441C42.6825 3.78436 43.0209 3.6321 43.2657 3.38575C43.8311 2.95914 44.2718 2.2817 44.5878 1.79591L44.588 1.79557C44.6302 1.73072 44.6702 1.66929 44.7079 1.61233C45.0284 0.967431 45.1887 0.483739 45.1887 0.483739H43.9067C43.1055 0.483739 42.3043 0.806187 41.5031 1.28986C40.7019 1.93475 40.3814 2.57967 40.2211 3.22456C40.0609 3.86946 39.9006 4.3531 39.9006 4.3531C39.9006 4.3531 39.9006 4.83679 40.0609 5.48169C40.2211 6.12658 40.5416 6.93268 41.1826 7.57758ZM59.6104 10.6407C59.6104 10.6407 59.4502 11.1243 59.1297 11.7692C58.9695 12.4141 58.8092 13.2202 58.8092 14.0264C58.8092 14.3488 58.9694 14.6712 59.1297 14.9936L59.1297 14.9937C59.29 15.4774 59.6105 15.961 59.9309 16.2835C59.9921 16.3451 60.03 16.4067 60.0623 16.4593C60.1146 16.5444 60.1524 16.6059 60.2514 16.6059C60.4117 16.7672 60.4116 16.7672 60.4116 16.7672C60.4116 16.7672 60.7321 16.4447 61.0526 15.7998C61.3731 15.1549 61.5334 14.3488 61.5334 13.5427C61.5334 13.2203 61.3731 12.8979 61.2129 12.5754L61.2129 12.5754C60.5719 11.4468 59.6104 10.6407 59.6104 10.6407ZM59.6104 10.6407C59.662 10.6407 59.7799 10.7074 59.9588 10.8087C60.3359 11.0222 60.9843 11.3893 61.8538 11.608C61.9979 11.608 62.1419 11.6406 62.3006 11.6764C62.4948 11.7204 62.7109 11.7692 62.9755 11.7692C63.7768 11.7692 64.7382 11.4468 65.2189 11.1244C65.8599 10.8019 66.1804 10.4795 66.1804 10.4795L66.0201 10.3182C65.94 10.2376 65.8599 10.1973 65.7798 10.157C65.6997 10.1167 65.6196 10.0764 65.5394 9.99577C65.0587 9.67332 64.578 9.35087 63.937 9.18965C63.6165 9.02842 63.1358 9.02841 62.8153 9.02841C61.8538 9.02841 61.0526 9.51208 60.5719 9.83453C59.9309 10.3182 59.6104 10.6407 59.6104 10.6407ZM54.8032 9.02869C54.9634 8.38379 55.1237 7.90015 55.1237 7.90015C55.1237 8.03672 55.4687 8.17329 56.0612 8.40788L56.0615 8.40799C56.1684 8.4503 56.2833 8.49578 56.4056 8.54504L56.4057 8.54508C56.5659 8.70633 56.8864 9.02874 57.0466 9.35116C57.2069 9.67361 57.3671 9.99608 57.5274 10.4798C57.6876 11.2859 57.5274 12.092 57.3671 12.7369C57.0466 13.3818 56.8864 13.8654 56.8864 13.8654C56.8864 13.8654 56.4056 13.7042 56.0852 13.2206C55.9861 13.2206 55.9483 13.159 55.896 13.0739C55.8637 13.0213 55.8259 12.9597 55.7647 12.8981C55.6846 12.8175 55.6445 12.7369 55.6044 12.6563C55.5644 12.5757 55.5243 12.495 55.4442 12.4144L55.4441 12.4142C55.2839 12.0918 55.1237 11.7694 54.9635 11.2859C54.643 10.4798 54.643 9.67359 54.8032 9.02869ZM55.1237 7.90015C55.1237 7.90015 55.284 7.57769 55.9249 7.09402C56.4057 6.61034 57.0466 6.12665 58.0081 5.96543H59.29C59.3702 5.96543 59.4904 6.00573 59.6105 6.04604C59.7307 6.08635 59.8509 6.12666 59.931 6.12666C60.0112 6.12666 60.0913 6.16697 60.1714 6.20728C60.2515 6.24759 60.3316 6.2879 60.4117 6.2879C61.0527 6.44912 61.5335 6.77155 61.5335 6.77155L60.7323 7.57768C60.2515 7.90013 59.4503 8.38381 58.6491 8.54504H57.3671C57.1025 8.54504 56.8864 8.49617 56.6921 8.45224C56.5335 8.41638 56.3895 8.3838 56.2454 8.3838C55.6044 8.22258 55.1237 7.90015 55.1237 7.90015ZM50.1563 5.96536C50.1563 5.96536 49.9961 6.44905 49.9961 7.09394C49.9961 7.73884 49.9961 8.54495 50.4768 9.35107C50.6371 9.67351 50.7973 9.99597 51.1178 10.3184C51.2295 10.5432 51.4191 10.6897 51.578 10.8124C51.647 10.8657 51.7102 10.9145 51.7588 10.9633C52.2395 11.2858 52.56 11.447 52.56 11.447C52.56 11.447 52.7202 10.9633 52.8805 10.3184C53.0407 9.67352 53.0407 8.86742 52.7202 8.0613C52.56 7.73885 52.3997 7.41639 52.0792 7.09394C51.7588 6.7715 51.5985 6.61028 51.278 6.44906C51.0009 6.26318 50.7238 6.13086 50.508 6.05213C50.7058 6.09028 50.9739 6.12659 51.278 6.12659H52.3997C52.56 6.12659 52.7603 6.08628 52.9606 6.04597C53.1609 6.00567 53.3612 5.96536 53.5215 5.96536C54.3227 5.64291 54.9636 5.15926 55.4444 4.67559C55.9251 4.19192 56.0853 3.70823 56.0853 3.70823C56.0853 3.70823 55.6046 3.54699 54.9636 3.38577C54.6432 3.22458 54.1627 3.22458 53.8422 3.22458H53.8419H53.8416C53.361 3.22458 53.0406 3.22458 52.56 3.38577C51.7588 3.70818 51.1179 4.35303 50.6372 4.83668L50.6371 4.83682C50.3166 5.48172 50.1563 5.96536 50.1563 5.96536ZM70.239 22.1814C70.4392 22.1194 70.7651 22.023 71.1483 21.9267C71.272 21.8644 71.4196 21.8262 71.5819 21.7842C71.8399 21.7174 72.1351 21.641 72.4303 21.443C72.8106 21.443 73.0907 21.544 73.4292 21.666C73.5185 21.6982 73.6119 21.7318 73.7122 21.7655C73.8725 21.8461 74.0327 21.967 74.1929 22.0879C74.3532 22.2088 74.5134 22.3297 74.6737 22.4104C75.1544 22.894 75.4749 23.3777 75.7954 23.8614C75.9556 24.0226 76.1159 24.1838 76.1159 24.345L76.2761 24.5063C76.2761 24.5063 75.7954 24.6675 75.1544 24.6675H74.0327C73.6523 24.6675 73.3723 24.5665 73.0338 24.4445L73.0337 24.4445C72.9444 24.4123 72.8511 24.3787 72.7508 24.345C72.5371 24.345 72.3234 24.2017 72.1098 24.0584C72.0029 23.9868 71.8961 23.9151 71.7893 23.8614C71.4608 23.641 71.2071 23.3454 70.9772 23.0774L70.9771 23.0773L70.9771 23.0773C70.8705 22.9531 70.7691 22.8349 70.6676 22.7328C70.4527 22.5166 70.3099 22.3004 70.239 22.1814ZM70.2063 22.1916C70.1938 22.1551 70.1869 22.1215 70.1869 22.0879C70.1869 22.0879 70.2043 22.1229 70.239 22.1814L70.2063 22.1916ZM70.2063 22.1916C70.2237 22.2427 70.2519 22.2995 70.287 22.37C70.3471 22.491 70.4272 22.6522 70.5073 22.894C70.6676 23.3777 70.8278 23.8614 70.8278 24.5063V24.5063C70.8278 24.8288 70.8278 25.1512 70.6676 25.4736C70.567 25.7772 70.4033 26.0173 70.2557 26.2337L70.2556 26.2338C70.1681 26.3622 70.0862 26.4822 70.0266 26.6022C69.9131 26.7164 69.8196 26.8307 69.7321 26.9377C69.5725 27.1329 69.4323 27.3042 69.2254 27.4083C68.7446 27.892 68.2639 28.0532 68.2639 28.0532V27.892C68.2639 27.8114 68.2239 27.7308 68.1838 27.6502C68.1437 27.5695 68.1037 27.4889 68.1037 27.4083C67.9434 27.0859 67.9434 26.6023 67.9434 25.9574V25.9573V25.9572C67.9434 25.6348 67.9434 25.3124 68.1037 24.99C68.1037 24.6392 68.2722 24.3733 68.4259 24.1306C68.4842 24.0387 68.5404 23.95 68.5844 23.8614C68.7447 23.5389 69.0651 23.2165 69.2254 23.0552L70.0266 22.2491C70.0266 22.2491 70.0918 22.2272 70.2063 22.1916ZM68.264 17.4125C67.623 17.5737 67.3025 17.8962 67.3025 17.8962L67.2934 17.9054C67.2667 17.8752 67.243 17.8481 67.2224 17.8244C67.1863 17.7831 67.1596 17.7524 67.1423 17.735C67.1423 17.735 67.1423 17.8424 67.2295 17.9696L66.5013 18.7023C66.1808 19.186 65.7001 19.9921 65.5399 20.7982V21.9268C65.5399 22.088 65.5799 22.2492 65.62 22.4104L65.62 22.4105L65.62 22.4105C65.66 22.5717 65.7001 22.7329 65.7001 22.8941L66.0206 23.8615L66.8218 23.0554C67.3025 22.5717 67.7833 21.9268 67.9435 20.9595C68.1038 20.1534 67.9435 19.3472 67.623 18.7023C67.5618 18.5791 67.5006 18.4795 67.4483 18.3944C67.3637 18.2567 67.3025 18.157 67.3025 18.0574C67.2731 18.0278 67.2491 17.9982 67.2295 17.9696L67.2934 17.9054C67.6524 18.3112 68.5635 19.2681 70.0267 19.6696C70.8279 19.8309 71.7894 19.8309 72.4303 19.6696C73.0713 19.5084 73.5521 19.3472 73.5521 19.3472C73.5521 19.3472 73.2316 18.8635 72.7508 18.3799C72.4304 18.0574 72.2701 17.8962 71.7894 17.5737C71.7297 17.5437 71.6645 17.5081 71.5947 17.4701C71.2899 17.3036 70.8986 17.09 70.5074 17.09C69.7062 16.9288 68.7447 17.0901 68.264 17.4125ZM63.6165 14.0269C63.6165 14.0269 63.937 13.7044 64.578 13.382L64.5781 13.3819C64.8985 13.2207 65.219 13.0595 65.6997 13.0595C65.8599 12.8983 66.1803 12.8983 66.3405 12.8983H66.3407H66.9816C67.4623 12.8983 67.9431 13.0595 68.2636 13.2207C68.4238 13.3014 68.5841 13.4223 68.7443 13.5432C68.9045 13.6641 69.0648 13.785 69.225 13.8656L69.866 14.5106C69.866 14.6718 70.0262 14.833 70.0262 14.833C70.0262 14.833 69.7058 15.1555 69.0648 15.3167C68.9714 15.3402 68.8713 15.3671 68.7658 15.3954C68.1472 15.5616 67.3457 15.7768 66.6611 15.6391C66.4734 15.6391 66.3407 15.5838 66.2307 15.5379C66.1529 15.5055 66.0865 15.4779 66.0201 15.4779C65.8324 15.4779 65.6997 15.4226 65.5897 15.3767C65.5119 15.3443 65.4456 15.3167 65.3792 15.3167L64.4177 14.833L63.4705 14.1977C63.5599 14.0838 63.6165 14.0269 63.6165 14.0269ZM63.4684 14.2003L63.4563 14.1881L63.4705 14.1977L63.4684 14.2003ZM63.4684 14.2003C63.3451 14.3578 63.1603 14.6224 62.9755 14.9942L62.4948 15.9616C62.4948 16.0284 62.4673 16.0951 62.4351 16.1734C62.3896 16.284 62.3346 16.4176 62.3346 16.6065V17.2513V17.2515C62.3346 17.7351 62.3346 18.0575 62.4948 18.3799C62.5749 18.5411 62.615 18.7023 62.655 18.8636L62.655 18.8636C62.6951 19.0248 62.7352 19.1861 62.8153 19.3473C62.8765 19.4704 62.9377 19.57 62.9899 19.6551L62.99 19.6552L62.99 19.6552C63.0746 19.7929 63.1358 19.8925 63.1358 19.9922C63.296 20.1534 63.296 20.1534 63.296 20.1534L64.0972 19.3473C64.4177 18.8636 64.8985 18.0575 64.8985 17.2513V16.6065C64.8985 16.5258 64.8584 16.4452 64.8183 16.3646C64.7783 16.284 64.7382 16.2034 64.7382 16.1228L64.2575 15.1555C63.9449 14.6837 63.6323 14.3653 63.4684 14.2003ZM77.0769 32.8903C76.436 32.2455 75.4745 32.0842 74.8335 32.0842H73.8721H73.7118C73.7118 32.0842 73.2311 32.2454 72.7504 32.5679C72.1094 32.8903 71.4684 33.374 70.9877 34.0189C70.6049 34.5324 70.4253 35.1481 70.2871 35.6218C70.2518 35.7431 70.2191 35.855 70.1865 35.9536V36.276V36.5985V36.9209C70.1865 36.9209 70.6672 36.9209 71.3082 36.5985L72.2696 36.1148C72.5901 35.9536 72.9105 35.6312 73.231 35.3088L73.2311 35.3087C73.5516 34.9862 73.7118 34.6638 73.7118 34.1801C73.8721 33.8577 73.8721 33.5352 73.8721 33.2128V32.4067V32.0842C73.8721 32.0842 73.8721 32.2454 74.0323 32.4067C74.0323 32.5678 74.1925 32.8902 74.3527 33.2125L74.3528 33.2128L74.8335 34.1801C74.9938 34.5026 75.3142 34.825 75.6347 35.1475C75.9552 35.4699 76.2757 35.6311 76.7564 35.7923C77.0769 35.9536 77.5577 36.1148 77.8781 36.1148C78.5191 36.276 78.9998 36.276 78.9998 36.276V35.9536V35.6311C78.9998 35.5505 78.9598 35.4699 78.9197 35.3893C78.8797 35.3087 78.8396 35.2281 78.8396 35.1475C78.613 34.8625 78.4265 34.5776 78.2447 34.2998C77.912 33.7916 77.595 33.3073 77.0769 32.8903ZM72.2697 26.9233C72.2697 26.9233 72.7504 26.7621 73.3914 26.7621C74.1926 26.7621 74.9938 26.9233 75.4745 27.407C75.795 27.5682 76.1154 27.8906 76.4359 28.213L76.436 28.2131C76.7565 28.5356 76.9167 28.858 77.077 29.1804C77.077 29.261 77.1171 29.3416 77.1571 29.4223C77.1972 29.5029 77.2372 29.5835 77.2372 29.6641L77.2373 29.6642C77.3975 29.8253 77.3975 29.8254 77.3975 29.9865C77.5577 30.1478 77.5577 30.309 77.5577 30.309H76.436C76.1155 30.309 75.6348 30.309 75.3143 30.1478C75.0695 30.1478 74.7311 29.9596 74.4421 29.7989C74.3528 29.7492 74.2682 29.7022 74.1926 29.6641C73.8361 29.5445 73.6558 29.3363 73.4557 29.1051C73.386 29.0246 73.3139 28.9413 73.2311 28.858C72.9107 28.6968 72.7504 28.3744 72.5902 28.0519L72.5902 28.0519C72.5233 27.9173 72.4634 27.7897 72.4104 27.6721C72.4229 27.7897 72.4299 27.9173 72.4299 28.0519V29.1804C72.4299 29.5029 72.2697 29.9866 72.1094 30.309C71.9492 30.4702 71.829 30.6315 71.7088 30.7927C71.5886 30.9539 71.4684 31.1151 71.3082 31.2764C70.9877 31.5988 70.6672 31.76 70.3468 31.9212C69.866 32.2437 69.3853 32.4049 69.3853 32.4049V32.0825V31.76V31.4376C69.3853 31.2764 69.4253 31.1151 69.4654 30.9539C69.5055 30.7927 69.5455 30.6315 69.5455 30.4702C69.5455 30.1478 69.7058 29.6641 69.866 29.3417C70.1865 28.5355 70.8275 27.8906 71.3082 27.5682C71.6302 27.2442 71.9522 27.0649 72.1297 26.9818C72.1162 26.9437 72.1094 26.9233 72.1094 26.9233C72.1344 26.9233 72.1594 26.9351 72.1839 26.9574C72.2384 26.9338 72.2697 26.9233 72.2697 26.9233Z" fill="#F5EFDB"/>
</svg>
